<?xml version="1.0" standalone="no"?>
<!DOCTYPE svg PUBLIC "-//W3C//DTD SVG 1.1//EN" "http://www.w3.org/Graphics/SVG/1.1/DTD/svg11.dtd">
<svg width="1220" height="610" viewBox="0 326 326 326" xmlns="http://www.w3.org/2000/svg" version="1.1">
<title>OpenSCAD Model</title>
<path d="
M 10,-6.5 L 16,-6.5 L 16,-0 L 22,-0 L 22,-6.5 L 28,-6.5
 L 28,-0 L 34,-0 L 34,-6.5 L 40,-6.5 L 40,-0 L 46,-0
 L 46,-6.5 L 52,-6.5 L 52,-0 L 58,-0 L 58,-6.5 L 64,-6.5
 L 64,-0 L 70,-0 L 70,-6.5 L 76,-6.5 L 76,-0 L 82,-0
 L 82,-6.5 L 88,-6.5 L 88,-0 L 94,-0 L 94,-6.5 L 100,-6.5
 L 100,-0 L 106,-0 L 106,-6.5 L 112,-6.5 L 112,-0 L 118,-0
 L 118,-6.5 L 124,-6.5 L 124,-0 L 130,-0 L 130,-6.5 L 136,-6.5
 L 136,-0 L 142,-0 L 142,-6.5 L 148,-6.5 L 148,-0 L 154,-0
 L 154,-6.5 L 160,-6.5 L 160,-0 L 166,-0 L 166,-6.5 L 172,-6.5
 L 172,-0 L 178,-0 L 178,-6.5 L 184,-6.5 L 184,-0 L 190,-0
 L 190,-6.5 L 196,-6.5 L 196,-0 L 202,-0 L 202,-6.5 L 208,-6.5
 L 208,-0 L 214,-0 L 214,-6.5 L 220,-6.5 L 220,-0 L 226,-0
 L 226,-6.5 L 232,-6.5 L 232,-0 L 238,-0 L 238,-6.5 L 244,-6.5
 L 244,-0 L 250,-0 L 250,-6.5 L 256,-6.5 L 256,-0 L 262,-0
 L 262,-6.5 L 268,-6.5 L 268,-0 L 274,-0 L 274,-6.5 L 280,-6.5
 L 280,-0 L 286,-0 L 286,-6.5 L 292,-6.5 L 292,-0 L 298,-0
 L 298,-6.5 L 304,-6.5 L 304,-0 L 310,-0 L 310,-6.5 L 316,-6.5
 L 316,-0 L 326,-0 L 326,-9.99998 L 319.5,-9.99998 L 319.5,-16 L 326,-16
 L 326,-22 L 319.5,-22 L 319.5,-28 L 326,-28 L 326,-34 L 319.5,-34
 L 319.5,-40 L 326,-40 L 326,-46 L 319.5,-46 L 319.5,-52 L 326,-52
 L 326,-58 L 319.5,-58 L 319.5,-64 L 326,-64 L 326,-70 L 319.5,-70
 L 319.5,-76 L 326,-76 L 326,-82 L 319.5,-82 L 319.5,-88 L 326,-88
 L 326,-94 L 319.5,-94 L 319.5,-100 L 326,-100 L 326,-106 L 319.5,-106
 L 319.5,-112 L 326,-112 L 326,-118 L 319.5,-118 L 319.5,-124 L 326,-124
 L 326,-130 L 319.5,-130 L 319.5,-136 L 326,-136 L 326,-142 L 319.5,-142
 L 319.5,-148 L 326,-148 L 326,-154 L 319.5,-154 L 319.5,-160 L 326,-160
 L 326,-166 L 319.5,-166 L 319.5,-172 L 326,-172 L 326,-178 L 319.5,-178
 L 319.5,-184 L 326,-184 L 326,-190 L 319.5,-190 L 319.5,-196 L 326,-196
 L 326,-202 L 319.5,-202 L 319.5,-208 L 326,-208 L 326,-214 L 319.5,-214
 L 319.5,-220 L 326,-220 L 326,-226 L 319.5,-226 L 319.5,-232 L 326,-232
 L 326,-238 L 319.5,-238 L 319.5,-244 L 326,-244 L 326,-250 L 319.5,-250
 L 319.5,-256 L 326,-256 L 326,-262 L 319.5,-262 L 319.5,-268 L 326,-268
 L 326,-274 L 319.5,-274 L 319.5,-280 L 326,-280 L 326,-286 L 319.5,-286
 L 319.5,-292 L 326,-292 L 326,-298 L 319.5,-298 L 319.5,-304 L 326,-304
 L 326,-310 L 319.5,-310 L 319.5,-316 L 326,-316 L 326,-326 L 316,-326
 L 316,-319.5 L 310,-319.5 L 310,-326 L 304,-326 L 304,-319.5 L 298,-319.5
 L 298,-326 L 292,-326 L 292,-319.5 L 286,-319.5 L 286,-326 L 280,-326
 L 280,-319.5 L 274,-319.5 L 274,-326 L 268,-326 L 268,-319.5 L 262,-319.5
 L 262,-326 L 256,-326 L 256,-319.5 L 250,-319.5 L 250,-326 L 244,-326
 L 244,-319.5 L 238,-319.5 L 238,-326 L 232,-326 L 232,-319.5 L 226,-319.5
 L 226,-326 L 220,-326 L 220,-319.5 L 214,-319.5 L 214,-326 L 208,-326
 L 208,-319.5 L 202,-319.5 L 202,-326 L 196,-326 L 196,-319.5 L 190,-319.5
 L 190,-326 L 184,-326 L 184,-319.5 L 178,-319.5 L 178,-326 L 172,-326
 L 172,-319.5 L 166,-319.5 L 166,-326 L 160,-326 L 160,-319.5 L 154,-319.5
 L 154,-326 L 148,-326 L 148,-319.5 L 142,-319.5 L 142,-326 L 136,-326
 L 136,-319.5 L 130,-319.5 L 130,-326 L 124,-326 L 124,-319.5 L 118,-319.5
 L 118,-326 L 112,-326 L 112,-319.5 L 106,-319.5 L 106,-326 L 100,-326
 L 100,-319.5 L 94,-319.5 L 94,-326 L 88,-326 L 88,-319.5 L 82,-319.5
 L 82,-326 L 76,-326 L 76,-319.5 L 70,-319.5 L 70,-326 L 64,-326
 L 64,-319.5 L 58,-319.5 L 58,-326 L 52,-326 L 52,-319.5 L 46,-319.5
 L 46,-326 L 40,-326 L 40,-319.5 L 34,-319.5 L 34,-326 L 28,-326
 L 28,-319.5 L 22,-319.5 L 22,-326 L 16,-326 L 16,-319.5 L 10,-319.5
 L 10,-326 L 0,-326 L 0,-316 L 6.5,-316 L 6.5,-310 L 0,-310
 L 0,-304 L 6.5,-304 L 6.5,-298 L 0,-298 L 0,-292 L 6.5,-292
 L 6.5,-286 L 0,-286 L 0,-280 L 6.5,-280 L 6.5,-274 L 0,-274
 L 0,-268 L 6.5,-268 L 6.5,-262 L 0,-262 L 0,-256 L 6.5,-256
 L 6.5,-250 L 0,-250 L 0,-244 L 6.5,-244 L 6.5,-238 L 0,-238
 L 0,-232 L 6.5,-232 L 6.5,-226 L 0,-226 L 0,-220 L 6.5,-220
 L 6.5,-214 L 0,-214 L 0,-208 L 6.5,-208 L 6.5,-202 L 0,-202
 L 0,-196 L 6.5,-196 L 6.5,-190 L 0,-190 L 0,-184 L 6.5,-184
 L 6.5,-178 L 0,-178 L 0,-172 L 6.5,-172 L 6.5,-166 L 0,-166
 L 0,-160 L 6.5,-160 L 6.5,-154 L 0,-154 L 0,-148 L 6.5,-148
 L 6.5,-142 L 0,-142 L 0,-136 L 6.5,-136 L 6.5,-130 L 0,-130
 L 0,-124 L 6.5,-124 L 6.5,-118 L 0,-118 L 0,-112 L 6.5,-112
 L 6.5,-106 L 0,-106 L 0,-100 L 6.5,-100 L 6.5,-94 L 0,-94
 L 0,-88 L 6.5,-88 L 6.5,-82 L 0,-82 L 0,-76 L 6.5,-76
 L 6.5,-70 L 0,-70 L 0,-64 L 6.5,-64 L 6.5,-58 L 0,-58
 L 0,-52 L 6.5,-52 L 6.5,-46 L 0,-46 L 0,-40 L 6.5,-40
 L 6.5,-34 L 0,-34 L 0,-28 L 6.5,-28 L 6.5,-22 L 0,-22
 L 0,-16 L 6.5,-16 L 6.5,-10 L 0,-10 L 0,-0 L 10,-0
 z
M 106.5,-310 L 106.5,-316 L 113,-316 L 113,-310 z
M 213,-310 L 213,-316 L 219.5,-316 L 219.5,-310 z
M 106.5,-298 L 106.5,-304 L 113,-304 L 113,-298 z
M 213,-298 L 213,-304 L 219.5,-304 L 219.5,-298 z
M 213,-286 L 213,-292 L 219.5,-292 L 219.5,-286 z
M 106.5,-286 L 106.5,-292 L 113,-292 L 113,-286 z
M 213,-274 L 213,-280 L 219.5,-280 L 219.5,-274 z
M 106.5,-274 L 106.5,-280 L 113,-280 L 113,-274 z
M 106.5,-262 L 106.5,-268 L 113,-268 L 113,-262 z
M 213,-262 L 213,-268 L 219.5,-268 L 219.5,-262 z
M 213,-250 L 213,-256 L 219.5,-256 L 219.5,-250 z
M 106.5,-250 L 106.5,-256 L 113,-256 L 113,-250 z
M 213,-238 L 213,-244 L 219.5,-244 L 219.5,-238 z
M 106.5,-238 L 106.5,-244 L 113,-244 L 113,-238 z
M 106.5,-226 L 106.5,-232 L 113,-232 L 113,-226 z
M 213,-226 L 213,-232 L 219.5,-232 L 219.5,-226 z
M 214,-213 L 214,-214 L 213,-214 L 213,-220 L 219.5,-220 L 219.5,-219.5
 L 220,-219.5 L 220,-213 z
M 106,-213 L 106,-219.5 L 106.5,-219.5 L 106.5,-220 L 113,-220 L 113,-214
 L 112,-214 L 112,-213 z
M 34,-213 L 34,-219.5 L 40,-219.5 L 40,-213 z
M 226,-213 L 226,-219.5 L 232,-219.5 L 232,-213 z
M 238,-213 L 238,-219.5 L 244,-219.5 L 244,-213 z
M 262,-213 L 262,-219.5 L 268,-219.5 L 268,-213 z
M 274,-213 L 274,-219.5 L 280,-219.5 L 280,-213 z
M 286,-213 L 286,-219.5 L 292,-219.5 L 292,-213 z
M 298,-213 L 298,-219.5 L 304,-219.5 L 304,-213 z
M 310,-213 L 310,-219.5 L 316,-219.5 L 316,-213 z
M 154,-213 L 154,-219.5 L 160,-219.5 L 160,-213 z
M 142,-213 L 142,-219.5 L 148,-219.5 L 148,-213 z
M 166,-213 L 166,-219.5 L 172,-219.5 L 172,-213 z
M 250,-213 L 250,-219.5 L 256,-219.5 L 256,-213 z
M 46,-213 L 46,-219.5 L 52,-219.5 L 52,-213 z
M 58,-213 L 58,-219.5 L 64,-219.5 L 64,-213 z
M 70,-213 L 70,-219.5 L 76,-219.5 L 76,-213 z
M 82,-213 L 82,-219.5 L 88,-219.5 L 88,-213 z
M 94,-213 L 94,-219.5 L 100,-219.5 L 100,-213 z
M 118,-213 L 118,-219.5 L 124,-219.5 L 124,-213 z
M 130,-213 L 130,-219.5 L 136,-219.5 L 136,-213 z
M 10,-213 L 10,-219.5 L 16,-219.5 L 16,-213 z
M 178,-213 L 178,-219.5 L 184,-219.5 L 184,-213 z
M 190,-213 L 190,-219.5 L 196,-219.5 L 196,-213 z
M 22,-213 L 22,-219.5 L 28,-219.5 L 28,-213 z
M 202,-213 L 202,-219.5 L 208,-219.5 L 208,-213 z
M 213,-202 L 213,-208 L 219.5,-208 L 219.5,-202 z
M 106.5,-202 L 106.5,-208 L 113,-208 L 113,-202 z
M 213,-190 L 213,-196 L 219.5,-196 L 219.5,-190 z
M 106.5,-190 L 106.5,-196 L 113,-196 L 113,-190 z
M 106.5,-178 L 106.5,-184 L 113,-184 L 113,-178 z
M 213,-178 L 213,-184 L 219.5,-184 L 219.5,-178 z
M 106.5,-166 L 106.5,-172 L 113,-172 L 113,-166 z
M 213,-166 L 213,-172 L 219.5,-172 L 219.5,-166 z
M 213,-154 L 213,-160 L 219.5,-160 L 219.5,-154 z
M 106.5,-154 L 106.5,-160 L 113,-160 L 113,-154 z
M 106.5,-142 L 106.5,-148 L 113,-148 L 113,-142 z
M 213,-142 L 213,-148 L 219.5,-148 L 219.5,-142 z
M 213,-130 L 213,-136 L 219.5,-136 L 219.5,-130 z
M 106.5,-130 L 106.5,-136 L 113,-136 L 113,-130 z
M 106.5,-118 L 106.5,-124 L 113,-124 L 113,-118 z
M 213,-118 L 213,-124 L 219.5,-124 L 219.5,-118 z
M 310,-106.5 L 310,-113 L 316,-113 L 316,-106.5 z
M 274,-106.5 L 274,-113 L 280,-113 L 280,-106.5 z
M 250,-106.5 L 250,-113 L 256,-113 L 256,-106.5 z
M 238,-106.5 L 238,-113 L 244,-113 L 244,-106.5 z
M 226,-106.5 L 226,-113 L 232,-113 L 232,-106.5 z
M 213,-106.5 L 213,-112 L 214,-112 L 214,-113 L 220,-113 L 220,-106.5
 z
M 202,-106.5 L 202,-113 L 208,-113 L 208,-106.5 z
M 190,-106.5 L 190,-113 L 196,-113 L 196,-106.5 z
M 178,-106.5 L 178,-113 L 184,-113 L 184,-106.5 z
M 154,-106.5 L 154,-113 L 160,-113 L 160,-106.5 z
M 118,-106.5 L 118,-113 L 124,-113 L 124,-106.5 z
M 130,-106.5 L 130,-113 L 136,-113 L 136,-106.5 z
M 142,-106.5 L 142,-113 L 148,-113 L 148,-106.5 z
M 106.5,-106 L 106.5,-113 L 112,-113 L 112,-112 L 113,-112 L 113,-106
 z
M 298,-106.5 L 298,-113 L 304,-113 L 304,-106.5 z
M 286,-106.5 L 286,-113 L 292,-113 L 292,-106.5 z
M 262,-106.5 L 262,-113 L 268,-113 L 268,-106.5 z
M 166,-106.5 L 166,-113 L 172,-113 L 172,-106.5 z
M 106.5,-94 L 106.5,-100 L 113,-100 L 113,-94 z
M 106.5,-82 L 106.5,-88 L 113,-88 L 113,-82 z
M 106.5,-70 L 106.5,-76 L 113,-76 L 113,-70 z
M 106.5,-58 L 106.5,-64 L 113,-64 L 113,-58 z
M 106.5,-46 L 106.5,-52 L 113,-52 L 113,-46 z
M 106.5,-34 L 106.5,-40 L 113,-40 L 113,-34 z
M 106.5,-22 L 106.5,-28 L 113,-28 L 113,-22 z
M 106.5,-10 L 106.5,-16 L 113,-16 L 113,-10 z
" stroke="black" fill="lightgray" stroke-width="0.5"/></svg>
