<?xml version="1.0" standalone="no"?>
<!DOCTYPE svg PUBLIC "-//W3C//DTD SVG 1.1//EN" "http://www.w3.org/Graphics/SVG/1.1/DTD/svg11.dtd">
<svg width="1008" height="257" viewBox="0 -257 1008 257" xmlns="http://www.w3.org/2000/svg" version="1.1">
<title>OpenSCAD Model</title>
<path d="
M 433,-241 L 439,-241 L 439,-238 L 445,-238 L 445,-241 L 451,-241
 L 451,-238 L 457,-238 L 457,-241 L 462,-241 L 462,-244.5 L 459,-244.5
 L 459,-250.5 L 462,-250.5 L 462,-257 L 422,-257 L 422,-250.5 L 425,-250.5
 L 425,-244.5 L 422,-244.5 L 422,-241 L 427,-241 L 427,-238 L 433,-238
 z
M 343,-241 L 349,-241 L 349,-238 L 355,-238 L 355,-241 L 361,-241
 L 361,-238 L 367,-238 L 367,-241 L 373,-241 L 373,-238 L 378,-238
 L 378,-244.5 L 375,-244.5 L 375,-250.5 L 378,-250.5 L 378,-257 L 373,-257
 L 373,-254 L 367,-254 L 367,-257 L 361,-257 L 361,-254 L 355,-254
 L 355,-257 L 349,-257 L 349,-254 L 343,-254 L 343,-257 L 338,-257
 L 338,-250.5 L 341,-250.5 L 341,-244.5 L 338,-244.5 L 338,-238 L 343,-238
 z
M 895,-241 L 901,-241 L 901,-238 L 907,-238 L 907,-241 L 913,-241
 L 913,-238 L 919,-238 L 919,-241 L 924,-241 L 924,-244.5 L 921,-244.5
 L 921,-250.5 L 924,-250.5 L 924,-257 L 884,-257 L 884,-250.5 L 887,-250.5
 L 887,-244.5 L 884,-244.5 L 884,-241 L 889,-241 L 889,-238 L 895,-238
 z
M 847,-241 L 853,-241 L 853,-238 L 859,-238 L 859,-241 L 865,-241
 L 865,-238 L 871,-238 L 871,-241 L 877,-241 L 877,-238 L 882,-238
 L 882,-244.5 L 879,-244.5 L 879,-250.5 L 882,-250.5 L 882,-257 L 877,-257
 L 877,-254 L 871,-254 L 871,-257 L 865,-257 L 865,-254 L 859,-254
 L 859,-257 L 853,-257 L 853,-254 L 847,-254 L 847,-257 L 842,-257
 L 842,-250.5 L 845,-250.5 L 845,-244.5 L 842,-244.5 L 842,-238 L 847,-238
 z
M 391,-241 L 397,-241 L 397,-238 L 403,-238 L 403,-241 L 409,-241
 L 409,-238 L 415,-238 L 415,-241 L 420,-241 L 420,-244.5 L 417,-244.5
 L 417,-250.5 L 420,-250.5 L 420,-257 L 380,-257 L 380,-250.5 L 383,-250.5
 L 383,-244.5 L 380,-244.5 L 380,-241 L 385,-241 L 385,-238 L 391,-238
 z
M 679,-241 L 685,-241 L 685,-238 L 691,-238 L 691,-241 L 697,-241
 L 697,-238 L 703,-238 L 703,-241 L 709,-241 L 709,-238 L 714,-238
 L 714,-244.5 L 711,-244.5 L 711,-250.5 L 714,-250.5 L 714,-257 L 709,-257
 L 709,-254 L 703,-254 L 703,-257 L 697,-257 L 697,-254 L 691,-254
 L 691,-257 L 685,-257 L 685,-254 L 679,-254 L 679,-257 L 674,-257
 L 674,-250.5 L 677,-250.5 L 677,-244.5 L 674,-244.5 L 674,-238 L 679,-238
 z
M 329.5,-241 L 333,-241 L 333,-244.5 L 336,-244.5 L 336,-250.5 L 333,-250.5
 L 333,-257 L 320,-257 L 320,-250.5 L 317,-250.5 L 317,-244.5 L 320,-244.5
 L 320,-241 L 323.5,-241 L 323.5,-238 L 329.5,-238 z
M 308.5,-241 L 312,-241 L 312,-244.5 L 315,-244.5 L 315,-250.5 L 312,-250.5
 L 312,-257 L 299,-257 L 299,-250.5 L 296,-250.5 L 296,-244.5 L 299,-244.5
 L 299,-241 L 302.5,-241 L 302.5,-238 L 308.5,-238 z
M 265,-241 L 271,-241 L 271,-238 L 277,-238 L 277,-241 L 283,-241
 L 283,-238 L 289,-238 L 289,-241 L 294,-241 L 294,-244.5 L 291,-244.5
 L 291,-250.5 L 294,-250.5 L 294,-257 L 254,-257 L 254,-250.5 L 257,-250.5
 L 257,-244.5 L 254,-244.5 L 254,-241 L 259,-241 L 259,-238 L 265,-238
 z
M 223,-241 L 229,-241 L 229,-238 L 235,-238 L 235,-241 L 241,-241
 L 241,-238 L 247,-238 L 247,-241 L 252,-241 L 252,-244.5 L 249,-244.5
 L 249,-250.5 L 252,-250.5 L 252,-257 L 212,-257 L 212,-250.5 L 215,-250.5
 L 215,-244.5 L 212,-244.5 L 212,-241 L 217,-241 L 217,-238 L 223,-238
 z
M 511,-241 L 517,-241 L 517,-238 L 523,-238 L 523,-241 L 529,-241
 L 529,-238 L 535,-238 L 535,-241 L 541,-241 L 541,-238 L 546,-238
 L 546,-244.5 L 543,-244.5 L 543,-250.5 L 546,-250.5 L 546,-257 L 541,-257
 L 541,-254 L 535,-254 L 535,-257 L 529,-257 L 529,-254 L 523,-254
 L 523,-257 L 517,-257 L 517,-254 L 511,-254 L 511,-257 L 506,-257
 L 506,-250.5 L 509,-250.5 L 509,-244.5 L 506,-244.5 L 506,-238 L 511,-238
 z
M 175,-241 L 181,-241 L 181,-238 L 187,-238 L 187,-241 L 193,-241
 L 193,-238 L 199,-238 L 199,-241 L 205,-241 L 205,-238 L 210,-238
 L 210,-244.5 L 207,-244.5 L 207,-250.5 L 210,-250.5 L 210,-257 L 205,-257
 L 205,-254 L 199,-254 L 199,-257 L 193,-257 L 193,-254 L 187,-254
 L 187,-257 L 181,-257 L 181,-254 L 175,-254 L 175,-257 L 170,-257
 L 170,-250.5 L 173,-250.5 L 173,-244.5 L 170,-244.5 L 170,-238 L 175,-238
 z
M 497.5,-241 L 501,-241 L 501,-244.5 L 504,-244.5 L 504,-250.5 L 501,-250.5
 L 501,-257 L 488,-257 L 488,-250.5 L 485,-250.5 L 485,-244.5 L 488,-244.5
 L 488,-241 L 491.5,-241 L 491.5,-238 L 497.5,-238 z
M 980.5,-241 L 984,-241 L 984,-244.5 L 987,-244.5 L 987,-250.5 L 984,-250.5
 L 984,-257 L 971,-257 L 971,-250.5 L 968,-250.5 L 968,-244.5 L 971,-244.5
 L 971,-241 L 974.5,-241 L 974.5,-238 L 980.5,-238 z
M 476.5,-241 L 480,-241 L 480,-244.5 L 483,-244.5 L 483,-250.5 L 480,-250.5
 L 480,-257 L 467,-257 L 467,-250.5 L 464,-250.5 L 464,-244.5 L 467,-244.5
 L 467,-241 L 470.5,-241 L 470.5,-238 L 476.5,-238 z
M 55,-241 L 61,-241 L 61,-238 L 67,-238 L 67,-241 L 73,-241
 L 73,-238 L 79,-238 L 79,-241 L 84,-241 L 84,-244.5 L 81,-244.5
 L 81,-250.5 L 84,-250.5 L 84,-257 L 44,-257 L 44,-250.5 L 47,-250.5
 L 47,-244.5 L 44,-244.5 L 44,-241 L 49,-241 L 49,-238 L 55,-238
 z
M 97,-241 L 103,-241 L 103,-238 L 109,-238 L 109,-241 L 115,-241
 L 115,-238 L 121,-238 L 121,-241 L 126,-241 L 126,-244.5 L 123,-244.5
 L 123,-250.5 L 126,-250.5 L 126,-257 L 86,-257 L 86,-250.5 L 89,-250.5
 L 89,-244.5 L 86,-244.5 L 86,-241 L 91,-241 L 91,-238 L 97,-238
 z
M 559,-241 L 565,-241 L 565,-238 L 571,-238 L 571,-241 L 577,-241
 L 577,-238 L 583,-238 L 583,-241 L 588,-241 L 588,-244.5 L 585,-244.5
 L 585,-250.5 L 588,-250.5 L 588,-257 L 548,-257 L 548,-250.5 L 551,-250.5
 L 551,-244.5 L 548,-244.5 L 548,-241 L 553,-241 L 553,-238 L 559,-238
 z
M 161.5,-241 L 165,-241 L 165,-244.5 L 168,-244.5 L 168,-250.5 L 165,-250.5
 L 165,-257 L 152,-257 L 152,-250.5 L 149,-250.5 L 149,-244.5 L 152,-244.5
 L 152,-241 L 155.5,-241 L 155.5,-238 L 161.5,-238 z
M 6.99998,-241 L 13,-241 L 13,-238 L 19,-238 L 19,-241 L 25,-241
 L 25,-238 L 31,-238 L 31,-241 L 37,-241 L 37,-238 L 42,-238
 L 42,-244.5 L 39,-244.5 L 39,-250.5 L 42,-250.5 L 42,-257 L 37,-257
 L 37,-254 L 31,-254 L 31,-257 L 25,-257 L 25,-254 L 19,-254
 L 19,-257 L 13,-257 L 13,-254 L 6.99998,-254 L 6.99998,-257 L 2,-257
 L 2,-250.5 L 5,-250.5 L 5,-244.5 L 2,-244.5 L 2,-238 L 6.99998,-238
 z
M 601,-241 L 607,-241 L 607,-238 L 613,-238 L 613,-241 L 619,-241
 L 619,-238 L 625,-238 L 625,-241 L 630,-241 L 630,-244.5 L 627,-244.5
 L 627,-250.5 L 630,-250.5 L 630,-257 L 590,-257 L 590,-250.5 L 593,-250.5
 L 593,-244.5 L 590,-244.5 L 590,-241 L 595,-241 L 595,-238 L 601,-238
 z
M 644.5,-241 L 648,-241 L 648,-244.5 L 651,-244.5 L 651,-250.5 L 648,-250.5
 L 648,-257 L 635,-257 L 635,-250.5 L 632,-250.5 L 632,-244.5 L 635,-244.5
 L 635,-241 L 638.5,-241 L 638.5,-238 L 644.5,-238 z
M 833.5,-241 L 837,-241 L 837,-244.5 L 840,-244.5 L 840,-250.5 L 837,-250.5
 L 837,-257 L 824,-257 L 824,-250.5 L 821,-250.5 L 821,-244.5 L 824,-244.5
 L 824,-241 L 827.5,-241 L 827.5,-238 L 833.5,-238 z
M 727,-241 L 733,-241 L 733,-238 L 739,-238 L 739,-241 L 745,-241
 L 745,-238 L 751,-238 L 751,-241 L 756,-241 L 756,-244.5 L 753,-244.5
 L 753,-250.5 L 756,-250.5 L 756,-257 L 716,-257 L 716,-250.5 L 719,-250.5
 L 719,-244.5 L 716,-244.5 L 716,-241 L 721,-241 L 721,-238 L 727,-238
 z
M 937,-241 L 943,-241 L 943,-238 L 949,-238 L 949,-241 L 955,-241
 L 955,-238 L 961,-238 L 961,-241 L 966,-241 L 966,-244.5 L 963,-244.5
 L 963,-250.5 L 966,-250.5 L 966,-257 L 926,-257 L 926,-250.5 L 929,-250.5
 L 929,-244.5 L 926,-244.5 L 926,-241 L 931,-241 L 931,-238 L 937,-238
 z
M 1001.5,-241 L 1005,-241 L 1005,-244.5 L 1008,-244.5 L 1008,-250.5 L 1005,-250.5
 L 1005,-257 L 992,-257 L 992,-250.5 L 989,-250.5 L 989,-244.5 L 992,-244.5
 L 992,-241 L 995.5,-241 L 995.5,-238 L 1001.5,-238 z
M 140.5,-241 L 144,-241 L 144,-244.5 L 147,-244.5 L 147,-250.5 L 144,-250.5
 L 144,-257 L 131,-257 L 131,-250.5 L 128,-250.5 L 128,-244.5 L 131,-244.5
 L 131,-241 L 134.5,-241 L 134.5,-238 L 140.5,-238 z
M 812.5,-241 L 816,-241 L 816,-244.5 L 819,-244.5 L 819,-250.5 L 816,-250.5
 L 816,-257 L 803,-257 L 803,-250.5 L 800,-250.5 L 800,-244.5 L 803,-244.5
 L 803,-241 L 806.5,-241 L 806.5,-238 L 812.5,-238 z
M 769,-241 L 775,-241 L 775,-238 L 781,-238 L 781,-241 L 787,-241
 L 787,-238 L 793,-238 L 793,-241 L 798,-241 L 798,-244.5 L 795,-244.5
 L 795,-250.5 L 798,-250.5 L 798,-257 L 758,-257 L 758,-250.5 L 761,-250.5
 L 761,-244.5 L 758,-244.5 L 758,-241 L 763,-241 L 763,-238 L 769,-238
 z
M 665.5,-241 L 669,-241 L 669,-244.5 L 672,-244.5 L 672,-250.5 L 669,-250.5
 L 669,-257 L 656,-257 L 656,-250.5 L 653,-250.5 L 653,-244.5 L 656,-244.5
 L 656,-241 L 659.5,-241 L 659.5,-238 L 665.5,-238 z
M 308.5,-220 L 312,-220 L 312,-223.5 L 315,-223.5 L 315,-229.5 L 312,-229.5
 L 312,-236 L 299,-236 L 299,-229.5 L 296,-229.5 L 296,-223.5 L 299,-223.5
 L 299,-220 L 302.5,-220 L 302.5,-217 L 308.5,-217 z
M 847,-220 L 853,-220 L 853,-217 L 859,-217 L 859,-220 L 865,-220
 L 865,-217 L 871,-217 L 871,-220 L 877,-220 L 877,-217 L 882,-217
 L 882,-223.5 L 879,-223.5 L 879,-229.5 L 882,-229.5 L 882,-236 L 877,-236
 L 877,-233 L 871,-233 L 871,-236 L 865,-236 L 865,-233 L 859,-233
 L 859,-236 L 853,-236 L 853,-233 L 847,-233 L 847,-236 L 842,-236
 L 842,-229.5 L 845,-229.5 L 845,-223.5 L 842,-223.5 L 842,-217 L 847,-217
 z
M 1001.5,-220 L 1005,-220 L 1005,-223.5 L 1008,-223.5 L 1008,-229.5 L 1005,-229.5
 L 1005,-236 L 992,-236 L 992,-229.5 L 989,-229.5 L 989,-223.5 L 992,-223.5
 L 992,-220 L 995.5,-220 L 995.5,-217 L 1001.5,-217 z
M 265,-220 L 271,-220 L 271,-217 L 277,-217 L 277,-220 L 283,-220
 L 283,-217 L 289,-217 L 289,-220 L 294,-220 L 294,-223.5 L 291,-223.5
 L 291,-229.5 L 294,-229.5 L 294,-236 L 254,-236 L 254,-229.5 L 257,-229.5
 L 257,-223.5 L 254,-223.5 L 254,-220 L 259,-220 L 259,-217 L 265,-217
 z
M 329.5,-220 L 333,-220 L 333,-223.5 L 336,-223.5 L 336,-229.5 L 333,-229.5
 L 333,-236 L 320,-236 L 320,-229.5 L 317,-229.5 L 317,-223.5 L 320,-223.5
 L 320,-220 L 323.5,-220 L 323.5,-217 L 329.5,-217 z
M 833.5,-220 L 837,-220 L 837,-223.5 L 840,-223.5 L 840,-229.5 L 837,-229.5
 L 837,-236 L 824,-236 L 824,-229.5 L 821,-229.5 L 821,-223.5 L 824,-223.5
 L 824,-220 L 827.5,-220 L 827.5,-217 L 833.5,-217 z
M 391,-220 L 397,-220 L 397,-217 L 403,-217 L 403,-220 L 409,-220
 L 409,-217 L 415,-217 L 415,-220 L 420,-220 L 420,-223.5 L 417,-223.5
 L 417,-229.5 L 420,-229.5 L 420,-236 L 380,-236 L 380,-229.5 L 383,-229.5
 L 383,-223.5 L 380,-223.5 L 380,-220 L 385,-220 L 385,-217 L 391,-217
 z
M 812.5,-220 L 816,-220 L 816,-223.5 L 819,-223.5 L 819,-229.5 L 816,-229.5
 L 816,-236 L 803,-236 L 803,-229.5 L 800,-229.5 L 800,-223.5 L 803,-223.5
 L 803,-220 L 806.5,-220 L 806.5,-217 L 812.5,-217 z
M 895,-220 L 901,-220 L 901,-217 L 907,-217 L 907,-220 L 913,-220
 L 913,-217 L 919,-217 L 919,-220 L 924,-220 L 924,-223.5 L 921,-223.5
 L 921,-229.5 L 924,-229.5 L 924,-236 L 884,-236 L 884,-229.5 L 887,-229.5
 L 887,-223.5 L 884,-223.5 L 884,-220 L 889,-220 L 889,-217 L 895,-217
 z
M 980.5,-220 L 984,-220 L 984,-223.5 L 987,-223.5 L 987,-229.5 L 984,-229.5
 L 984,-236 L 971,-236 L 971,-229.5 L 968,-229.5 L 968,-223.5 L 971,-223.5
 L 971,-220 L 974.5,-220 L 974.5,-217 L 980.5,-217 z
M 175,-220 L 181,-220 L 181,-217 L 187,-217 L 187,-220 L 193,-220
 L 193,-217 L 199,-217 L 199,-220 L 205,-220 L 205,-217 L 210,-217
 L 210,-223.5 L 207,-223.5 L 207,-229.5 L 210,-229.5 L 210,-236 L 205,-236
 L 205,-233 L 199,-233 L 199,-236 L 193,-236 L 193,-233 L 187,-233
 L 187,-236 L 181,-236 L 181,-233 L 175,-233 L 175,-236 L 170,-236
 L 170,-229.5 L 173,-229.5 L 173,-223.5 L 170,-223.5 L 170,-217 L 175,-217
 z
M 937,-220 L 943,-220 L 943,-217 L 949,-217 L 949,-220 L 955,-220
 L 955,-217 L 961,-217 L 961,-220 L 966,-220 L 966,-223.5 L 963,-223.5
 L 963,-229.5 L 966,-229.5 L 966,-236 L 926,-236 L 926,-229.5 L 929,-229.5
 L 929,-223.5 L 926,-223.5 L 926,-220 L 931,-220 L 931,-217 L 937,-217
 z
M 223,-220 L 229,-220 L 229,-217 L 235,-217 L 235,-220 L 241,-220
 L 241,-217 L 247,-217 L 247,-220 L 252,-220 L 252,-223.5 L 249,-223.5
 L 249,-229.5 L 252,-229.5 L 252,-236 L 212,-236 L 212,-229.5 L 215,-229.5
 L 215,-223.5 L 212,-223.5 L 212,-220 L 217,-220 L 217,-217 L 223,-217
 z
M 679,-220 L 685,-220 L 685,-217 L 691,-217 L 691,-220 L 697,-220
 L 697,-217 L 703,-217 L 703,-220 L 709,-220 L 709,-217 L 714,-217
 L 714,-223.5 L 711,-223.5 L 711,-229.5 L 714,-229.5 L 714,-236 L 709,-236
 L 709,-233 L 703,-233 L 703,-236 L 697,-236 L 697,-233 L 691,-233
 L 691,-236 L 685,-236 L 685,-233 L 679,-233 L 679,-236 L 674,-236
 L 674,-229.5 L 677,-229.5 L 677,-223.5 L 674,-223.5 L 674,-217 L 679,-217
 z
M 727,-220 L 733,-220 L 733,-217 L 739,-217 L 739,-220 L 745,-220
 L 745,-217 L 751,-217 L 751,-220 L 756,-220 L 756,-223.5 L 753,-223.5
 L 753,-229.5 L 756,-229.5 L 756,-236 L 716,-236 L 716,-229.5 L 719,-229.5
 L 719,-223.5 L 716,-223.5 L 716,-220 L 721,-220 L 721,-217 L 727,-217
 z
M 6.99998,-220 L 13,-220 L 13,-217 L 19,-217 L 19,-220 L 25,-220
 L 25,-217 L 31,-217 L 31,-220 L 37,-220 L 37,-217 L 42,-217
 L 42,-223.5 L 39,-223.5 L 39,-229.5 L 42,-229.5 L 42,-236 L 37,-236
 L 37,-233 L 31,-233 L 31,-236 L 25,-236 L 25,-233 L 19,-233
 L 19,-236 L 13,-236 L 13,-233 L 6.99998,-233 L 6.99998,-236 L 2,-236
 L 2,-229.5 L 5,-229.5 L 5,-223.5 L 2,-223.5 L 2,-217 L 6.99998,-217
 z
M 476.5,-220 L 480,-220 L 480,-223.5 L 483,-223.5 L 483,-229.5 L 480,-229.5
 L 480,-236 L 467,-236 L 467,-229.5 L 464,-229.5 L 464,-223.5 L 467,-223.5
 L 467,-220 L 470.5,-220 L 470.5,-217 L 476.5,-217 z
M 511,-220 L 517,-220 L 517,-217 L 523,-217 L 523,-220 L 529,-220
 L 529,-217 L 535,-217 L 535,-220 L 541,-220 L 541,-217 L 546,-217
 L 546,-223.5 L 543,-223.5 L 543,-229.5 L 546,-229.5 L 546,-236 L 541,-236
 L 541,-233 L 535,-233 L 535,-236 L 529,-236 L 529,-233 L 523,-233
 L 523,-236 L 517,-236 L 517,-233 L 511,-233 L 511,-236 L 506,-236
 L 506,-229.5 L 509,-229.5 L 509,-223.5 L 506,-223.5 L 506,-217 L 511,-217
 z
M 343,-220 L 349,-220 L 349,-217 L 355,-217 L 355,-220 L 361,-220
 L 361,-217 L 367,-217 L 367,-220 L 373,-220 L 373,-217 L 378,-217
 L 378,-223.5 L 375,-223.5 L 375,-229.5 L 378,-229.5 L 378,-236 L 373,-236
 L 373,-233 L 367,-233 L 367,-236 L 361,-236 L 361,-233 L 355,-233
 L 355,-236 L 349,-236 L 349,-233 L 343,-233 L 343,-236 L 338,-236
 L 338,-229.5 L 341,-229.5 L 341,-223.5 L 338,-223.5 L 338,-217 L 343,-217
 z
M 433,-220 L 439,-220 L 439,-217 L 445,-217 L 445,-220 L 451,-220
 L 451,-217 L 457,-217 L 457,-220 L 462,-220 L 462,-223.5 L 459,-223.5
 L 459,-229.5 L 462,-229.5 L 462,-236 L 422,-236 L 422,-229.5 L 425,-229.5
 L 425,-223.5 L 422,-223.5 L 422,-220 L 427,-220 L 427,-217 L 433,-217
 z
M 55,-220 L 61,-220 L 61,-217 L 67,-217 L 67,-220 L 73,-220
 L 73,-217 L 79,-217 L 79,-220 L 84,-220 L 84,-223.5 L 81,-223.5
 L 81,-229.5 L 84,-229.5 L 84,-236 L 44,-236 L 44,-229.5 L 47,-229.5
 L 47,-223.5 L 44,-223.5 L 44,-220 L 49,-220 L 49,-217 L 55,-217
 z
M 161.5,-220 L 165,-220 L 165,-223.5 L 168,-223.5 L 168,-229.5 L 165,-229.5
 L 165,-236 L 152,-236 L 152,-229.5 L 149,-229.5 L 149,-223.5 L 152,-223.5
 L 152,-220 L 155.5,-220 L 155.5,-217 L 161.5,-217 z
M 497.5,-220 L 501,-220 L 501,-223.5 L 504,-223.5 L 504,-229.5 L 501,-229.5
 L 501,-236 L 488,-236 L 488,-229.5 L 485,-229.5 L 485,-223.5 L 488,-223.5
 L 488,-220 L 491.5,-220 L 491.5,-217 L 497.5,-217 z
M 769,-220 L 775,-220 L 775,-217 L 781,-217 L 781,-220 L 787,-220
 L 787,-217 L 793,-217 L 793,-220 L 798,-220 L 798,-223.5 L 795,-223.5
 L 795,-229.5 L 798,-229.5 L 798,-236 L 758,-236 L 758,-229.5 L 761,-229.5
 L 761,-223.5 L 758,-223.5 L 758,-220 L 763,-220 L 763,-217 L 769,-217
 z
M 601,-220 L 607,-220 L 607,-217 L 613,-217 L 613,-220 L 619,-220
 L 619,-217 L 625,-217 L 625,-220 L 630,-220 L 630,-223.5 L 627,-223.5
 L 627,-229.5 L 630,-229.5 L 630,-236 L 590,-236 L 590,-229.5 L 593,-229.5
 L 593,-223.5 L 590,-223.5 L 590,-220 L 595,-220 L 595,-217 L 601,-217
 z
M 644.5,-220 L 648,-220 L 648,-223.5 L 651,-223.5 L 651,-229.5 L 648,-229.5
 L 648,-236 L 635,-236 L 635,-229.5 L 632,-229.5 L 632,-223.5 L 635,-223.5
 L 635,-220 L 638.5,-220 L 638.5,-217 L 644.5,-217 z
M 665.5,-220 L 669,-220 L 669,-223.5 L 672,-223.5 L 672,-229.5 L 669,-229.5
 L 669,-236 L 656,-236 L 656,-229.5 L 653,-229.5 L 653,-223.5 L 656,-223.5
 L 656,-220 L 659.5,-220 L 659.5,-217 L 665.5,-217 z
M 97,-220 L 103,-220 L 103,-217 L 109,-217 L 109,-220 L 115,-220
 L 115,-217 L 121,-217 L 121,-220 L 126,-220 L 126,-223.5 L 123,-223.5
 L 123,-229.5 L 126,-229.5 L 126,-236 L 86,-236 L 86,-229.5 L 89,-229.5
 L 89,-223.5 L 86,-223.5 L 86,-220 L 91,-220 L 91,-217 L 97,-217
 z
M 559,-220 L 565,-220 L 565,-217 L 571,-217 L 571,-220 L 577,-220
 L 577,-217 L 583,-217 L 583,-220 L 588,-220 L 588,-223.5 L 585,-223.5
 L 585,-229.5 L 588,-229.5 L 588,-236 L 548,-236 L 548,-229.5 L 551,-229.5
 L 551,-223.5 L 548,-223.5 L 548,-220 L 553,-220 L 553,-217 L 559,-217
 z
M 140.5,-220 L 144,-220 L 144,-223.5 L 147,-223.5 L 147,-229.5 L 144,-229.5
 L 144,-236 L 131,-236 L 131,-229.5 L 128,-229.5 L 128,-223.5 L 131,-223.5
 L 131,-220 L 134.5,-220 L 134.5,-217 L 140.5,-217 z
M 497.5,-199 L 501,-199 L 501,-202.5 L 504,-202.5 L 504,-208.5 L 501,-208.5
 L 501,-215 L 488,-215 L 488,-208.5 L 485,-208.5 L 485,-202.5 L 488,-202.5
 L 488,-199 L 491.5,-199 L 491.5,-196 L 497.5,-196 z
M 476.5,-199 L 480,-199 L 480,-202.5 L 483,-202.5 L 483,-208.5 L 480,-208.5
 L 480,-215 L 467,-215 L 467,-208.5 L 464,-208.5 L 464,-202.5 L 467,-202.5
 L 467,-199 L 470.5,-199 L 470.5,-196 L 476.5,-196 z
M 343,-199 L 349,-199 L 349,-196 L 355,-196 L 355,-199 L 361,-199
 L 361,-196 L 367,-196 L 367,-199 L 373,-199 L 373,-196 L 378,-196
 L 378,-202.5 L 375,-202.5 L 375,-208.5 L 378,-208.5 L 378,-215 L 373,-215
 L 373,-212 L 367,-212 L 367,-215 L 361,-215 L 361,-212 L 355,-212
 L 355,-215 L 349,-215 L 349,-212 L 343,-212 L 343,-215 L 338,-215
 L 338,-208.5 L 341,-208.5 L 341,-202.5 L 338,-202.5 L 338,-196 L 343,-196
 z
M 679,-199 L 685,-199 L 685,-196 L 691,-196 L 691,-199 L 697,-199
 L 697,-196 L 703,-196 L 703,-199 L 709,-199 L 709,-196 L 714,-196
 L 714,-202.5 L 711,-202.5 L 711,-208.5 L 714,-208.5 L 714,-215 L 709,-215
 L 709,-212 L 703,-212 L 703,-215 L 697,-215 L 697,-212 L 691,-212
 L 691,-215 L 685,-215 L 685,-212 L 679,-212 L 679,-215 L 674,-215
 L 674,-208.5 L 677,-208.5 L 677,-202.5 L 674,-202.5 L 674,-196 L 679,-196
 z
M 161.5,-199 L 165,-199 L 165,-202.5 L 168,-202.5 L 168,-208.5 L 165,-208.5
 L 165,-215 L 152,-215 L 152,-208.5 L 149,-208.5 L 149,-202.5 L 152,-202.5
 L 152,-199 L 155.5,-199 L 155.5,-196 L 161.5,-196 z
M 511,-199 L 517,-199 L 517,-196 L 523,-196 L 523,-199 L 529,-199
 L 529,-196 L 535,-196 L 535,-199 L 541,-199 L 541,-196 L 546,-196
 L 546,-202.5 L 543,-202.5 L 543,-208.5 L 546,-208.5 L 546,-215 L 541,-215
 L 541,-212 L 535,-212 L 535,-215 L 529,-215 L 529,-212 L 523,-212
 L 523,-215 L 517,-215 L 517,-212 L 511,-212 L 511,-215 L 506,-215
 L 506,-208.5 L 509,-208.5 L 509,-202.5 L 506,-202.5 L 506,-196 L 511,-196
 z
M 175,-199 L 181,-199 L 181,-196 L 187,-196 L 187,-199 L 193,-199
 L 193,-196 L 199,-196 L 199,-199 L 205,-199 L 205,-196 L 210,-196
 L 210,-202.5 L 207,-202.5 L 207,-208.5 L 210,-208.5 L 210,-215 L 205,-215
 L 205,-212 L 199,-212 L 199,-215 L 193,-215 L 193,-212 L 187,-212
 L 187,-215 L 181,-215 L 181,-212 L 175,-212 L 175,-215 L 170,-215
 L 170,-208.5 L 173,-208.5 L 173,-202.5 L 170,-202.5 L 170,-196 L 175,-196
 z
M 644.5,-199 L 648,-199 L 648,-202.5 L 651,-202.5 L 651,-208.5 L 648,-208.5
 L 648,-215 L 635,-215 L 635,-208.5 L 632,-208.5 L 632,-202.5 L 635,-202.5
 L 635,-199 L 638.5,-199 L 638.5,-196 L 644.5,-196 z
M 665.5,-199 L 669,-199 L 669,-202.5 L 672,-202.5 L 672,-208.5 L 669,-208.5
 L 669,-215 L 656,-215 L 656,-208.5 L 653,-208.5 L 653,-202.5 L 656,-202.5
 L 656,-199 L 659.5,-199 L 659.5,-196 L 665.5,-196 z
M 559,-199 L 565,-199 L 565,-196 L 571,-196 L 571,-199 L 577,-199
 L 577,-196 L 583,-196 L 583,-199 L 588,-199 L 588,-202.5 L 585,-202.5
 L 585,-208.5 L 588,-208.5 L 588,-215 L 548,-215 L 548,-208.5 L 551,-208.5
 L 551,-202.5 L 548,-202.5 L 548,-199 L 553,-199 L 553,-196 L 559,-196
 z
M 140.5,-199 L 144,-199 L 144,-202.5 L 147,-202.5 L 147,-208.5 L 144,-208.5
 L 144,-215 L 131,-215 L 131,-208.5 L 128,-208.5 L 128,-202.5 L 131,-202.5
 L 131,-199 L 134.5,-199 L 134.5,-196 L 140.5,-196 z
M 55,-199 L 61,-199 L 61,-196 L 67,-196 L 67,-199 L 73,-199
 L 73,-196 L 79,-196 L 79,-199 L 84,-199 L 84,-202.5 L 81,-202.5
 L 81,-208.5 L 84,-208.5 L 84,-215 L 44,-215 L 44,-208.5 L 47,-208.5
 L 47,-202.5 L 44,-202.5 L 44,-199 L 49,-199 L 49,-196 L 55,-196
 z
M 265,-199 L 271,-199 L 271,-196 L 277,-196 L 277,-199 L 283,-199
 L 283,-196 L 289,-196 L 289,-199 L 294,-199 L 294,-202.5 L 291,-202.5
 L 291,-208.5 L 294,-208.5 L 294,-215 L 254,-215 L 254,-208.5 L 257,-208.5
 L 257,-202.5 L 254,-202.5 L 254,-199 L 259,-199 L 259,-196 L 265,-196
 z
M 937,-199 L 943,-199 L 943,-196 L 949,-196 L 949,-199 L 955,-199
 L 955,-196 L 961,-196 L 961,-199 L 966,-199 L 966,-202.5 L 963,-202.5
 L 963,-208.5 L 966,-208.5 L 966,-215 L 926,-215 L 926,-208.5 L 929,-208.5
 L 929,-202.5 L 926,-202.5 L 926,-199 L 931,-199 L 931,-196 L 937,-196
 z
M 812.5,-199 L 816,-199 L 816,-202.5 L 819,-202.5 L 819,-208.5 L 816,-208.5
 L 816,-215 L 803,-215 L 803,-208.5 L 800,-208.5 L 800,-202.5 L 803,-202.5
 L 803,-199 L 806.5,-199 L 806.5,-196 L 812.5,-196 z
M 391,-199 L 397,-199 L 397,-196 L 403,-196 L 403,-199 L 409,-199
 L 409,-196 L 415,-196 L 415,-199 L 420,-199 L 420,-202.5 L 417,-202.5
 L 417,-208.5 L 420,-208.5 L 420,-215 L 380,-215 L 380,-208.5 L 383,-208.5
 L 383,-202.5 L 380,-202.5 L 380,-199 L 385,-199 L 385,-196 L 391,-196
 z
M 895,-199 L 901,-199 L 901,-196 L 907,-196 L 907,-199 L 913,-199
 L 913,-196 L 919,-196 L 919,-199 L 924,-199 L 924,-202.5 L 921,-202.5
 L 921,-208.5 L 924,-208.5 L 924,-215 L 884,-215 L 884,-208.5 L 887,-208.5
 L 887,-202.5 L 884,-202.5 L 884,-199 L 889,-199 L 889,-196 L 895,-196
 z
M 833.5,-199 L 837,-199 L 837,-202.5 L 840,-202.5 L 840,-208.5 L 837,-208.5
 L 837,-215 L 824,-215 L 824,-208.5 L 821,-208.5 L 821,-202.5 L 824,-202.5
 L 824,-199 L 827.5,-199 L 827.5,-196 L 833.5,-196 z
M 1001.5,-199 L 1005,-199 L 1005,-202.5 L 1008,-202.5 L 1008,-208.5 L 1005,-208.5
 L 1005,-215 L 992,-215 L 992,-208.5 L 989,-208.5 L 989,-202.5 L 992,-202.5
 L 992,-199 L 995.5,-199 L 995.5,-196 L 1001.5,-196 z
M 847,-199 L 853,-199 L 853,-196 L 859,-196 L 859,-199 L 865,-199
 L 865,-196 L 871,-196 L 871,-199 L 877,-199 L 877,-196 L 882,-196
 L 882,-202.5 L 879,-202.5 L 879,-208.5 L 882,-208.5 L 882,-215 L 877,-215
 L 877,-212 L 871,-212 L 871,-215 L 865,-215 L 865,-212 L 859,-212
 L 859,-215 L 853,-215 L 853,-212 L 847,-212 L 847,-215 L 842,-215
 L 842,-208.5 L 845,-208.5 L 845,-202.5 L 842,-202.5 L 842,-196 L 847,-196
 z
M 308.5,-199 L 312,-199 L 312,-202.5 L 315,-202.5 L 315,-208.5 L 312,-208.5
 L 312,-215 L 299,-215 L 299,-208.5 L 296,-208.5 L 296,-202.5 L 299,-202.5
 L 299,-199 L 302.5,-199 L 302.5,-196 L 308.5,-196 z
M 6.99998,-199 L 13,-199 L 13,-196 L 19,-196 L 19,-199 L 25,-199
 L 25,-196 L 31,-196 L 31,-199 L 37,-199 L 37,-196 L 42,-196
 L 42,-202.5 L 39,-202.5 L 39,-208.5 L 42,-208.5 L 42,-215 L 37,-215
 L 37,-212 L 31,-212 L 31,-215 L 25,-215 L 25,-212 L 19,-212
 L 19,-215 L 13,-215 L 13,-212 L 6.99998,-212 L 6.99998,-215 L 2,-215
 L 2,-208.5 L 5,-208.5 L 5,-202.5 L 2,-202.5 L 2,-196 L 6.99998,-196
 z
M 980.5,-199 L 984,-199 L 984,-202.5 L 987,-202.5 L 987,-208.5 L 984,-208.5
 L 984,-215 L 971,-215 L 971,-208.5 L 968,-208.5 L 968,-202.5 L 971,-202.5
 L 971,-199 L 974.5,-199 L 974.5,-196 L 980.5,-196 z
M 727,-199 L 733,-199 L 733,-196 L 739,-196 L 739,-199 L 745,-199
 L 745,-196 L 751,-196 L 751,-199 L 756,-199 L 756,-202.5 L 753,-202.5
 L 753,-208.5 L 756,-208.5 L 756,-215 L 716,-215 L 716,-208.5 L 719,-208.5
 L 719,-202.5 L 716,-202.5 L 716,-199 L 721,-199 L 721,-196 L 727,-196
 z
M 223,-199 L 229,-199 L 229,-196 L 235,-196 L 235,-199 L 241,-199
 L 241,-196 L 247,-196 L 247,-199 L 252,-199 L 252,-202.5 L 249,-202.5
 L 249,-208.5 L 252,-208.5 L 252,-215 L 212,-215 L 212,-208.5 L 215,-208.5
 L 215,-202.5 L 212,-202.5 L 212,-199 L 217,-199 L 217,-196 L 223,-196
 z
M 433,-199 L 439,-199 L 439,-196 L 445,-196 L 445,-199 L 451,-199
 L 451,-196 L 457,-196 L 457,-199 L 462,-199 L 462,-202.5 L 459,-202.5
 L 459,-208.5 L 462,-208.5 L 462,-215 L 422,-215 L 422,-208.5 L 425,-208.5
 L 425,-202.5 L 422,-202.5 L 422,-199 L 427,-199 L 427,-196 L 433,-196
 z
M 769,-199 L 775,-199 L 775,-196 L 781,-196 L 781,-199 L 787,-199
 L 787,-196 L 793,-196 L 793,-199 L 798,-199 L 798,-202.5 L 795,-202.5
 L 795,-208.5 L 798,-208.5 L 798,-215 L 758,-215 L 758,-208.5 L 761,-208.5
 L 761,-202.5 L 758,-202.5 L 758,-199 L 763,-199 L 763,-196 L 769,-196
 z
M 601,-199 L 607,-199 L 607,-196 L 613,-196 L 613,-199 L 619,-199
 L 619,-196 L 625,-196 L 625,-199 L 630,-199 L 630,-202.5 L 627,-202.5
 L 627,-208.5 L 630,-208.5 L 630,-215 L 590,-215 L 590,-208.5 L 593,-208.5
 L 593,-202.5 L 590,-202.5 L 590,-199 L 595,-199 L 595,-196 L 601,-196
 z
M 97,-199 L 103,-199 L 103,-196 L 109,-196 L 109,-199 L 115,-199
 L 115,-196 L 121,-196 L 121,-199 L 126,-199 L 126,-202.5 L 123,-202.5
 L 123,-208.5 L 126,-208.5 L 126,-215 L 86,-215 L 86,-208.5 L 89,-208.5
 L 89,-202.5 L 86,-202.5 L 86,-199 L 91,-199 L 91,-196 L 97,-196
 z
M 329.5,-199 L 333,-199 L 333,-202.5 L 336,-202.5 L 336,-208.5 L 333,-208.5
 L 333,-215 L 320,-215 L 320,-208.5 L 317,-208.5 L 317,-202.5 L 320,-202.5
 L 320,-199 L 323.5,-199 L 323.5,-196 L 329.5,-196 z
M 559,-178 L 565,-178 L 565,-175 L 571,-175 L 571,-178 L 577,-178
 L 577,-175 L 583,-175 L 583,-178 L 588,-178 L 588,-181.5 L 585,-181.5
 L 585,-187.5 L 588,-187.5 L 588,-194 L 548,-194 L 548,-187.5 L 551,-187.5
 L 551,-181.5 L 548,-181.5 L 548,-178 L 553,-178 L 553,-175 L 559,-175
 z
M 476.5,-178 L 480,-178 L 480,-181.5 L 483,-181.5 L 483,-187.5 L 480,-187.5
 L 480,-194 L 467,-194 L 467,-187.5 L 464,-187.5 L 464,-181.5 L 467,-181.5
 L 467,-178 L 470.5,-178 L 470.5,-175 L 476.5,-175 z
M 497.5,-178 L 501,-178 L 501,-181.5 L 504,-181.5 L 504,-187.5 L 501,-187.5
 L 501,-194 L 488,-194 L 488,-187.5 L 485,-187.5 L 485,-181.5 L 488,-181.5
 L 488,-178 L 491.5,-178 L 491.5,-175 L 497.5,-175 z
M 223,-178 L 229,-178 L 229,-175 L 235,-175 L 235,-178 L 241,-178
 L 241,-175 L 247,-175 L 247,-178 L 252,-178 L 252,-181.5 L 249,-181.5
 L 249,-187.5 L 252,-187.5 L 252,-194 L 212,-194 L 212,-187.5 L 215,-187.5
 L 215,-181.5 L 212,-181.5 L 212,-178 L 217,-178 L 217,-175 L 223,-175
 z
M 175,-178 L 181,-178 L 181,-175 L 187,-175 L 187,-178 L 193,-178
 L 193,-175 L 199,-175 L 199,-178 L 205,-178 L 205,-175 L 210,-175
 L 210,-181.5 L 207,-181.5 L 207,-187.5 L 210,-187.5 L 210,-194 L 205,-194
 L 205,-191 L 199,-191 L 199,-194 L 193,-194 L 193,-191 L 187,-191
 L 187,-194 L 181,-194 L 181,-191 L 175,-191 L 175,-194 L 170,-194
 L 170,-187.5 L 173,-187.5 L 173,-181.5 L 170,-181.5 L 170,-175 L 175,-175
 z
M 343,-178 L 349,-178 L 349,-175 L 355,-175 L 355,-178 L 361,-178
 L 361,-175 L 367,-175 L 367,-178 L 373,-178 L 373,-175 L 378,-175
 L 378,-181.5 L 375,-181.5 L 375,-187.5 L 378,-187.5 L 378,-194 L 373,-194
 L 373,-191 L 367,-191 L 367,-194 L 361,-194 L 361,-191 L 355,-191
 L 355,-194 L 349,-194 L 349,-191 L 343,-191 L 343,-194 L 338,-194
 L 338,-187.5 L 341,-187.5 L 341,-181.5 L 338,-181.5 L 338,-175 L 343,-175
 z
M 511,-178 L 517,-178 L 517,-175 L 523,-175 L 523,-178 L 529,-178
 L 529,-175 L 535,-175 L 535,-178 L 541,-178 L 541,-175 L 546,-175
 L 546,-181.5 L 543,-181.5 L 543,-187.5 L 546,-187.5 L 546,-194 L 541,-194
 L 541,-191 L 535,-191 L 535,-194 L 529,-194 L 529,-191 L 523,-191
 L 523,-194 L 517,-194 L 517,-191 L 511,-191 L 511,-194 L 506,-194
 L 506,-187.5 L 509,-187.5 L 509,-181.5 L 506,-181.5 L 506,-175 L 511,-175
 z
M 665.5,-178 L 669,-178 L 669,-181.5 L 672,-181.5 L 672,-187.5 L 669,-187.5
 L 669,-194 L 656,-194 L 656,-187.5 L 653,-187.5 L 653,-181.5 L 656,-181.5
 L 656,-178 L 659.5,-178 L 659.5,-175 L 665.5,-175 z
M 644.5,-178 L 648,-178 L 648,-181.5 L 651,-181.5 L 651,-187.5 L 648,-187.5
 L 648,-194 L 635,-194 L 635,-187.5 L 632,-187.5 L 632,-181.5 L 635,-181.5
 L 635,-178 L 638.5,-178 L 638.5,-175 L 644.5,-175 z
M 601,-178 L 607,-178 L 607,-175 L 613,-175 L 613,-178 L 619,-178
 L 619,-175 L 625,-175 L 625,-178 L 630,-178 L 630,-181.5 L 627,-181.5
 L 627,-187.5 L 630,-187.5 L 630,-194 L 590,-194 L 590,-187.5 L 593,-187.5
 L 593,-181.5 L 590,-181.5 L 590,-178 L 595,-178 L 595,-175 L 601,-175
 z
M 308.5,-178 L 312,-178 L 312,-181.5 L 315,-181.5 L 315,-187.5 L 312,-187.5
 L 312,-194 L 299,-194 L 299,-187.5 L 296,-187.5 L 296,-181.5 L 299,-181.5
 L 299,-178 L 302.5,-178 L 302.5,-175 L 308.5,-175 z
M 812.5,-178 L 816,-178 L 816,-181.5 L 819,-181.5 L 819,-187.5 L 816,-187.5
 L 816,-194 L 803,-194 L 803,-187.5 L 800,-187.5 L 800,-181.5 L 803,-181.5
 L 803,-178 L 806.5,-178 L 806.5,-175 L 812.5,-175 z
M 833.5,-178 L 837,-178 L 837,-181.5 L 840,-181.5 L 840,-187.5 L 837,-187.5
 L 837,-194 L 824,-194 L 824,-187.5 L 821,-187.5 L 821,-181.5 L 824,-181.5
 L 824,-178 L 827.5,-178 L 827.5,-175 L 833.5,-175 z
M 329.5,-178 L 333,-178 L 333,-181.5 L 336,-181.5 L 336,-187.5 L 333,-187.5
 L 333,-194 L 320,-194 L 320,-187.5 L 317,-187.5 L 317,-181.5 L 320,-181.5
 L 320,-178 L 323.5,-178 L 323.5,-175 L 329.5,-175 z
M 769,-178 L 775,-178 L 775,-175 L 781,-175 L 781,-178 L 787,-178
 L 787,-175 L 793,-175 L 793,-178 L 798,-178 L 798,-181.5 L 795,-181.5
 L 795,-187.5 L 798,-187.5 L 798,-194 L 758,-194 L 758,-187.5 L 761,-187.5
 L 761,-181.5 L 758,-181.5 L 758,-178 L 763,-178 L 763,-175 L 769,-175
 z
M 6.99998,-178 L 13,-178 L 13,-175 L 19,-175 L 19,-178 L 25,-178
 L 25,-175 L 31,-175 L 31,-178 L 37,-178 L 37,-175 L 42,-175
 L 42,-181.5 L 39,-181.5 L 39,-187.5 L 42,-187.5 L 42,-194 L 37,-194
 L 37,-191 L 31,-191 L 31,-194 L 25,-194 L 25,-191 L 19,-191
 L 19,-194 L 13,-194 L 13,-191 L 6.99998,-191 L 6.99998,-194 L 2,-194
 L 2,-187.5 L 5,-187.5 L 5,-181.5 L 2,-181.5 L 2,-175 L 6.99998,-175
 z
M 265,-178 L 271,-178 L 271,-175 L 277,-175 L 277,-178 L 283,-178
 L 283,-175 L 289,-175 L 289,-178 L 294,-178 L 294,-181.5 L 291,-181.5
 L 291,-187.5 L 294,-187.5 L 294,-194 L 254,-194 L 254,-187.5 L 257,-187.5
 L 257,-181.5 L 254,-181.5 L 254,-178 L 259,-178 L 259,-175 L 265,-175
 z
M 679,-178 L 685,-178 L 685,-175 L 691,-175 L 691,-178 L 697,-178
 L 697,-175 L 703,-175 L 703,-178 L 709,-178 L 709,-175 L 714,-175
 L 714,-181.5 L 711,-181.5 L 711,-187.5 L 714,-187.5 L 714,-194 L 709,-194
 L 709,-191 L 703,-191 L 703,-194 L 697,-194 L 697,-191 L 691,-191
 L 691,-194 L 685,-194 L 685,-191 L 679,-191 L 679,-194 L 674,-194
 L 674,-187.5 L 677,-187.5 L 677,-181.5 L 674,-181.5 L 674,-175 L 679,-175
 z
M 727,-178 L 733,-178 L 733,-175 L 739,-175 L 739,-178 L 745,-178
 L 745,-175 L 751,-175 L 751,-178 L 756,-178 L 756,-181.5 L 753,-181.5
 L 753,-187.5 L 756,-187.5 L 756,-194 L 716,-194 L 716,-187.5 L 719,-187.5
 L 719,-181.5 L 716,-181.5 L 716,-178 L 721,-178 L 721,-175 L 727,-175
 z
M 895,-178 L 901,-178 L 901,-175 L 907,-175 L 907,-178 L 913,-178
 L 913,-175 L 919,-175 L 919,-178 L 924,-178 L 924,-181.5 L 921,-181.5
 L 921,-187.5 L 924,-187.5 L 924,-194 L 884,-194 L 884,-187.5 L 887,-187.5
 L 887,-181.5 L 884,-181.5 L 884,-178 L 889,-178 L 889,-175 L 895,-175
 z
M 55,-178 L 61,-178 L 61,-175 L 67,-175 L 67,-178 L 73,-178
 L 73,-175 L 79,-175 L 79,-178 L 84,-178 L 84,-181.5 L 81,-181.5
 L 81,-187.5 L 84,-187.5 L 84,-194 L 44,-194 L 44,-187.5 L 47,-187.5
 L 47,-181.5 L 44,-181.5 L 44,-178 L 49,-178 L 49,-175 L 55,-175
 z
M 433,-178 L 439,-178 L 439,-175 L 445,-175 L 445,-178 L 451,-178
 L 451,-175 L 457,-175 L 457,-178 L 462,-178 L 462,-181.5 L 459,-181.5
 L 459,-187.5 L 462,-187.5 L 462,-194 L 422,-194 L 422,-187.5 L 425,-187.5
 L 425,-181.5 L 422,-181.5 L 422,-178 L 427,-178 L 427,-175 L 433,-175
 z
M 97,-178 L 103,-178 L 103,-175 L 109,-175 L 109,-178 L 115,-178
 L 115,-175 L 121,-175 L 121,-178 L 126,-178 L 126,-181.5 L 123,-181.5
 L 123,-187.5 L 126,-187.5 L 126,-194 L 86,-194 L 86,-187.5 L 89,-187.5
 L 89,-181.5 L 86,-181.5 L 86,-178 L 91,-178 L 91,-175 L 97,-175
 z
M 140.5,-178 L 144,-178 L 144,-181.5 L 147,-181.5 L 147,-187.5 L 144,-187.5
 L 144,-194 L 131,-194 L 131,-187.5 L 128,-187.5 L 128,-181.5 L 131,-181.5
 L 131,-178 L 134.5,-178 L 134.5,-175 L 140.5,-175 z
M 161.5,-178 L 165,-178 L 165,-181.5 L 168,-181.5 L 168,-187.5 L 165,-187.5
 L 165,-194 L 152,-194 L 152,-187.5 L 149,-187.5 L 149,-181.5 L 152,-181.5
 L 152,-178 L 155.5,-178 L 155.5,-175 L 161.5,-175 z
M 1001.5,-178 L 1005,-178 L 1005,-181.5 L 1008,-181.5 L 1008,-187.5 L 1005,-187.5
 L 1005,-194 L 992,-194 L 992,-187.5 L 989,-187.5 L 989,-181.5 L 992,-181.5
 L 992,-178 L 995.5,-178 L 995.5,-175 L 1001.5,-175 z
M 980.5,-178 L 984,-178 L 984,-181.5 L 987,-181.5 L 987,-187.5 L 984,-187.5
 L 984,-194 L 971,-194 L 971,-187.5 L 968,-187.5 L 968,-181.5 L 971,-181.5
 L 971,-178 L 974.5,-178 L 974.5,-175 L 980.5,-175 z
M 937,-178 L 943,-178 L 943,-175 L 949,-175 L 949,-178 L 955,-178
 L 955,-175 L 961,-175 L 961,-178 L 966,-178 L 966,-181.5 L 963,-181.5
 L 963,-187.5 L 966,-187.5 L 966,-194 L 926,-194 L 926,-187.5 L 929,-187.5
 L 929,-181.5 L 926,-181.5 L 926,-178 L 931,-178 L 931,-175 L 937,-175
 z
M 847,-178 L 853,-178 L 853,-175 L 859,-175 L 859,-178 L 865,-178
 L 865,-175 L 871,-175 L 871,-178 L 877,-178 L 877,-175 L 882,-175
 L 882,-181.5 L 879,-181.5 L 879,-187.5 L 882,-187.5 L 882,-194 L 877,-194
 L 877,-191 L 871,-191 L 871,-194 L 865,-194 L 865,-191 L 859,-191
 L 859,-194 L 853,-194 L 853,-191 L 847,-191 L 847,-194 L 842,-194
 L 842,-187.5 L 845,-187.5 L 845,-181.5 L 842,-181.5 L 842,-175 L 847,-175
 z
M 391,-178 L 397,-178 L 397,-175 L 403,-175 L 403,-178 L 409,-178
 L 409,-175 L 415,-175 L 415,-178 L 420,-178 L 420,-181.5 L 417,-181.5
 L 417,-187.5 L 420,-187.5 L 420,-194 L 380,-194 L 380,-187.5 L 383,-187.5
 L 383,-181.5 L 380,-181.5 L 380,-178 L 385,-178 L 385,-175 L 391,-175
 z
M 157.5,-129 L 163.5,-129 L 163.5,-126 L 169.5,-126 L 169.5,-129 L 175.5,-129
 L 175.5,-126 L 181.5,-126 L 181.5,-129 L 187.5,-129 L 187.5,-126 L 193.5,-126
 L 193.5,-129 L 199.5,-129 L 199.5,-126 L 205.5,-126 L 205.5,-129 L 211.5,-129
 L 211.5,-126 L 217.5,-126 L 217.5,-129 L 223.5,-129 L 223.5,-126 L 229.5,-126
 L 229.5,-129 L 235,-129 L 235,-131 L 238,-131 L 238,-137 L 235,-137
 L 235,-143 L 238,-143 L 238,-149 L 235,-149 L 235,-155 L 238,-155
 L 238,-161 L 235,-161 L 235,-166 L 146,-166 L 146,-161 L 143,-161
 L 143,-155 L 146,-155 L 146,-149 L 143,-149 L 143,-143 L 146,-143
 L 146,-137 L 143,-137 L 143,-131 L 146,-131 L 146,-129 L 151.5,-129
 L 151.5,-126 L 157.5,-126 z
M 212,-155 L 212,-161 L 215,-161 L 215,-155 z
M 189,-155 L 189,-161 L 192,-161 L 192,-155 z
M 166,-155 L 166,-161 L 169,-161 L 169,-155 z
M 212,-143 L 212,-149 L 215,-149 L 215,-143 z
M 166,-143 L 166,-149 L 169,-149 L 169,-143 z
M 189,-143 L 189,-149 L 192,-149 L 192,-143 z
M 166,-131 L 166,-137 L 169,-137 L 169,-131 z
M 189,-131 L 189,-137 L 192,-137 L 192,-131 z
M 212,-131 L 212,-137 L 215,-137 L 215,-131 z
M 509.5,-87 L 515.5,-87 L 515.5,-84 L 519,-84 L 519,-104 L 522,-104
 L 522,-87 L 527.5,-87 L 527.5,-84 L 533.5,-84 L 533.5,-87 L 539.5,-87
 L 539.5,-84 L 542,-84 L 542,-104 L 545,-104 L 545,-84 L 545.5,-84
 L 545.5,-87 L 551.5,-87 L 551.5,-84 L 557.5,-84 L 557.5,-87 L 563.5,-87
 L 563.5,-84 L 565,-84 L 565,-104 L 568,-104 L 568,-84 L 569.5,-84
 L 569.5,-87 L 575.5,-87 L 575.5,-84 L 581.5,-84 L 581.5,-87 L 587.5,-87
 L 587.5,-84 L 588,-84 L 588,-104 L 591,-104 L 591,-84 L 593.5,-84
 L 593.5,-87 L 599.5,-87 L 599.5,-84 L 605.5,-84 L 605.5,-87 L 611,-87
 L 611,-104 L 614,-104 L 614,-84 L 617.5,-84 L 617.5,-87 L 623.5,-87
 L 623.5,-84 L 629.5,-84 L 629.5,-87 L 634,-87 L 634,-89 L 637,-89
 L 637,-95 L 634,-95 L 634,-101 L 637,-101 L 637,-107 L 634,-107
 L 634,-113 L 637,-113 L 637,-119 L 634,-119 L 634,-124 L 499,-124
 L 499,-119 L 496,-119 L 496,-113 L 499,-113 L 499,-107 L 496,-107
 L 496,-101 L 499,-101 L 499,-95 L 496,-95 L 496,-89 L 499,-89
 L 499,-87 L 503.5,-87 L 503.5,-84 L 509.5,-84 z
M 157.5,-87 L 163.5,-87 L 163.5,-84 L 169.5,-84 L 169.5,-87 L 175.5,-87
 L 175.5,-84 L 181.5,-84 L 181.5,-87 L 187.5,-87 L 187.5,-84 L 193.5,-84
 L 193.5,-87 L 199.5,-87 L 199.5,-84 L 205.5,-84 L 205.5,-87 L 211.5,-87
 L 211.5,-84 L 217.5,-84 L 217.5,-87 L 223.5,-87 L 223.5,-84 L 229.5,-84
 L 229.5,-87 L 235,-87 L 235,-89 L 238,-89 L 238,-95 L 235,-95
 L 235,-101 L 238,-101 L 238,-107 L 235,-107 L 235,-113 L 238,-113
 L 238,-119 L 235,-119 L 235,-124 L 146,-124 L 146,-119 L 143,-119
 L 143,-113 L 146,-113 L 146,-107 L 143,-107 L 143,-101 L 146,-101
 L 146,-95 L 143,-95 L 143,-89 L 146,-89 L 146,-87 L 151.5,-87
 L 151.5,-84 L 157.5,-84 z
M 212,-113 L 212,-119 L 215,-119 L 215,-113 z
M 166,-113 L 166,-119 L 169,-119 L 169,-113 z
M 189,-113 L 189,-119 L 192,-119 L 192,-113 z
M 212,-101 L 212,-107 L 215,-107 L 215,-101 z
M 189,-101 L 189,-107 L 192,-107 L 192,-101 z
M 166,-101 L 166,-107 L 169,-107 L 169,-101 z
M 212,-89 L 212,-95 L 215,-95 L 215,-89 z
M 189,-89 L 189,-95 L 192,-95 L 192,-89 z
M 166,-89 L 166,-95 L 169,-95 L 169,-89 z
M 7.5,-3 L 13.5,-3 L 13.5,-0 L 19.5,-0 L 19.5,-3 L 25.5,-3
 L 25.5,-0 L 31.5,-0 L 31.5,-3 L 37.5,-3 L 37.5,-0 L 43.5,-0
 L 43.5,-3 L 49.5,-3 L 49.5,-0 L 55.5,-0 L 55.5,-3 L 61.5,-3
 L 61.5,-0 L 67.5,-0 L 67.5,-3 L 73.5,-3 L 73.5,-0 L 79.5,-0
 L 79.5,-3 L 85.5,-3 L 85.5,-0 L 91.5,-0 L 91.5,-3 L 97.5,-3
 L 97.5,-0 L 103.5,-0 L 103.5,-3 L 109.5,-3 L 109.5,-0 L 115.5,-0
 L 115.5,-3 L 121.5,-3 L 121.5,-0 L 127.5,-0 L 127.5,-3 L 133.5,-3
 L 133.5,-0 L 141,-0 L 141,-8.49997 L 138,-8.49997 L 138,-14.5 L 141,-14.5
 L 141,-20.5 L 138,-20.5 L 138,-26.5 L 141,-26.5 L 141,-32.5 L 138,-32.5
 L 138,-38.5 L 141,-38.5 L 141,-44.5 L 138,-44.5 L 138,-50.5 L 141,-50.5
 L 141,-56.5 L 138,-56.5 L 138,-62.5 L 141,-62.5 L 141,-68.5 L 138,-68.5
 L 138,-74.5 L 141,-74.5 L 141,-80.5 L 138,-80.5 L 138,-86.5 L 141,-86.5
 L 141,-95 L 133.5,-95 L 133.5,-92 L 127.5,-92 L 127.5,-95 L 121.5,-95
 L 121.5,-92 L 115.5,-92 L 115.5,-95 L 109.5,-95 L 109.5,-92 L 103.5,-92
 L 103.5,-95 L 97.5,-95 L 97.5,-92 L 91.5,-92 L 91.5,-95 L 85.5,-95
 L 85.5,-92 L 79.5,-92 L 79.5,-95 L 73.5,-95 L 73.5,-92 L 67.5,-92
 L 67.5,-95 L 61.5,-95 L 61.5,-92 L 55.5,-92 L 55.5,-95 L 49.5,-95
 L 49.5,-92 L 43.5,-92 L 43.5,-95 L 37.5,-95 L 37.5,-92 L 31.5,-92
 L 31.5,-95 L 25.5,-95 L 25.5,-92 L 19.5,-92 L 19.5,-95 L 13.5,-95
 L 13.5,-92 L 7.5,-92 L 7.5,-95 L 0,-95 L 0,-86.5 L 3,-86.5
 L 3,-80.5 L 0,-80.5 L 0,-74.5 L 3,-74.5 L 3,-68.5 L 0,-68.5
 L 0,-62.5 L 3,-62.5 L 3,-56.5 L 0,-56.5 L 0,-50.5 L 3,-50.5
 L 3,-44.5 L 0,-44.5 L 0,-38.5 L 3,-38.5 L 3,-32.5 L 0,-32.5
 L 0,-26.5 L 3,-26.5 L 3,-20.5 L 0,-20.5 L 0,-14.5 L 3,-14.5
 L 3,-8.49998 L 0,-8.49998 L 0,-0 L 7.5,-0 z
M 92,-80.5 L 92,-86.5 L 95,-86.5 L 95,-80.5 z
M 69,-80.5 L 69,-86.5 L 72,-86.5 L 72,-80.5 z
M 46,-80.5 L 46,-86.5 L 49,-86.5 L 49,-80.5 z
M 115,-80.5 L 115,-86.5 L 118,-86.5 L 118,-80.5 z
M 23,-80.5 L 23,-86.5 L 26,-86.5 L 26,-80.5 z
M 115,-68.5 L 115,-74.5 L 118,-74.5 L 118,-72 L 121.5,-72 L 121.5,-69
 L 118,-69 L 118,-68.5 z
M 92,-68.5 L 92,-69 L 91.5,-69 L 91.5,-72 L 92,-72 L 92,-74.5
 L 95,-74.5 L 95,-72 L 97.5,-72 L 97.5,-69 L 95,-69 L 95,-68.5
 z
M 46,-68.5 L 46,-69 L 43.5,-69 L 43.5,-72 L 46,-72 L 46,-74.5
 L 49,-74.5 L 49,-72 L 49.5,-72 L 49.5,-69 L 49,-69 L 49,-68.5
 z
M 69,-68.5 L 69,-69 L 67.5,-69 L 67.5,-72 L 69,-72 L 69,-74.5
 L 72,-74.5 L 72,-72 L 73.5,-72 L 73.5,-69 L 72,-69 L 72,-68.5
 z
M 23,-68.5 L 23,-69 L 19.5,-69 L 19.5,-72 L 23,-72 L 23,-74.5
 L 26,-74.5 L 26,-68.5 z
M 31.5,-69 L 31.5,-72 L 37.5,-72 L 37.5,-69 z
M 55.5,-69 L 55.5,-72 L 61.5,-72 L 61.5,-69 z
M 103.5,-69 L 103.5,-72 L 109.5,-72 L 109.5,-69 z
M 79.5,-69 L 79.5,-72 L 85.5,-72 L 85.5,-69 z
M 7.5,-69 L 7.5,-72 L 13.5,-72 L 13.5,-69 z
M 127.5,-69 L 127.5,-72 L 133.5,-72 L 133.5,-69 z
M 69,-56.5 L 69,-62.5 L 72,-62.5 L 72,-56.5 z
M 46,-56.5 L 46,-62.5 L 49,-62.5 L 49,-56.5 z
M 92,-56.5 L 92,-62.5 L 95,-62.5 L 95,-56.5 z
M 115,-56.5 L 115,-62.5 L 118,-62.5 L 118,-56.5 z
M 23,-56.5 L 23,-62.5 L 26,-62.5 L 26,-56.5 z
M 69,-44.5 L 69,-46 L 67.5,-46 L 67.5,-49 L 69,-49 L 69,-50.5
 L 72,-50.5 L 72,-49 L 73.5,-49 L 73.5,-46 L 72,-46 L 72,-44.5
 z
M 23,-44.5 L 23,-46 L 19.5,-46 L 19.5,-49 L 23,-49 L 23,-50.5
 L 26,-50.5 L 26,-44.5 z
M 115,-44.5 L 115,-50.5 L 118,-50.5 L 118,-49 L 121.5,-49 L 121.5,-46
 L 118,-46 L 118,-44.5 z
M 92,-44.5 L 92,-46 L 91.5,-46 L 91.5,-49 L 92,-49 L 92,-50.5
 L 95,-50.5 L 95,-49 L 97.5,-49 L 97.5,-46 L 95,-46 L 95,-44.5
 z
M 46,-44.5 L 46,-46 L 43.5,-46 L 43.5,-49 L 46,-49 L 46,-50.5
 L 49,-50.5 L 49,-49 L 49.5,-49 L 49.5,-46 L 49,-46 L 49,-44.5
 z
M 7.5,-46 L 7.5,-49 L 13.5,-49 L 13.5,-46 z
M 31.5,-46 L 31.5,-49 L 37.5,-49 L 37.5,-46 z
M 55.5,-46 L 55.5,-49 L 61.5,-49 L 61.5,-46 z
M 79.5,-46 L 79.5,-49 L 85.5,-49 L 85.5,-46 z
M 103.5,-46 L 103.5,-49 L 109.5,-49 L 109.5,-46 z
M 127.5,-46 L 127.5,-49 L 133.5,-49 L 133.5,-46 z
M 69,-32.5 L 69,-38.5 L 72,-38.5 L 72,-32.5 z
M 23,-32.5 L 23,-38.5 L 26,-38.5 L 26,-32.5 z
M 115,-32.5 L 115,-38.5 L 118,-38.5 L 118,-32.5 z
M 46,-32.5 L 46,-38.5 L 49,-38.5 L 49,-32.5 z
M 92,-32.5 L 92,-38.5 L 95,-38.5 L 95,-32.5 z
M 115,-20.5 L 115,-26.5 L 118,-26.5 L 118,-26 L 121.5,-26 L 121.5,-23
 L 118,-23 L 118,-20.5 z
M 69,-20.5 L 69,-23 L 67.5,-23 L 67.5,-26 L 69,-26 L 69,-26.5
 L 72,-26.5 L 72,-26 L 73.5,-26 L 73.5,-23 L 72,-23 L 72,-20.5
 z
M 92,-20.5 L 92,-23 L 91.5,-23 L 91.5,-26 L 92,-26 L 92,-26.5
 L 95,-26.5 L 95,-26 L 97.5,-26 L 97.5,-23 L 95,-23 L 95,-20.5
 z
M 46,-20.5 L 46,-23 L 43.5,-23 L 43.5,-26 L 46,-26 L 46,-26.5
 L 49,-26.5 L 49,-26 L 49.5,-26 L 49.5,-23 L 49,-23 L 49,-20.5
 z
M 23,-20.5 L 23,-23 L 19.5,-23 L 19.5,-26 L 23,-26 L 23,-26.5
 L 26,-26.5 L 26,-20.5 z
M 7.5,-23 L 7.5,-26 L 13.5,-26 L 13.5,-23 z
M 127.5,-23 L 127.5,-26 L 133.5,-26 L 133.5,-23 z
M 31.5,-23 L 31.5,-26 L 37.5,-26 L 37.5,-23 z
M 55.5,-23 L 55.5,-26 L 61.5,-26 L 61.5,-23 z
M 79.5,-23 L 79.5,-26 L 85.5,-26 L 85.5,-23 z
M 103.5,-23 L 103.5,-26 L 109.5,-26 L 109.5,-23 z
M 23,-8.49998 L 23,-14.5 L 26,-14.5 L 26,-8.49998 z
M 115,-8.49998 L 115,-14.5 L 118,-14.5 L 118,-8.49998 z
M 69,-8.49998 L 69,-14.5 L 72,-14.5 L 72,-8.49998 z
M 46,-8.49998 L 46,-14.5 L 49,-14.5 L 49,-8.49998 z
M 92,-8.49998 L 92,-14.5 L 95,-14.5 L 95,-8.49998 z
M 465,-3 L 471,-3 L 471,-0 L 477,-0 L 477,-3 L 483,-3
 L 483,-0 L 489,-0 L 489,-3 L 494,-3 L 494,-23 L 474,-23
 L 474,-26 L 494,-26 L 494,-46 L 474,-46 L 474,-49 L 494,-49
 L 494,-69 L 474,-69 L 474,-72 L 494,-72 L 494,-92 L 489,-92
 L 489,-95 L 483,-95 L 483,-92 L 477,-92 L 477,-95 L 471,-95
 L 471,-92 L 465,-92 L 465,-95 L 459,-95 L 459,-92 L 457,-92
 L 457,-86.5 L 454,-86.5 L 454,-80.5 L 457,-80.5 L 457,-74.5 L 454,-74.5
 L 454,-68.5 L 457,-68.5 L 457,-62.5 L 454,-62.5 L 454,-56.5 L 457,-56.5
 L 457,-50.5 L 454,-50.5 L 454,-44.5 L 457,-44.5 L 457,-38.5 L 454,-38.5
 L 454,-32.5 L 457,-32.5 L 457,-26.5 L 454,-26.5 L 454,-20.5 L 457,-20.5
 L 457,-14.5 L 454,-14.5 L 454,-8.5 L 457,-8.5 L 457,-3 L 459,-3
 L 459,-0 L 465,-0 z
M 381,-3 L 387,-3 L 387,-0 L 393,-0 L 393,-3 L 399,-3
 L 399,-0 L 405,-0 L 405,-3 L 410,-3 L 410,-23 L 390,-23
 L 390,-26 L 410,-26 L 410,-46 L 390,-46 L 390,-49 L 410,-49
 L 410,-69 L 390,-69 L 390,-72 L 410,-72 L 410,-92 L 405,-92
 L 405,-95 L 399,-95 L 399,-92 L 393,-92 L 393,-95 L 387,-95
 L 387,-92 L 381,-92 L 381,-95 L 375,-95 L 375,-92 L 373,-92
 L 373,-86.5 L 370,-86.5 L 370,-80.5 L 373,-80.5 L 373,-74.5 L 370,-74.5
 L 370,-68.5 L 373,-68.5 L 373,-62.5 L 370,-62.5 L 370,-56.5 L 373,-56.5
 L 373,-50.5 L 370,-50.5 L 370,-44.5 L 373,-44.5 L 373,-38.5 L 370,-38.5
 L 370,-32.5 L 373,-32.5 L 373,-26.5 L 370,-26.5 L 370,-20.5 L 373,-20.5
 L 373,-14.5 L 370,-14.5 L 370,-8.5 L 373,-8.5 L 373,-3 L 375,-3
 L 375,-0 L 381,-0 z
M 297,-3 L 303,-3 L 303,-0 L 309,-0 L 309,-3 L 315,-3
 L 315,-0 L 321,-0 L 321,-3 L 326,-3 L 326,-23 L 306,-23
 L 306,-26 L 326,-26 L 326,-46 L 306,-46 L 306,-49 L 326,-49
 L 326,-69 L 306,-69 L 306,-72 L 326,-72 L 326,-92 L 321,-92
 L 321,-95 L 315,-95 L 315,-92 L 309,-92 L 309,-95 L 303,-95
 L 303,-92 L 297,-92 L 297,-95 L 291,-95 L 291,-92 L 289,-92
 L 289,-86.5 L 286,-86.5 L 286,-80.5 L 289,-80.5 L 289,-74.5 L 286,-74.5
 L 286,-68.5 L 289,-68.5 L 289,-62.5 L 286,-62.5 L 286,-56.5 L 289,-56.5
 L 289,-50.5 L 286,-50.5 L 286,-44.5 L 289,-44.5 L 289,-38.5 L 286,-38.5
 L 286,-32.5 L 289,-32.5 L 289,-26.5 L 286,-26.5 L 286,-20.5 L 289,-20.5
 L 289,-14.5 L 286,-14.5 L 286,-8.5 L 289,-8.5 L 289,-3 L 291,-3
 L 291,-0 L 297,-0 z
M 339,-3 L 345,-3 L 345,-0 L 351,-0 L 351,-3 L 357,-3
 L 357,-0 L 363,-0 L 363,-3 L 368,-3 L 368,-23 L 348,-23
 L 348,-26 L 368,-26 L 368,-46 L 348,-46 L 348,-49 L 368,-49
 L 368,-69 L 348,-69 L 348,-72 L 368,-72 L 368,-92 L 363,-92
 L 363,-95 L 357,-95 L 357,-92 L 351,-92 L 351,-95 L 345,-95
 L 345,-92 L 339,-92 L 339,-95 L 333,-95 L 333,-92 L 331,-92
 L 331,-86.5 L 328,-86.5 L 328,-80.5 L 331,-80.5 L 331,-74.5 L 328,-74.5
 L 328,-68.5 L 331,-68.5 L 331,-62.5 L 328,-62.5 L 328,-56.5 L 331,-56.5
 L 331,-50.5 L 328,-50.5 L 328,-44.5 L 331,-44.5 L 331,-38.5 L 328,-38.5
 L 328,-32.5 L 331,-32.5 L 331,-26.5 L 328,-26.5 L 328,-20.5 L 331,-20.5
 L 331,-14.5 L 328,-14.5 L 328,-8.5 L 331,-8.5 L 331,-3 L 333,-3
 L 333,-0 L 339,-0 z
M 423,-3 L 429,-3 L 429,-0 L 435,-0 L 435,-3 L 441,-3
 L 441,-0 L 447,-0 L 447,-3 L 452,-3 L 452,-23 L 432,-23
 L 432,-26 L 452,-26 L 452,-46 L 432,-46 L 432,-49 L 452,-49
 L 452,-69 L 432,-69 L 432,-72 L 452,-72 L 452,-92 L 447,-92
 L 447,-95 L 441,-95 L 441,-92 L 435,-92 L 435,-95 L 429,-95
 L 429,-92 L 423,-92 L 423,-95 L 417,-95 L 417,-92 L 415,-92
 L 415,-86.5 L 412,-86.5 L 412,-80.5 L 415,-80.5 L 415,-74.5 L 412,-74.5
 L 412,-68.5 L 415,-68.5 L 415,-62.5 L 412,-62.5 L 412,-56.5 L 415,-56.5
 L 415,-50.5 L 412,-50.5 L 412,-44.5 L 415,-44.5 L 415,-38.5 L 412,-38.5
 L 412,-32.5 L 415,-32.5 L 415,-26.5 L 412,-26.5 L 412,-20.5 L 415,-20.5
 L 415,-14.5 L 412,-14.5 L 412,-8.5 L 415,-8.5 L 415,-3 L 417,-3
 L 417,-0 L 423,-0 z
M 509.5,-45 L 515.5,-45 L 515.5,-42 L 519,-42 L 519,-62 L 522,-62
 L 522,-45 L 527.5,-45 L 527.5,-42 L 533.5,-42 L 533.5,-45 L 539.5,-45
 L 539.5,-42 L 542,-42 L 542,-62 L 545,-62 L 545,-42 L 545.5,-42
 L 545.5,-45 L 551.5,-45 L 551.5,-42 L 557.5,-42 L 557.5,-45 L 563.5,-45
 L 563.5,-42 L 565,-42 L 565,-62 L 568,-62 L 568,-42 L 569.5,-42
 L 569.5,-45 L 575.5,-45 L 575.5,-42 L 581.5,-42 L 581.5,-45 L 587.5,-45
 L 587.5,-42 L 588,-42 L 588,-62 L 591,-62 L 591,-42 L 593.5,-42
 L 593.5,-45 L 599.5,-45 L 599.5,-42 L 605.5,-42 L 605.5,-45 L 611,-45
 L 611,-62 L 614,-62 L 614,-42 L 617.5,-42 L 617.5,-45 L 623.5,-45
 L 623.5,-42 L 629.5,-42 L 629.5,-45 L 634,-45 L 634,-47 L 637,-47
 L 637,-53 L 634,-53 L 634,-59 L 637,-59 L 637,-65 L 634,-65
 L 634,-71 L 637,-71 L 637,-77 L 634,-77 L 634,-82 L 499,-82
 L 499,-77 L 496,-77 L 496,-71 L 499,-71 L 499,-65 L 496,-65
 L 496,-59 L 499,-59 L 499,-53 L 496,-53 L 496,-47 L 499,-47
 L 499,-45 L 503.5,-45 L 503.5,-42 L 509.5,-42 z
M 156.5,-45 L 162.5,-45 L 162.5,-42 L 168.5,-42 L 168.5,-45 L 174.5,-45
 L 174.5,-42 L 180.5,-42 L 180.5,-45 L 186.5,-45 L 186.5,-42 L 192.5,-42
 L 192.5,-45 L 198.5,-45 L 198.5,-42 L 204.5,-42 L 204.5,-45 L 210.5,-45
 L 210.5,-42 L 216.5,-42 L 216.5,-45 L 222.5,-45 L 222.5,-42 L 228.5,-42
 L 228.5,-45 L 234.5,-45 L 234.5,-42 L 240.5,-42 L 240.5,-45 L 246.5,-45
 L 246.5,-42 L 252.5,-42 L 252.5,-45 L 258.5,-45 L 258.5,-42 L 264.5,-42
 L 264.5,-45 L 270.5,-45 L 270.5,-42 L 276.5,-42 L 276.5,-45 L 284,-45
 L 284,-47 L 281,-47 L 281,-53 L 284,-53 L 284,-59 L 281,-59
 L 281,-65 L 284,-65 L 284,-71 L 281,-71 L 281,-77 L 284,-77
 L 284,-82 L 143,-82 L 143,-77 L 146,-77 L 146,-71 L 143,-71
 L 143,-65 L 146,-65 L 146,-59 L 143,-59 L 143,-53 L 146,-53
 L 146,-47 L 143,-47 L 143,-45 L 150.5,-45 L 150.5,-42 L 156.5,-42
 z
M 166,-71 L 166,-77 L 169,-77 L 169,-71 z
M 189,-71 L 189,-77 L 192,-77 L 192,-71 z
M 212,-71 L 212,-77 L 215,-77 L 215,-71 z
M 235,-71 L 235,-77 L 238,-77 L 238,-71 z
M 258,-71 L 258,-77 L 261,-77 L 261,-71 z
M 258,-59 L 258,-65 L 261,-65 L 261,-59 z
M 189,-59 L 189,-65 L 192,-65 L 192,-59 z
M 166,-59 L 166,-65 L 169,-65 L 169,-59 z
M 212,-59 L 212,-65 L 215,-65 L 215,-59 z
M 235,-59 L 235,-65 L 238,-65 L 238,-59 z
M 212,-47 L 212,-53 L 215,-53 L 215,-47 z
M 235,-47 L 235,-53 L 238,-53 L 238,-47 z
M 189,-47 L 189,-53 L 192,-53 L 192,-47 z
M 166,-47 L 166,-53 L 169,-53 L 169,-47 z
M 258,-47 L 258,-53 L 261,-53 L 261,-47 z
M 509.5,-3 L 515.5,-3 L 515.5,-0 L 519,-0 L 519,-20 L 522,-20
 L 522,-3 L 527.5,-3 L 527.5,-0 L 533.5,-0 L 533.5,-3 L 539.5,-3
 L 539.5,-0 L 542,-0 L 542,-20 L 545,-20 L 545,-0 L 545.5,-0
 L 545.5,-3 L 551.5,-3 L 551.5,-0 L 557.5,-0 L 557.5,-3 L 563.5,-3
 L 563.5,-0 L 565,-0 L 565,-20 L 568,-20 L 568,-0 L 569.5,-0
 L 569.5,-3 L 575.5,-3 L 575.5,-0 L 581.5,-0 L 581.5,-3 L 587.5,-3
 L 587.5,-0 L 588,-0 L 588,-20 L 591,-20 L 591,-0 L 593.5,-0
 L 593.5,-3 L 599.5,-3 L 599.5,-0 L 605.5,-0 L 605.5,-3 L 611,-3
 L 611,-20 L 614,-20 L 614,-0 L 617.5,-0 L 617.5,-3 L 623.5,-3
 L 623.5,-0 L 629.5,-0 L 629.5,-3 L 634,-3 L 634,-4.99997 L 637,-4.99997
 L 637,-11 L 634,-11 L 634,-17 L 637,-17 L 637,-23 L 634,-23
 L 634,-29 L 637,-29 L 637,-35 L 634,-35 L 634,-40 L 499,-40
 L 499,-35 L 496,-35 L 496,-29 L 499,-29 L 499,-23 L 496,-23
 L 496,-17 L 499,-17 L 499,-11 L 496,-11 L 496,-4.99998 L 499,-4.99998
 L 499,-3 L 503.5,-3 L 503.5,-0 L 509.5,-0 z
M 156.5,-3 L 162.5,-3 L 162.5,-0 L 168.5,-0 L 168.5,-3 L 174.5,-3
 L 174.5,-0 L 180.5,-0 L 180.5,-3 L 186.5,-3 L 186.5,-0 L 192.5,-0
 L 192.5,-3 L 198.5,-3 L 198.5,-0 L 204.5,-0 L 204.5,-3 L 210.5,-3
 L 210.5,-0 L 216.5,-0 L 216.5,-3 L 222.5,-3 L 222.5,-0 L 228.5,-0
 L 228.5,-3 L 234.5,-3 L 234.5,-0 L 240.5,-0 L 240.5,-3 L 246.5,-3
 L 246.5,-0 L 252.5,-0 L 252.5,-3 L 258.5,-3 L 258.5,-0 L 264.5,-0
 L 264.5,-3 L 270.5,-3 L 270.5,-0 L 276.5,-0 L 276.5,-3 L 284,-3
 L 284,-4.99997 L 281,-4.99997 L 281,-11 L 284,-11 L 284,-17 L 281,-17
 L 281,-23 L 284,-23 L 284,-29 L 281,-29 L 281,-35 L 284,-35
 L 284,-40 L 143,-40 L 143,-35 L 146,-35 L 146,-29 L 143,-29
 L 143,-23 L 146,-23 L 146,-17 L 143,-17 L 143,-11 L 146,-11
 L 146,-4.99998 L 143,-4.99998 L 143,-3 L 150.5,-3 L 150.5,-0 L 156.5,-0
 z
M 166,-29 L 166,-35 L 169,-35 L 169,-29 z
M 189,-29 L 189,-35 L 192,-35 L 192,-29 z
M 212,-29 L 212,-35 L 215,-35 L 215,-29 z
M 235,-29 L 235,-35 L 238,-35 L 238,-29 z
M 258,-29 L 258,-35 L 261,-35 L 261,-29 z
M 258,-17 L 258,-23 L 261,-23 L 261,-17 z
M 212,-17 L 212,-23 L 215,-23 L 215,-17 z
M 235,-17 L 235,-23 L 238,-23 L 238,-17 z
M 189,-17 L 189,-23 L 192,-23 L 192,-17 z
M 166,-17 L 166,-23 L 169,-23 L 169,-17 z
M 235,-4.99998 L 235,-11 L 238,-11 L 238,-4.99998 z
M 166,-4.99998 L 166,-11 L 169,-11 L 169,-4.99998 z
M 189,-4.99998 L 189,-11 L 192,-11 L 192,-4.99998 z
M 212,-4.99998 L 212,-11 L 215,-11 L 215,-4.99998 z
M 258,-4.99998 L 258,-11 L 261,-11 L 261,-4.99998 z
" stroke="black" fill="lightgray" stroke-width="0.5"/></svg>
