<?xml version="1.0" standalone="no"?>
<!DOCTYPE svg PUBLIC "-//W3C//DTD SVG 1.1//EN" "http://www.w3.org/Graphics/SVG/1.1/DTD/svg11.dtd">
<svg width="1220" height="610" viewBox="0 30 1158 30" xmlns="http://www.w3.org/2000/svg" version="1.1">
<title>OpenSCAD Model</title>
<path d="
M 1157.03,-30 L 0,-30 L 0,-16 L 1157.03,-16 z
M 1157.03,-3.60001 L 1156.61,-3.60001 L 1156.61,-4.99998 L 1157.03,-4.99998 L 1157.03,-6.29999 L 1156.61,-6.29999
 L 1156.61,-7.69998 L 1157.03,-7.69998 L 1157.03,-8.99998 L 1156.61,-8.99998 L 1156.61,-10.4 L 1157.03,-10.4
 L 1157.03,-14 L 0,-14 L 0,-10.4 L 0.417175,-10.4 L 0.417175,-8.99998 L 0,-8.99998
 L 0,-7.69998 L 0.417175,-7.69998 L 0.417175,-6.29999 L 0,-6.29999 L 0,-4.99998 L 0.417175,-4.99998
 L 0.417175,-3.60001 L 0,-3.60001 L 0,-0 L 1157.03,-0 z
M 974.391,-8.99998 L 974.391,-10.4 L 977.791,-10.4 L 977.791,-8.99998 z
M 676.209,-8.99998 L 676.209,-10.4 L 679.609,-10.4 L 679.609,-8.99998 z
M 427.724,-8.99998 L 427.724,-10.4 L 431.124,-10.4 L 431.124,-8.99998 z
M 460.856,-8.99998 L 460.856,-10.4 L 464.256,-10.4 L 464.256,-8.99998 z
M 444.29,-8.99998 L 444.29,-10.4 L 447.69,-10.4 L 447.69,-8.99998 z
M 477.421,-8.99998 L 477.421,-10.4 L 480.821,-10.4 L 480.821,-8.99998 z
M 493.987,-8.99998 L 493.987,-10.4 L 497.387,-10.4 L 497.387,-8.99998 z
M 510.553,-8.99998 L 510.553,-10.4 L 513.953,-10.4 L 513.953,-8.99998 z
M 527.118,-8.99998 L 527.118,-10.4 L 530.518,-10.4 L 530.518,-8.99998 z
M 957.825,-8.99998 L 957.825,-10.4 L 961.225,-10.4 L 961.225,-8.99998 z
M 576.815,-8.99998 L 576.815,-10.4 L 580.215,-10.4 L 580.215,-8.99998 z
M 593.381,-8.99998 L 593.381,-10.4 L 596.781,-10.4 L 596.781,-8.99998 z
M 609.946,-8.99998 L 609.946,-10.4 L 613.346,-10.4 L 613.346,-8.99998 z
M 626.512,-8.99998 L 626.512,-10.4 L 629.912,-10.4 L 629.912,-8.99998 z
M 643.078,-8.99998 L 643.078,-10.4 L 646.478,-10.4 L 646.478,-8.99998 z
M 659.643,-8.99998 L 659.643,-10.4 L 663.043,-10.4 L 663.043,-8.99998 z
M 775.603,-8.99998 L 775.603,-10.4 L 779.003,-10.4 L 779.003,-8.99998 z
M 361.462,-8.99998 L 361.462,-10.4 L 364.862,-10.4 L 364.862,-8.99998 z
M 344.896,-8.99998 L 344.896,-10.4 L 348.296,-10.4 L 348.296,-8.99998 z
M 228.936,-8.99998 L 228.936,-10.4 L 232.336,-10.4 L 232.336,-8.99998 z
M 245.502,-8.99998 L 245.502,-10.4 L 248.902,-10.4 L 248.902,-8.99998 z
M 262.068,-8.99998 L 262.068,-10.4 L 265.468,-10.4 L 265.468,-8.99998 z
M 278.633,-8.99998 L 278.633,-10.4 L 282.033,-10.4 L 282.033,-8.99998 z
M 295.199,-8.99998 L 295.199,-10.4 L 298.599,-10.4 L 298.599,-8.99998 z
M 311.765,-8.99998 L 311.765,-10.4 L 315.165,-10.4 L 315.165,-8.99998 z
M 692.775,-8.99998 L 692.775,-10.4 L 696.175,-10.4 L 696.175,-8.99998 z
M 195.805,-8.99998 L 195.805,-10.4 L 199.205,-10.4 L 199.205,-8.99998 z
M 378.027,-8.99998 L 378.027,-10.4 L 381.427,-10.4 L 381.427,-8.99998 z
M 394.593,-8.99998 L 394.593,-10.4 L 397.993,-10.4 L 397.993,-8.99998 z
M 411.159,-8.99998 L 411.159,-10.4 L 414.559,-10.4 L 414.559,-8.99998 z
M 1057.22,-8.99998 L 1057.22,-10.4 L 1060.62,-10.4 L 1060.62,-8.99998 z
M 941.26,-8.99998 L 941.26,-10.4 L 944.66,-10.4 L 944.66,-8.99998 z
M 924.694,-8.99998 L 924.694,-10.4 L 928.094,-10.4 L 928.094,-8.99998 z
M 212.371,-8.99998 L 212.371,-10.4 L 215.771,-10.4 L 215.771,-8.99998 z
M 1106.92,-8.99998 L 1106.92,-10.4 L 1110.32,-10.4 L 1110.32,-8.99998 z
M 13.5828,-8.99998 L 13.5828,-10.4 L 16.9828,-10.4 L 16.9828,-8.99998 z
M 543.684,-8.99998 L 543.684,-10.4 L 547.084,-10.4 L 547.084,-8.99998 z
M 1007.52,-8.99998 L 1007.52,-10.4 L 1010.92,-10.4 L 1010.92,-8.99998 z
M 1024.09,-8.99998 L 1024.09,-10.4 L 1027.49,-10.4 L 1027.49,-8.99998 z
M 1040.65,-8.99998 L 1040.65,-10.4 L 1044.05,-10.4 L 1044.05,-8.99998 z
M 908.128,-8.99998 L 908.128,-10.4 L 911.528,-10.4 L 911.528,-8.99998 z
M 1073.78,-8.99998 L 1073.78,-10.4 L 1077.18,-10.4 L 1077.18,-8.99998 z
M 1090.35,-8.99998 L 1090.35,-10.4 L 1093.75,-10.4 L 1093.75,-8.99998 z
M 560.249,-8.99998 L 560.249,-10.4 L 563.65,-10.4 L 563.65,-8.99998 z
M 1123.48,-8.99998 L 1123.48,-10.4 L 1126.88,-10.4 L 1126.88,-8.99998 z
M 1140.05,-8.99998 L 1140.05,-10.4 L 1143.45,-10.4 L 1143.45,-8.99998 z
M 792.169,-8.99998 L 792.169,-10.4 L 795.569,-10.4 L 795.569,-8.99998 z
M 709.34,-8.99998 L 709.34,-10.4 L 712.74,-10.4 L 712.74,-8.99998 z
M 725.906,-8.99998 L 725.906,-10.4 L 729.306,-10.4 L 729.306,-8.99998 z
M 742.472,-8.99998 L 742.472,-10.4 L 745.872,-10.4 L 745.872,-8.99998 z
M 759.037,-8.99998 L 759.037,-10.4 L 762.437,-10.4 L 762.437,-8.99998 z
M 990.957,-8.99998 L 990.957,-10.4 L 994.357,-10.4 L 994.357,-8.99998 z
M 162.674,-8.99998 L 162.674,-10.4 L 166.074,-10.4 L 166.074,-8.99998 z
M 328.33,-8.99998 L 328.33,-10.4 L 331.73,-10.4 L 331.73,-8.99998 z
M 825.3,-8.99998 L 825.3,-10.4 L 828.7,-10.4 L 828.7,-8.99998 z
M 841.866,-8.99998 L 841.866,-10.4 L 845.266,-10.4 L 845.266,-8.99998 z
M 858.431,-8.99998 L 858.431,-10.4 L 861.831,-10.4 L 861.831,-8.99998 z
M 874.997,-8.99998 L 874.997,-10.4 L 878.397,-10.4 L 878.397,-8.99998 z
M 891.563,-8.99998 L 891.563,-10.4 L 894.963,-10.4 L 894.963,-8.99998 z
M 179.239,-8.99998 L 179.239,-10.4 L 182.639,-10.4 L 182.639,-8.99998 z
M 63.2798,-8.99998 L 63.2798,-10.4 L 66.6798,-10.4 L 66.6798,-8.99998 z
M 129.542,-8.99998 L 129.542,-10.4 L 132.942,-10.4 L 132.942,-8.99998 z
M 46.7141,-8.99998 L 46.7141,-10.4 L 50.1142,-10.4 L 50.1142,-8.99998 z
M 112.977,-8.99998 L 112.977,-10.4 L 116.377,-10.4 L 116.377,-8.99998 z
M 30.1485,-8.99998 L 30.1485,-10.4 L 33.5485,-10.4 L 33.5485,-8.99998 z
M 96.4111,-8.99998 L 96.4111,-10.4 L 99.8111,-10.4 L 99.8111,-8.99998 z
M 808.734,-8.99998 L 808.734,-10.4 L 812.134,-10.4 L 812.134,-8.99998 z
M 146.108,-8.99998 L 146.108,-10.4 L 149.508,-10.4 L 149.508,-8.99998 z
M 79.8454,-8.99998 L 79.8454,-10.4 L 83.2455,-10.4 L 83.2455,-8.99998 z
M 369.044,-4.09999 L 369.044,-9.89998 L 370.044,-9.89998 L 370.044,-9.39998 L 372.844,-9.39998 L 372.844,-9.89998
 L 373.844,-9.89998 L 373.844,-4.09999 L 372.844,-4.09999 L 372.844,-4.59999 L 370.044,-4.59999 L 370.044,-4.09999
 z
M 435.307,-4.09999 L 435.307,-9.89998 L 436.307,-9.89998 L 436.307,-9.39998 L 439.107,-9.39998 L 439.107,-9.89998
 L 440.107,-9.89998 L 440.107,-4.09999 L 439.107,-4.09999 L 439.107,-4.59999 L 436.307,-4.59999 L 436.307,-4.09999
 z
M 170.257,-4.09999 L 170.257,-9.89998 L 171.257,-9.89998 L 171.257,-9.39998 L 174.057,-9.39998 L 174.057,-9.89998
 L 175.057,-9.89998 L 175.057,-4.09999 L 174.057,-4.09999 L 174.057,-4.59999 L 171.257,-4.59999 L 171.257,-4.09999
 z
M 253.085,-4.09999 L 253.085,-9.89998 L 254.085,-9.89998 L 254.085,-9.39998 L 256.885,-9.39998 L 256.885,-9.89998
 L 257.885,-9.89998 L 257.885,-4.09999 L 256.885,-4.09999 L 256.885,-4.59999 L 254.085,-4.59999 L 254.085,-4.09999
 z
M 468.438,-4.09999 L 468.438,-9.89998 L 469.438,-9.89998 L 469.438,-9.39998 L 472.238,-9.39998 L 472.238,-9.89998
 L 473.238,-9.89998 L 473.238,-4.09999 L 472.238,-4.09999 L 472.238,-4.59999 L 469.438,-4.59999 L 469.438,-4.09999
 z
M 998.539,-4.09999 L 998.539,-9.89998 L 999.539,-9.89998 L 999.539,-9.39998 L 1002.34,-9.39998 L 1002.34,-9.89998
 L 1003.34,-9.89998 L 1003.34,-4.09999 L 1002.34,-4.09999 L 1002.34,-4.59999 L 999.539,-4.59999 L 999.539,-4.09999
 z
M 137.125,-4.09999 L 137.125,-9.89998 L 138.125,-9.89998 L 138.125,-9.39998 L 140.925,-9.39998 L 140.925,-9.89998
 L 141.925,-9.89998 L 141.925,-4.09999 L 140.925,-4.09999 L 140.925,-4.59999 L 138.125,-4.59999 L 138.125,-4.09999
 z
M 21.1656,-4.09999 L 21.1656,-9.89998 L 22.1656,-9.89998 L 22.1656,-9.39998 L 24.9656,-9.39998 L 24.9656,-9.89998
 L 25.9656,-9.89998 L 25.9656,-4.09999 L 24.9656,-4.09999 L 24.9656,-4.59999 L 22.1656,-4.59999 L 22.1656,-4.09999
 z
M 1064.8,-4.09999 L 1064.8,-9.89998 L 1065.8,-9.89998 L 1065.8,-9.39998 L 1068.6,-9.39998 L 1068.6,-9.89998
 L 1069.6,-9.89998 L 1069.6,-4.09999 L 1068.6,-4.09999 L 1068.6,-4.59999 L 1065.8,-4.59999 L 1065.8,-4.09999
 z
M 1048.24,-4.09999 L 1048.24,-9.89998 L 1049.24,-9.89998 L 1049.24,-9.39998 L 1052.04,-9.39998 L 1052.04,-9.89998
 L 1053.04,-9.89998 L 1053.04,-4.09999 L 1052.04,-4.09999 L 1052.04,-4.59999 L 1049.24,-4.59999 L 1049.24,-4.09999
 z
M 1147.63,-4.09999 L 1147.63,-9.89998 L 1148.63,-9.89998 L 1148.63,-9.39998 L 1151.43,-9.39998 L 1151.43,-9.89998
 L 1152.43,-9.89998 L 1152.43,-4.09999 L 1151.43,-4.09999 L 1151.43,-4.59999 L 1148.63,-4.59999 L 1148.63,-4.09999
 z
M 1114.5,-4.09999 L 1114.5,-9.89998 L 1115.5,-9.89998 L 1115.5,-9.39998 L 1118.3,-9.39998 L 1118.3,-9.89998
 L 1119.3,-9.89998 L 1119.3,-4.09999 L 1118.3,-4.09999 L 1118.3,-4.59999 L 1115.5,-4.59999 L 1115.5,-4.09999
 z
M 37.7313,-4.09999 L 37.7313,-9.89998 L 38.7313,-9.89998 L 38.7313,-9.39998 L 41.5313,-9.39998 L 41.5313,-9.89998
 L 42.5313,-9.89998 L 42.5313,-4.09999 L 41.5313,-4.09999 L 41.5313,-4.59999 L 38.7313,-4.59999 L 38.7313,-4.09999
 z
M 153.691,-4.09999 L 153.691,-9.89998 L 154.691,-9.89998 L 154.691,-9.39998 L 157.491,-9.39998 L 157.491,-9.89998
 L 158.491,-9.89998 L 158.491,-4.09999 L 157.491,-4.09999 L 157.491,-4.59999 L 154.691,-4.59999 L 154.691,-4.09999
 z
M 385.61,-4.09999 L 385.61,-9.89998 L 386.61,-9.89998 L 386.61,-9.39998 L 389.41,-9.39998 L 389.41,-9.89998
 L 390.41,-9.89998 L 390.41,-4.09999 L 389.41,-4.09999 L 389.41,-4.59999 L 386.61,-4.59999 L 386.61,-4.09999
 z
M 203.388,-4.09999 L 203.388,-9.89998 L 204.388,-9.89998 L 204.388,-9.39998 L 207.188,-9.39998 L 207.188,-9.89998
 L 208.188,-9.89998 L 208.188,-4.09999 L 207.188,-4.09999 L 207.188,-4.59999 L 204.388,-4.59999 L 204.388,-4.09999
 z
M 319.347,-4.09999 L 319.347,-9.89998 L 320.347,-9.89998 L 320.347,-9.39998 L 323.147,-9.39998 L 323.147,-9.89998
 L 324.147,-9.89998 L 324.147,-4.09999 L 323.147,-4.09999 L 323.147,-4.59999 L 320.347,-4.59999 L 320.347,-4.09999
 z
M 335.913,-4.09999 L 335.913,-9.89998 L 336.913,-9.89998 L 336.913,-9.39998 L 339.713,-9.39998 L 339.713,-9.89998
 L 340.713,-9.89998 L 340.713,-4.09999 L 339.713,-4.09999 L 339.713,-4.59999 L 336.913,-4.59999 L 336.913,-4.09999
 z
M 186.822,-4.09999 L 186.822,-9.89998 L 187.822,-9.89998 L 187.822,-9.39998 L 190.622,-9.39998 L 190.622,-9.89998
 L 191.622,-9.89998 L 191.622,-4.09999 L 190.622,-4.09999 L 190.622,-4.59999 L 187.822,-4.59999 L 187.822,-4.09999
 z
M 302.782,-4.09999 L 302.782,-9.89998 L 303.782,-9.89998 L 303.782,-9.39998 L 306.582,-9.39998 L 306.582,-9.89998
 L 307.582,-9.89998 L 307.582,-4.09999 L 306.582,-4.09999 L 306.582,-4.59999 L 303.782,-4.59999 L 303.782,-4.09999
 z
M 286.216,-4.09999 L 286.216,-9.89998 L 287.216,-9.89998 L 287.216,-9.39998 L 290.016,-9.39998 L 290.016,-9.89998
 L 291.016,-9.89998 L 291.016,-4.09999 L 290.016,-4.09999 L 290.016,-4.59999 L 287.216,-4.59999 L 287.216,-4.09999
 z
M 1097.93,-4.09999 L 1097.93,-9.89998 L 1098.93,-9.89998 L 1098.93,-9.39998 L 1101.73,-9.39998 L 1101.73,-9.89998
 L 1102.73,-9.89998 L 1102.73,-4.09999 L 1101.73,-4.09999 L 1101.73,-4.59999 L 1098.93,-4.59999 L 1098.93,-4.09999
 z
M 816.317,-4.09999 L 816.317,-9.89998 L 817.317,-9.89998 L 817.317,-9.39998 L 820.117,-9.39998 L 820.117,-9.89998
 L 821.117,-9.89998 L 821.117,-4.09999 L 820.117,-4.09999 L 820.117,-4.59999 L 817.317,-4.59999 L 817.317,-4.09999
 z
M 120.56,-4.09999 L 120.56,-9.89998 L 121.56,-9.89998 L 121.56,-9.39998 L 124.36,-9.39998 L 124.36,-9.89998
 L 125.36,-9.89998 L 125.36,-4.09999 L 124.36,-4.09999 L 124.36,-4.59999 L 121.56,-4.59999 L 121.56,-4.09999
 z
M 783.186,-4.09999 L 783.186,-9.89998 L 784.186,-9.89998 L 784.186,-9.39998 L 786.986,-9.39998 L 786.986,-9.89998
 L 787.986,-9.89998 L 787.986,-4.09999 L 786.986,-4.09999 L 786.986,-4.59999 L 784.186,-4.59999 L 784.186,-4.09999
 z
M 766.62,-4.09999 L 766.62,-9.89998 L 767.62,-9.89998 L 767.62,-9.39998 L 770.42,-9.39998 L 770.42,-9.89998
 L 771.42,-9.89998 L 771.42,-4.09999 L 770.42,-4.09999 L 770.42,-4.59999 L 767.62,-4.59999 L 767.62,-4.09999
 z
M 534.701,-4.09999 L 534.701,-9.89998 L 535.701,-9.89998 L 535.701,-9.39998 L 538.501,-9.39998 L 538.501,-9.89998
 L 539.501,-9.89998 L 539.501,-4.09999 L 538.501,-4.09999 L 538.501,-4.59999 L 535.701,-4.59999 L 535.701,-4.09999
 z
M 750.055,-4.09999 L 750.055,-9.89998 L 751.055,-9.89998 L 751.055,-9.39998 L 753.855,-9.39998 L 753.855,-9.89998
 L 754.855,-9.89998 L 754.855,-4.09999 L 753.855,-4.09999 L 753.855,-4.59999 L 751.055,-4.59999 L 751.055,-4.09999
 z
M 915.711,-4.09999 L 915.711,-9.89998 L 916.711,-9.89998 L 916.711,-9.39998 L 919.511,-9.39998 L 919.511,-9.89998
 L 920.511,-9.89998 L 920.511,-4.09999 L 919.511,-4.09999 L 919.511,-4.59999 L 916.711,-4.59999 L 916.711,-4.09999
 z
M 418.741,-4.09999 L 418.741,-9.89998 L 419.741,-9.89998 L 419.741,-9.39998 L 422.541,-9.39998 L 422.541,-9.89998
 L 423.541,-9.89998 L 423.541,-4.09999 L 422.541,-4.09999 L 422.541,-4.59999 L 419.741,-4.59999 L 419.741,-4.09999
 z
M 501.57,-4.09999 L 501.57,-9.89998 L 502.57,-9.89998 L 502.57,-9.39998 L 505.37,-9.39998 L 505.37,-9.89998
 L 506.37,-9.89998 L 506.37,-4.09999 L 505.37,-4.09999 L 505.37,-4.59999 L 502.57,-4.59999 L 502.57,-4.09999
 z
M 518.135,-4.09999 L 518.135,-9.89998 L 519.135,-9.89998 L 519.135,-9.39998 L 521.935,-9.39998 L 521.935,-9.89998
 L 522.935,-9.89998 L 522.935,-4.09999 L 521.935,-4.09999 L 521.935,-4.59999 L 519.135,-4.59999 L 519.135,-4.09999
 z
M 551.267,-4.09999 L 551.267,-9.89998 L 552.267,-9.89998 L 552.267,-9.39998 L 555.067,-9.39998 L 555.067,-9.89998
 L 556.067,-9.89998 L 556.067,-4.09999 L 555.067,-4.09999 L 555.067,-4.59999 L 552.267,-4.59999 L 552.267,-4.09999
 z
M 485.004,-4.09999 L 485.004,-9.89998 L 486.004,-9.89998 L 486.004,-9.39998 L 488.804,-9.39998 L 488.804,-9.89998
 L 489.804,-9.89998 L 489.804,-4.09999 L 488.804,-4.09999 L 488.804,-4.59999 L 486.004,-4.59999 L 486.004,-4.09999
 z
M 1015.11,-4.09999 L 1015.11,-9.89998 L 1016.11,-9.89998 L 1016.11,-9.39998 L 1018.91,-9.39998 L 1018.91,-9.89998
 L 1019.91,-9.89998 L 1019.91,-4.09999 L 1018.91,-4.09999 L 1018.91,-4.59999 L 1016.11,-4.59999 L 1016.11,-4.09999
 z
M 567.832,-4.09999 L 567.832,-9.89998 L 568.832,-9.89998 L 568.832,-9.39998 L 571.632,-9.39998 L 571.632,-9.89998
 L 572.632,-9.89998 L 572.632,-4.09999 L 571.632,-4.09999 L 571.632,-4.59999 L 568.832,-4.59999 L 568.832,-4.09999
 z
M 1031.67,-4.09999 L 1031.67,-9.89998 L 1032.67,-9.89998 L 1032.67,-9.39998 L 1035.47,-9.39998 L 1035.47,-9.89998
 L 1036.47,-9.89998 L 1036.47,-4.09999 L 1035.47,-4.09999 L 1035.47,-4.59999 L 1032.67,-4.59999 L 1032.67,-4.09999
 z
M 402.176,-4.09999 L 402.176,-9.89998 L 403.176,-9.89998 L 403.176,-9.39998 L 405.976,-9.39998 L 405.976,-9.89998
 L 406.976,-9.89998 L 406.976,-4.09999 L 405.976,-4.09999 L 405.976,-4.59999 L 403.176,-4.59999 L 403.176,-4.09999
 z
M 451.873,-4.09999 L 451.873,-9.89998 L 452.873,-9.89998 L 452.873,-9.39998 L 455.673,-9.39998 L 455.673,-9.89998
 L 456.673,-9.89998 L 456.673,-4.09999 L 455.673,-4.09999 L 455.673,-4.59999 L 452.873,-4.59999 L 452.873,-4.09999
 z
M 584.398,-4.09999 L 584.398,-9.89998 L 585.398,-9.89998 L 585.398,-9.39998 L 588.198,-9.39998 L 588.198,-9.89998
 L 589.198,-9.89998 L 589.198,-4.09999 L 588.198,-4.09999 L 588.198,-4.59999 L 585.398,-4.59999 L 585.398,-4.09999
 z
M 617.529,-4.09999 L 617.529,-9.89998 L 618.529,-9.89998 L 618.529,-9.39998 L 621.329,-9.39998 L 621.329,-9.89998
 L 622.329,-9.89998 L 622.329,-4.09999 L 621.329,-4.09999 L 621.329,-4.59999 L 618.529,-4.59999 L 618.529,-4.09999
 z
M 600.964,-4.09999 L 600.964,-9.89998 L 601.964,-9.89998 L 601.964,-9.39998 L 604.764,-9.39998 L 604.764,-9.89998
 L 605.764,-9.89998 L 605.764,-4.09999 L 604.764,-4.09999 L 604.764,-4.59999 L 601.964,-4.59999 L 601.964,-4.09999
 z
M 634.095,-4.09999 L 634.095,-9.89998 L 635.095,-9.89998 L 635.095,-9.39998 L 637.895,-9.39998 L 637.895,-9.89998
 L 638.895,-9.89998 L 638.895,-4.09999 L 637.895,-4.09999 L 637.895,-4.59999 L 635.095,-4.59999 L 635.095,-4.09999
 z
M 932.277,-4.09999 L 932.277,-9.89998 L 933.277,-9.89998 L 933.277,-9.39998 L 936.077,-9.39998 L 936.077,-9.89998
 L 937.077,-9.89998 L 937.077,-4.09999 L 936.077,-4.09999 L 936.077,-4.59999 L 933.277,-4.59999 L 933.277,-4.09999
 z
M 716.923,-4.09999 L 716.923,-9.89998 L 717.923,-9.89998 L 717.923,-9.39998 L 720.723,-9.39998 L 720.723,-9.89998
 L 721.723,-9.89998 L 721.723,-4.09999 L 720.723,-4.09999 L 720.723,-4.59999 L 717.923,-4.59999 L 717.923,-4.09999
 z
M 733.489,-4.09999 L 733.489,-9.89998 L 734.489,-9.89998 L 734.489,-9.39998 L 737.289,-9.39998 L 737.289,-9.89998
 L 738.289,-9.89998 L 738.289,-4.09999 L 737.289,-4.09999 L 737.289,-4.59999 L 734.489,-4.59999 L 734.489,-4.09999
 z
M 849.448,-4.09999 L 849.448,-9.89998 L 850.448,-9.89998 L 850.448,-9.39998 L 853.248,-9.39998 L 853.248,-9.89998
 L 854.248,-9.89998 L 854.248,-4.09999 L 853.248,-4.09999 L 853.248,-4.59999 L 850.448,-4.59999 L 850.448,-4.09999
 z
M 4.59999,-4.09999 L 4.59999,-9.89998 L 5.59999,-9.89998 L 5.59999,-9.39998 L 8.39998,-9.39998 L 8.39998,-9.89998
 L 9.39998,-9.89998 L 9.39998,-4.09999 L 8.39998,-4.09999 L 8.39998,-4.59999 L 5.59999,-4.59999 L 5.59999,-4.09999
 z
M 799.752,-4.09999 L 799.752,-9.89998 L 800.752,-9.89998 L 800.752,-9.39998 L 803.551,-9.39998 L 803.551,-9.89998
 L 804.551,-9.89998 L 804.551,-4.09999 L 803.551,-4.09999 L 803.551,-4.59999 L 800.752,-4.59999 L 800.752,-4.09999
 z
M 899.145,-4.09999 L 899.145,-9.89998 L 900.145,-9.89998 L 900.145,-9.39998 L 902.945,-9.39998 L 902.945,-9.89998
 L 903.945,-9.89998 L 903.945,-4.09999 L 902.945,-4.09999 L 902.945,-4.59999 L 900.145,-4.59999 L 900.145,-4.09999
 z
M 832.883,-4.09999 L 832.883,-9.89998 L 833.883,-9.89998 L 833.883,-9.39998 L 836.683,-9.39998 L 836.683,-9.89998
 L 837.683,-9.89998 L 837.683,-4.09999 L 836.683,-4.09999 L 836.683,-4.59999 L 833.883,-4.59999 L 833.883,-4.09999
 z
M 882.58,-4.09999 L 882.58,-9.89998 L 883.58,-9.89998 L 883.58,-9.39998 L 886.38,-9.39998 L 886.38,-9.89998
 L 887.38,-9.89998 L 887.38,-4.09999 L 886.38,-4.09999 L 886.38,-4.59999 L 883.58,-4.59999 L 883.58,-4.09999
 z
M 866.014,-4.09999 L 866.014,-9.89998 L 867.014,-9.89998 L 867.014,-9.39998 L 869.814,-9.39998 L 869.814,-9.89998
 L 870.814,-9.89998 L 870.814,-4.09999 L 869.814,-4.09999 L 869.814,-4.59999 L 867.014,-4.59999 L 867.014,-4.09999
 z
M 981.974,-4.09999 L 981.974,-9.89998 L 982.974,-9.89998 L 982.974,-9.39998 L 985.774,-9.39998 L 985.774,-9.89998
 L 986.774,-9.89998 L 986.774,-4.09999 L 985.774,-4.09999 L 985.774,-4.59999 L 982.974,-4.59999 L 982.974,-4.09999
 z
M 965.408,-4.09999 L 965.408,-9.89998 L 966.408,-9.89998 L 966.408,-9.39998 L 969.208,-9.39998 L 969.208,-9.89998
 L 970.208,-9.89998 L 970.208,-4.09999 L 969.208,-4.09999 L 969.208,-4.59999 L 966.408,-4.59999 L 966.408,-4.09999
 z
M 650.661,-4.09999 L 650.661,-9.89998 L 651.661,-9.89998 L 651.661,-9.39998 L 654.461,-9.39998 L 654.461,-9.89998
 L 655.461,-9.89998 L 655.461,-4.09999 L 654.461,-4.09999 L 654.461,-4.59999 L 651.661,-4.59999 L 651.661,-4.09999
 z
M 103.994,-4.09999 L 103.994,-9.89998 L 104.994,-9.89998 L 104.994,-9.39998 L 107.794,-9.39998 L 107.794,-9.89998
 L 108.794,-9.89998 L 108.794,-4.09999 L 107.794,-4.09999 L 107.794,-4.59999 L 104.994,-4.59999 L 104.994,-4.09999
 z
M 70.8626,-4.09999 L 70.8626,-9.89998 L 71.8626,-9.89998 L 71.8626,-9.39998 L 74.6626,-9.39998 L 74.6626,-9.89998
 L 75.6626,-9.89998 L 75.6626,-4.09999 L 74.6626,-4.09999 L 74.6626,-4.59999 L 71.8626,-4.59999 L 71.8626,-4.09999
 z
M 667.226,-4.09999 L 667.226,-9.89998 L 668.226,-9.89998 L 668.226,-9.39998 L 671.026,-9.39998 L 671.026,-9.89998
 L 672.026,-9.89998 L 672.026,-4.09999 L 671.026,-4.09999 L 671.026,-4.59999 L 668.226,-4.59999 L 668.226,-4.09999
 z
M 700.358,-4.09999 L 700.358,-9.89998 L 701.358,-9.89998 L 701.358,-9.39998 L 704.158,-9.39998 L 704.158,-9.89998
 L 705.158,-9.89998 L 705.158,-4.09999 L 704.158,-4.09999 L 704.158,-4.59999 L 701.358,-4.59999 L 701.358,-4.09999
 z
M 948.842,-4.09999 L 948.842,-9.89998 L 949.842,-9.89998 L 949.842,-9.39998 L 952.642,-9.39998 L 952.642,-9.89998
 L 953.642,-9.89998 L 953.642,-4.09999 L 952.642,-4.09999 L 952.642,-4.59999 L 949.842,-4.59999 L 949.842,-4.09999
 z
M 87.4283,-4.09999 L 87.4283,-9.89998 L 88.4283,-9.89998 L 88.4283,-9.39998 L 91.2283,-9.39998 L 91.2283,-9.89998
 L 92.2283,-9.89998 L 92.2283,-4.09999 L 91.2283,-4.09999 L 91.2283,-4.59999 L 88.4283,-4.59999 L 88.4283,-4.09999
 z
M 269.65,-4.09999 L 269.65,-9.89998 L 270.65,-9.89998 L 270.65,-9.39998 L 273.45,-9.39998 L 273.45,-9.89998
 L 274.45,-9.89998 L 274.45,-4.09999 L 273.45,-4.09999 L 273.45,-4.59999 L 270.65,-4.59999 L 270.65,-4.09999
 z
M 219.954,-4.09999 L 219.954,-9.89998 L 220.954,-9.89998 L 220.954,-9.39998 L 223.754,-9.39998 L 223.754,-9.89998
 L 224.754,-9.89998 L 224.754,-4.09999 L 223.754,-4.09999 L 223.754,-4.59999 L 220.954,-4.59999 L 220.954,-4.09999
 z
M 1131.06,-4.09999 L 1131.06,-9.89998 L 1132.06,-9.89998 L 1132.06,-9.39998 L 1134.86,-9.39998 L 1134.86,-9.89998
 L 1135.86,-9.89998 L 1135.86,-4.09999 L 1134.86,-4.09999 L 1134.86,-4.59999 L 1132.06,-4.59999 L 1132.06,-4.09999
 z
M 683.792,-4.09999 L 683.792,-9.89998 L 684.792,-9.89998 L 684.792,-9.39998 L 687.592,-9.39998 L 687.592,-9.89998
 L 688.592,-9.89998 L 688.592,-4.09999 L 687.592,-4.09999 L 687.592,-4.59999 L 684.792,-4.59999 L 684.792,-4.09999
 z
M 352.479,-4.09999 L 352.479,-9.89998 L 353.479,-9.89998 L 353.479,-9.39998 L 356.279,-9.39998 L 356.279,-9.89998
 L 357.279,-9.89998 L 357.279,-4.09999 L 356.279,-4.09999 L 356.279,-4.59999 L 353.479,-4.59999 L 353.479,-4.09999
 z
M 1081.37,-4.09999 L 1081.37,-9.89998 L 1082.37,-9.89998 L 1082.37,-9.39998 L 1085.17,-9.39998 L 1085.17,-9.89998
 L 1086.17,-9.89998 L 1086.17,-4.09999 L 1085.17,-4.09999 L 1085.17,-4.59999 L 1082.37,-4.59999 L 1082.37,-4.09999
 z
M 54.297,-4.09999 L 54.297,-9.89998 L 55.297,-9.89998 L 55.297,-9.39998 L 58.097,-9.39998 L 58.097,-9.89998
 L 59.097,-9.89998 L 59.097,-4.09999 L 58.097,-4.09999 L 58.097,-4.59999 L 55.297,-4.59999 L 55.297,-4.09999
 z
M 236.519,-4.09999 L 236.519,-9.89998 L 237.519,-9.89998 L 237.519,-9.39998 L 240.319,-9.39998 L 240.319,-9.89998
 L 241.319,-9.89998 L 241.319,-4.09999 L 240.319,-4.09999 L 240.319,-4.59999 L 237.519,-4.59999 L 237.519,-4.09999
 z
M 1096.33,-5.99998 L 1096.33,-7.99998 L 1096.93,-7.99998 L 1096.93,-5.99998 z
M 1063.2,-5.99998 L 1063.2,-7.99998 L 1063.8,-7.99998 L 1063.8,-5.99998 z
M 483.404,-5.99998 L 483.404,-7.99998 L 484.004,-7.99998 L 484.004,-5.99998 z
M 632.495,-5.99998 L 632.495,-7.99998 L 633.095,-7.99998 L 633.095,-5.99998 z
M 549.667,-5.99998 L 549.667,-7.99998 L 550.267,-7.99998 L 550.267,-5.99998 z
M 980.374,-5.99998 L 980.374,-7.99998 L 980.974,-7.99998 L 980.974,-5.99998 z
M 417.141,-5.99998 L 417.141,-7.99998 L 417.741,-7.99998 L 417.741,-5.99998 z
M 996.939,-5.99998 L 996.939,-7.99998 L 997.539,-7.99998 L 997.539,-5.99998 z
M 533.101,-5.99998 L 533.101,-7.99998 L 533.701,-7.99998 L 533.701,-5.99998 z
M 781.586,-5.99998 L 781.586,-7.99998 L 782.186,-7.99998 L 782.186,-5.99998 z
M 698.758,-5.99998 L 698.758,-7.99998 L 699.358,-7.99998 L 699.358,-5.99998 z
M 880.98,-5.99998 L 880.98,-7.99998 L 881.58,-7.99998 L 881.58,-5.99998 z
M 731.889,-5.99998 L 731.889,-7.99998 L 732.489,-7.99998 L 732.489,-5.99998 z
M 36.1313,-5.99998 L 36.1313,-7.99998 L 36.7313,-7.99998 L 36.7313,-5.99998 z
M 317.747,-5.99998 L 317.747,-7.99998 L 318.347,-7.99998 L 318.347,-5.99998 z
M 566.232,-5.99998 L 566.232,-7.99998 L 566.832,-7.99998 L 566.832,-5.99998 z
M 152.091,-5.99998 L 152.091,-7.99998 L 152.691,-7.99998 L 152.691,-5.99998 z
M 765.02,-5.99998 L 765.02,-7.99998 L 765.62,-7.99998 L 765.62,-5.99998 z
M 864.414,-5.99998 L 864.414,-7.99998 L 865.014,-7.99998 L 865.014,-5.99998 z
M 1013.51,-5.99998 L 1013.51,-7.99998 L 1014.11,-7.99998 L 1014.11,-5.99998 z
M 516.535,-5.99998 L 516.535,-7.99998 L 517.135,-7.99998 L 517.135,-5.99998 z
M 384.01,-5.99998 L 384.01,-7.99998 L 384.61,-7.99998 L 384.61,-5.99998 z
M 19.5657,-5.99998 L 19.5657,-7.99998 L 20.1656,-7.99998 L 20.1656,-5.99998 z
M 52.697,-5.99998 L 52.697,-7.99998 L 53.297,-7.99998 L 53.297,-5.99998 z
M 185.222,-5.99998 L 185.222,-7.99998 L 185.822,-7.99998 L 185.822,-5.99998 z
M 400.576,-5.99998 L 400.576,-7.99998 L 401.176,-7.99998 L 401.176,-5.99998 z
M 102.394,-5.99998 L 102.394,-7.99998 L 102.994,-7.99998 L 102.994,-5.99998 z
M 615.929,-5.99998 L 615.929,-7.99998 L 616.529,-7.99998 L 616.529,-5.99998 z
M 665.626,-5.99998 L 665.626,-7.99998 L 666.226,-7.99998 L 666.226,-5.99998 z
M 334.313,-5.99998 L 334.313,-7.99998 L 334.913,-7.99998 L 334.913,-5.99998 z
M 234.919,-5.99998 L 234.919,-7.99998 L 235.519,-7.99998 L 235.519,-5.99998 z
M 1129.46,-5.99998 L 1129.46,-7.99998 L 1130.06,-7.99998 L 1130.06,-5.99998 z
M 268.051,-5.99998 L 268.051,-7.99998 L 268.65,-7.99998 L 268.65,-5.99998 z
M 85.8283,-5.99998 L 85.8283,-7.99998 L 86.4283,-7.99998 L 86.4283,-5.99998 z
M 715.323,-5.99998 L 715.323,-7.99998 L 715.923,-7.99998 L 715.923,-5.99998 z
M 3,-5.99998 L 3,-7.99998 L 3.59999,-7.99998 L 3.59999,-5.99998 z
M 284.616,-5.99998 L 284.616,-7.99998 L 285.216,-7.99998 L 285.216,-5.99998 z
M 897.545,-5.99998 L 897.545,-7.99998 L 898.145,-7.99998 L 898.145,-5.99998 z
M 466.838,-5.99998 L 466.838,-7.99998 L 467.438,-7.99998 L 467.438,-5.99998 z
M 963.808,-5.99998 L 963.808,-7.99998 L 964.408,-7.99998 L 964.408,-5.99998 z
M 1146.03,-5.99998 L 1146.03,-7.99998 L 1146.63,-7.99998 L 1146.63,-5.99998 z
M 251.485,-5.99998 L 251.485,-7.99998 L 252.085,-7.99998 L 252.085,-5.99998 z
M 201.788,-5.99998 L 201.788,-7.99998 L 202.388,-7.99998 L 202.388,-5.99998 z
M 649.061,-5.99998 L 649.061,-7.99998 L 649.661,-7.99998 L 649.661,-5.99998 z
M 831.283,-5.99998 L 831.283,-7.99998 L 831.883,-7.99998 L 831.883,-5.99998 z
M 450.273,-5.99998 L 450.273,-7.99998 L 450.873,-7.99998 L 450.873,-5.99998 z
M 914.111,-5.99998 L 914.111,-7.99998 L 914.711,-7.99998 L 914.711,-5.99998 z
M 367.444,-5.99998 L 367.444,-7.99998 L 368.044,-7.99998 L 368.044,-5.99998 z
M 135.525,-5.99998 L 135.525,-7.99998 L 136.125,-7.99998 L 136.125,-5.99998 z
M 69.2626,-5.99998 L 69.2626,-7.99998 L 69.8626,-7.99998 L 69.8626,-5.99998 z
M 682.192,-5.99998 L 682.192,-7.99998 L 682.792,-7.99998 L 682.792,-5.99998 z
M 499.97,-5.99998 L 499.97,-7.99998 L 500.57,-7.99998 L 500.57,-5.99998 z
M 301.182,-5.99998 L 301.182,-7.99998 L 301.782,-7.99998 L 301.782,-5.99998 z
M 930.677,-5.99998 L 930.677,-7.99998 L 931.277,-7.99998 L 931.277,-5.99998 z
M 1079.77,-5.99998 L 1079.77,-7.99998 L 1080.37,-7.99998 L 1080.37,-5.99998 z
M 1112.9,-5.99998 L 1112.9,-7.99998 L 1113.5,-7.99998 L 1113.5,-5.99998 z
M 599.364,-5.99998 L 599.364,-7.99998 L 599.964,-7.99998 L 599.964,-5.99998 z
M 1046.64,-5.99998 L 1046.64,-7.99998 L 1047.24,-7.99998 L 1047.24,-5.99998 z
M 582.798,-5.99998 L 582.798,-7.99998 L 583.398,-7.99998 L 583.398,-5.99998 z
M 168.657,-5.99998 L 168.657,-7.99998 L 169.257,-7.99998 L 169.257,-5.99998 z
M 748.455,-5.99998 L 748.455,-7.99998 L 749.055,-7.99998 L 749.055,-5.99998 z
M 798.152,-5.99998 L 798.152,-7.99998 L 798.752,-7.99998 L 798.752,-5.99998 z
M 847.848,-5.99998 L 847.848,-7.99998 L 848.448,-7.99998 L 848.448,-5.99998 z
M 218.354,-5.99998 L 218.354,-7.99998 L 218.954,-7.99998 L 218.954,-5.99998 z
M 1030.07,-5.99998 L 1030.07,-7.99998 L 1030.67,-7.99998 L 1030.67,-5.99998 z
M 433.707,-5.99998 L 433.707,-7.99998 L 434.307,-7.99998 L 434.307,-5.99998 z
M 947.242,-5.99998 L 947.242,-7.99998 L 947.842,-7.99998 L 947.842,-5.99998 z
M 350.879,-5.99998 L 350.879,-7.99998 L 351.479,-7.99998 L 351.479,-5.99998 z
M 814.717,-5.99998 L 814.717,-7.99998 L 815.317,-7.99998 L 815.317,-5.99998 z
M 118.96,-5.99998 L 118.96,-7.99998 L 119.56,-7.99998 L 119.56,-5.99998 z
M 725.906,-6.29999 L 725.906,-7.69998 L 729.306,-7.69998 L 729.306,-6.29999 z
M 891.563,-6.29999 L 891.563,-7.69998 L 894.963,-7.69998 L 894.963,-6.29999 z
M 262.068,-6.29999 L 262.068,-7.69998 L 265.468,-7.69998 L 265.468,-6.29999 z
M 162.674,-6.29999 L 162.674,-7.69998 L 166.074,-7.69998 L 166.074,-6.29999 z
M 692.775,-6.29999 L 692.775,-7.69998 L 696.175,-7.69998 L 696.175,-6.29999 z
M 709.34,-6.29999 L 709.34,-7.69998 L 712.74,-7.69998 L 712.74,-6.29999 z
M 96.4111,-6.29999 L 96.4111,-7.69998 L 99.8111,-7.69998 L 99.8111,-6.29999 z
M 957.825,-6.29999 L 957.825,-7.69998 L 961.225,-7.69998 L 961.225,-6.29999 z
M 941.26,-6.29999 L 941.26,-7.69998 L 944.66,-7.69998 L 944.66,-6.29999 z
M 344.896,-6.29999 L 344.896,-7.69998 L 348.296,-7.69998 L 348.296,-6.29999 z
M 278.633,-6.29999 L 278.633,-7.69998 L 282.033,-7.69998 L 282.033,-6.29999 z
M 79.8454,-6.29999 L 79.8454,-7.69998 L 83.2455,-7.69998 L 83.2455,-6.29999 z
M 378.027,-6.29999 L 378.027,-7.69998 L 381.427,-7.69998 L 381.427,-6.29999 z
M 212.371,-6.29999 L 212.371,-7.69998 L 215.771,-7.69998 L 215.771,-6.29999 z
M 228.936,-6.29999 L 228.936,-7.69998 L 232.336,-7.69998 L 232.336,-6.29999 z
M 808.734,-6.29999 L 808.734,-7.69998 L 812.134,-7.69998 L 812.134,-6.29999 z
M 792.169,-6.29999 L 792.169,-7.69998 L 795.569,-7.69998 L 795.569,-6.29999 z
M 908.128,-6.29999 L 908.128,-7.69998 L 911.528,-7.69998 L 911.528,-6.29999 z
M 30.1485,-6.29999 L 30.1485,-7.69998 L 33.5485,-7.69998 L 33.5485,-6.29999 z
M 1140.05,-6.29999 L 1140.05,-7.69998 L 1143.45,-7.69998 L 1143.45,-6.29999 z
M 195.805,-6.29999 L 195.805,-7.69998 L 199.205,-7.69998 L 199.205,-6.29999 z
M 841.866,-6.29999 L 841.866,-7.69998 L 845.266,-7.69998 L 845.266,-6.29999 z
M 46.7141,-6.29999 L 46.7141,-7.69998 L 50.1142,-7.69998 L 50.1142,-6.29999 z
M 874.997,-6.29999 L 874.997,-7.69998 L 878.397,-7.69998 L 878.397,-6.29999 z
M 858.431,-6.29999 L 858.431,-7.69998 L 861.831,-7.69998 L 861.831,-6.29999 z
M 63.2798,-6.29999 L 63.2798,-7.69998 L 66.6798,-7.69998 L 66.6798,-6.29999 z
M 825.3,-6.29999 L 825.3,-7.69998 L 828.7,-7.69998 L 828.7,-6.29999 z
M 676.209,-6.29999 L 676.209,-7.69998 L 679.609,-7.69998 L 679.609,-6.29999 z
M 924.694,-6.29999 L 924.694,-7.69998 L 928.094,-7.69998 L 928.094,-6.29999 z
M 742.472,-6.29999 L 742.472,-7.69998 L 745.872,-7.69998 L 745.872,-6.29999 z
M 1123.48,-6.29999 L 1123.48,-7.69998 L 1126.88,-7.69998 L 1126.88,-6.29999 z
M 759.037,-6.29999 L 759.037,-7.69998 L 762.437,-7.69998 L 762.437,-6.29999 z
M 775.603,-6.29999 L 775.603,-7.69998 L 779.003,-7.69998 L 779.003,-6.29999 z
M 13.5828,-6.29999 L 13.5828,-7.69998 L 16.9828,-7.69998 L 16.9828,-6.29999 z
M 328.33,-6.29999 L 328.33,-7.69998 L 331.73,-7.69998 L 331.73,-6.29999 z
M 245.502,-6.29999 L 245.502,-7.69998 L 248.902,-7.69998 L 248.902,-6.29999 z
M 527.118,-6.29999 L 527.118,-7.69998 L 530.518,-7.69998 L 530.518,-6.29999 z
M 510.553,-6.29999 L 510.553,-7.69998 L 513.953,-7.69998 L 513.953,-6.29999 z
M 1007.52,-6.29999 L 1007.52,-7.69998 L 1010.92,-7.69998 L 1010.92,-6.29999 z
M 1024.09,-6.29999 L 1024.09,-7.69998 L 1027.49,-7.69998 L 1027.49,-6.29999 z
M 129.542,-6.29999 L 129.542,-7.69998 L 132.942,-7.69998 L 132.942,-6.29999 z
M 1040.65,-6.29999 L 1040.65,-7.69998 L 1044.05,-7.69998 L 1044.05,-6.29999 z
M 543.684,-6.29999 L 543.684,-7.69998 L 547.084,-7.69998 L 547.084,-6.29999 z
M 112.977,-6.29999 L 112.977,-7.69998 L 116.377,-7.69998 L 116.377,-6.29999 z
M 1106.92,-6.29999 L 1106.92,-7.69998 L 1110.32,-7.69998 L 1110.32,-6.29999 z
M 1090.35,-6.29999 L 1090.35,-7.69998 L 1093.75,-7.69998 L 1093.75,-6.29999 z
M 427.724,-6.29999 L 427.724,-7.69998 L 431.124,-7.69998 L 431.124,-6.29999 z
M 560.249,-6.29999 L 560.249,-7.69998 L 563.65,-7.69998 L 563.65,-6.29999 z
M 444.29,-6.29999 L 444.29,-7.69998 L 447.69,-7.69998 L 447.69,-6.29999 z
M 361.462,-6.29999 L 361.462,-7.69998 L 364.862,-7.69998 L 364.862,-6.29999 z
M 990.957,-6.29999 L 990.957,-7.69998 L 994.357,-7.69998 L 994.357,-6.29999 z
M 477.421,-6.29999 L 477.421,-7.69998 L 480.821,-7.69998 L 480.821,-6.29999 z
M 609.946,-6.29999 L 609.946,-7.69998 L 613.346,-7.69998 L 613.346,-6.29999 z
M 493.987,-6.29999 L 493.987,-7.69998 L 497.387,-7.69998 L 497.387,-6.29999 z
M 1073.78,-6.29999 L 1073.78,-7.69998 L 1077.18,-7.69998 L 1077.18,-6.29999 z
M 311.765,-6.29999 L 311.765,-7.69998 L 315.165,-7.69998 L 315.165,-6.29999 z
M 146.108,-6.29999 L 146.108,-7.69998 L 149.508,-7.69998 L 149.508,-6.29999 z
M 1057.22,-6.29999 L 1057.22,-7.69998 L 1060.62,-7.69998 L 1060.62,-6.29999 z
M 295.199,-6.29999 L 295.199,-7.69998 L 298.599,-7.69998 L 298.599,-6.29999 z
M 974.391,-6.29999 L 974.391,-7.69998 L 977.791,-7.69998 L 977.791,-6.29999 z
M 460.856,-6.29999 L 460.856,-7.69998 L 464.256,-7.69998 L 464.256,-6.29999 z
M 626.512,-6.29999 L 626.512,-7.69998 L 629.912,-7.69998 L 629.912,-6.29999 z
M 643.078,-6.29999 L 643.078,-7.69998 L 646.478,-7.69998 L 646.478,-6.29999 z
M 394.593,-6.29999 L 394.593,-7.69998 L 397.993,-7.69998 L 397.993,-6.29999 z
M 576.815,-6.29999 L 576.815,-7.69998 L 580.215,-7.69998 L 580.215,-6.29999 z
M 659.643,-6.29999 L 659.643,-7.69998 L 663.043,-7.69998 L 663.043,-6.29999 z
M 179.239,-6.29999 L 179.239,-7.69998 L 182.639,-7.69998 L 182.639,-6.29999 z
M 411.159,-6.29999 L 411.159,-7.69998 L 414.559,-7.69998 L 414.559,-6.29999 z
M 593.381,-6.29999 L 593.381,-7.69998 L 596.781,-7.69998 L 596.781,-6.29999 z
M 1007.52,-3.60001 L 1007.52,-4.99998 L 1010.92,-4.99998 L 1010.92,-3.60001 z
M 129.542,-3.60001 L 129.542,-4.99998 L 132.942,-4.99998 L 132.942,-3.60001 z
M 858.431,-3.60001 L 858.431,-4.99998 L 861.831,-4.99998 L 861.831,-3.60001 z
M 874.997,-3.60001 L 874.997,-4.99998 L 878.397,-4.99998 L 878.397,-3.60001 z
M 1040.65,-3.60001 L 1040.65,-4.99998 L 1044.05,-4.99998 L 1044.05,-3.60001 z
M 891.563,-3.60001 L 891.563,-4.99998 L 894.963,-4.99998 L 894.963,-3.60001 z
M 1057.22,-3.60001 L 1057.22,-4.99998 L 1060.62,-4.99998 L 1060.62,-3.60001 z
M 1090.35,-3.60001 L 1090.35,-4.99998 L 1093.75,-4.99998 L 1093.75,-3.60001 z
M 1140.05,-3.60001 L 1140.05,-4.99998 L 1143.45,-4.99998 L 1143.45,-3.60001 z
M 96.4111,-3.60001 L 96.4111,-4.99998 L 99.8111,-4.99998 L 99.8111,-3.60001 z
M 941.26,-3.60001 L 941.26,-4.99998 L 944.66,-4.99998 L 944.66,-3.60001 z
M 957.825,-3.60001 L 957.825,-4.99998 L 961.225,-4.99998 L 961.225,-3.60001 z
M 1123.48,-3.60001 L 1123.48,-4.99998 L 1126.88,-4.99998 L 1126.88,-3.60001 z
M 974.391,-3.60001 L 974.391,-4.99998 L 977.791,-4.99998 L 977.791,-3.60001 z
M 1106.92,-3.60001 L 1106.92,-4.99998 L 1110.32,-4.99998 L 1110.32,-3.60001 z
M 990.957,-3.60001 L 990.957,-4.99998 L 994.357,-4.99998 L 994.357,-3.60001 z
M 924.694,-3.60001 L 924.694,-4.99998 L 928.094,-4.99998 L 928.094,-3.60001 z
M 13.5828,-3.60001 L 13.5828,-4.99998 L 16.9828,-4.99998 L 16.9828,-3.60001 z
M 510.553,-3.60001 L 510.553,-4.99998 L 513.953,-4.99998 L 513.953,-3.60001 z
M 411.159,-3.60001 L 411.159,-4.99998 L 414.559,-4.99998 L 414.559,-3.60001 z
M 1073.78,-3.60001 L 1073.78,-4.99998 L 1077.18,-4.99998 L 1077.18,-3.60001 z
M 1024.09,-3.60001 L 1024.09,-4.99998 L 1027.49,-4.99998 L 1027.49,-3.60001 z
M 46.7141,-3.60001 L 46.7141,-4.99998 L 50.1142,-4.99998 L 50.1142,-3.60001 z
M 908.128,-3.60001 L 908.128,-4.99998 L 911.528,-4.99998 L 911.528,-3.60001 z
M 676.209,-3.60001 L 676.209,-4.99998 L 679.609,-4.99998 L 679.609,-3.60001 z
M 295.199,-3.60001 L 295.199,-4.99998 L 298.599,-4.99998 L 298.599,-3.60001 z
M 527.118,-3.60001 L 527.118,-4.99998 L 530.518,-4.99998 L 530.518,-3.60001 z
M 30.1485,-3.60001 L 30.1485,-4.99998 L 33.5485,-4.99998 L 33.5485,-3.60001 z
M 709.34,-3.60001 L 709.34,-4.99998 L 712.74,-4.99998 L 712.74,-3.60001 z
M 543.684,-3.60001 L 543.684,-4.99998 L 547.084,-4.99998 L 547.084,-3.60001 z
M 146.108,-3.60001 L 146.108,-4.99998 L 149.508,-4.99998 L 149.508,-3.60001 z
M 311.765,-3.60001 L 311.765,-4.99998 L 315.165,-4.99998 L 315.165,-3.60001 z
M 560.249,-3.60001 L 560.249,-4.99998 L 563.65,-4.99998 L 563.65,-3.60001 z
M 328.33,-3.60001 L 328.33,-4.99998 L 331.73,-4.99998 L 331.73,-3.60001 z
M 576.815,-3.60001 L 576.815,-4.99998 L 580.215,-4.99998 L 580.215,-3.60001 z
M 825.3,-3.60001 L 825.3,-4.99998 L 828.7,-4.99998 L 828.7,-3.60001 z
M 112.977,-3.60001 L 112.977,-4.99998 L 116.377,-4.99998 L 116.377,-3.60001 z
M 609.946,-3.60001 L 609.946,-4.99998 L 613.346,-4.99998 L 613.346,-3.60001 z
M 626.512,-3.60001 L 626.512,-4.99998 L 629.912,-4.99998 L 629.912,-3.60001 z
M 643.078,-3.60001 L 643.078,-4.99998 L 646.478,-4.99998 L 646.478,-3.60001 z
M 262.068,-3.60001 L 262.068,-4.99998 L 265.468,-4.99998 L 265.468,-3.60001 z
M 460.856,-3.60001 L 460.856,-4.99998 L 464.256,-4.99998 L 464.256,-3.60001 z
M 378.027,-3.60001 L 378.027,-4.99998 L 381.427,-4.99998 L 381.427,-3.60001 z
M 394.593,-3.60001 L 394.593,-4.99998 L 397.993,-4.99998 L 397.993,-3.60001 z
M 212.371,-3.60001 L 212.371,-4.99998 L 215.771,-4.99998 L 215.771,-3.60001 z
M 427.724,-3.60001 L 427.724,-4.99998 L 431.124,-4.99998 L 431.124,-3.60001 z
M 361.462,-3.60001 L 361.462,-4.99998 L 364.862,-4.99998 L 364.862,-3.60001 z
M 444.29,-3.60001 L 444.29,-4.99998 L 447.69,-4.99998 L 447.69,-3.60001 z
M 344.896,-3.60001 L 344.896,-4.99998 L 348.296,-4.99998 L 348.296,-3.60001 z
M 278.633,-3.60001 L 278.633,-4.99998 L 282.033,-4.99998 L 282.033,-3.60001 z
M 477.421,-3.60001 L 477.421,-4.99998 L 480.821,-4.99998 L 480.821,-3.60001 z
M 162.674,-3.60001 L 162.674,-4.99998 L 166.074,-4.99998 L 166.074,-3.60001 z
M 493.987,-3.60001 L 493.987,-4.99998 L 497.387,-4.99998 L 497.387,-3.60001 z
M 808.734,-3.60001 L 808.734,-4.99998 L 812.134,-4.99998 L 812.134,-3.60001 z
M 228.936,-3.60001 L 228.936,-4.99998 L 232.336,-4.99998 L 232.336,-3.60001 z
M 245.502,-3.60001 L 245.502,-4.99998 L 248.902,-4.99998 L 248.902,-3.60001 z
M 759.037,-3.60001 L 759.037,-4.99998 L 762.437,-4.99998 L 762.437,-3.60001 z
M 742.472,-3.60001 L 742.472,-4.99998 L 745.872,-4.99998 L 745.872,-3.60001 z
M 79.8454,-3.60001 L 79.8454,-4.99998 L 83.2455,-4.99998 L 83.2455,-3.60001 z
M 775.603,-3.60001 L 775.603,-4.99998 L 779.003,-4.99998 L 779.003,-3.60001 z
M 792.169,-3.60001 L 792.169,-4.99998 L 795.569,-4.99998 L 795.569,-3.60001 z
M 593.381,-3.60001 L 593.381,-4.99998 L 596.781,-4.99998 L 596.781,-3.60001 z
M 195.805,-3.60001 L 195.805,-4.99998 L 199.205,-4.99998 L 199.205,-3.60001 z
M 841.866,-3.60001 L 841.866,-4.99998 L 845.266,-4.99998 L 845.266,-3.60001 z
M 63.2798,-3.60001 L 63.2798,-4.99998 L 66.6798,-4.99998 L 66.6798,-3.60001 z
M 179.239,-3.60001 L 179.239,-4.99998 L 182.639,-4.99998 L 182.639,-3.60001 z
M 725.906,-3.60001 L 725.906,-4.99998 L 729.306,-4.99998 L 729.306,-3.60001 z
M 659.643,-3.60001 L 659.643,-4.99998 L 663.043,-4.99998 L 663.043,-3.60001 z
M 692.775,-3.60001 L 692.775,-4.99998 L 696.175,-4.99998 L 696.175,-3.60001 z
" stroke="black" fill="lightgray" stroke-width="0.5"/></svg>
