<?xml version="1.0" standalone="no"?>
<!DOCTYPE svg PUBLIC "-//W3C//DTD SVG 1.1//EN" "http://www.w3.org/Graphics/SVG/1.1/DTD/svg11.dtd">
<svg width="1220" height="610" viewBox="-1194 202 1118 202" xmlns="http://www.w3.org/2000/svg" version="1.1">
<title>OpenSCAD Model</title>
<path d="
M 1415,-108 L 1421,-108 L 1421,-102 L 1427,-102 L 1427,-108 L 1433,-108
 L 1433,-102 L 1439,-102 L 1439,-108 L 1445,-108 L 1445,-102 L 1451,-102
 L 1451,-108 L 1457,-108 L 1457,-102 L 1463,-102 L 1463,-108 L 1469,-108
 L 1469,-102 L 1475,-102 L 1475,-108 L 1481,-108 L 1481,-102 L 1487,-102
 L 1487,-108 L 1498,-108 L 1498,-113 L 1492,-113 L 1492,-119 L 1498,-119
 L 1498,-125 L 1492,-125 L 1492,-131 L 1498,-131 L 1498,-137 L 1492,-137
 L 1492,-143 L 1498,-143 L 1498,-149 L 1492,-149 L 1492,-155 L 1498,-155
 L 1498,-161 L 1492,-161 L 1492,-167 L 1498,-167 L 1498,-173 L 1492,-173
 L 1492,-179 L 1498,-179 L 1498,-185 L 1492,-185 L 1492,-191 L 1498,-191
 L 1498,-202 L 1398,-202 L 1398,-191 L 1404,-191 L 1404,-185 L 1398,-185
 L 1398,-179 L 1404,-179 L 1404,-173 L 1398,-173 L 1398,-167 L 1404,-167
 L 1404,-161 L 1398,-161 L 1398,-155 L 1404,-155 L 1404,-149 L 1398,-149
 L 1398,-143 L 1404,-143 L 1404,-137 L 1398,-137 L 1398,-131 L 1404,-131
 L 1404,-125 L 1398,-125 L 1398,-119 L 1404,-119 L 1404,-113 L 1398,-113
 L 1398,-108 L 1409,-108 L 1409,-102 L 1415,-102 z
M 1513,-108 L 1519,-108 L 1519,-102 L 1525,-102 L 1525,-108 L 1531,-108
 L 1531,-102 L 1537,-102 L 1537,-108 L 1543,-108 L 1543,-102 L 1549,-102
 L 1549,-108 L 1555,-108 L 1555,-102 L 1561,-102 L 1561,-108 L 1567,-108
 L 1567,-102 L 1573,-102 L 1573,-108 L 1579,-108 L 1579,-102 L 1585,-102
 L 1585,-108 L 1591,-108 L 1591,-102 L 1597,-102 L 1597,-108 L 1603,-108
 L 1603,-102 L 1609,-102 L 1609,-108 L 1615,-108 L 1615,-102 L 1621,-102
 L 1621,-108 L 1627,-108 L 1627,-102 L 1633,-102 L 1633,-108 L 1639,-108
 L 1639,-102 L 1645,-102 L 1645,-108 L 1651,-108 L 1651,-102 L 1657,-102
 L 1657,-108 L 1663,-108 L 1663,-102 L 1669,-102 L 1669,-108 L 1675,-108
 L 1675,-102 L 1681,-102 L 1681,-108 L 1687,-108 L 1687,-102 L 1693,-102
 L 1693,-108 L 1694,-108 L 1694,-113 L 1700,-113 L 1700,-119 L 1694,-119
 L 1694,-125 L 1700,-125 L 1700,-131 L 1694,-131 L 1694,-137 L 1700,-137
 L 1700,-143 L 1694,-143 L 1694,-149 L 1700,-149 L 1700,-155 L 1694,-155
 L 1694,-161 L 1700,-161 L 1700,-167 L 1694,-167 L 1694,-173 L 1700,-173
 L 1700,-179 L 1694,-179 L 1694,-185 L 1700,-185 L 1700,-191 L 1694,-191
 L 1694,-202 L 1506,-202 L 1506,-191 L 1500,-191 L 1500,-185 L 1506,-185
 L 1506,-179 L 1500,-179 L 1500,-173 L 1506,-173 L 1506,-167 L 1500,-167
 L 1500,-161 L 1506,-161 L 1506,-155 L 1500,-155 L 1500,-149 L 1506,-149
 L 1506,-143 L 1500,-143 L 1500,-137 L 1506,-137 L 1506,-131 L 1500,-131
 L 1500,-125 L 1506,-125 L 1506,-119 L 1500,-119 L 1500,-113 L 1506,-113
 L 1506,-108 L 1507,-108 L 1507,-102 L 1513,-102 z
M 1598.54,-173.119 L 1596.67,-173.639 L 1594.95,-174.551 L 1593.47,-175.811 L 1592.29,-177.36 L 1591.47,-179.126
 L 1591.05,-181.027 L 1591.05,-182.973 L 1591.47,-184.874 L 1592.29,-186.64 L 1593.47,-188.189 L 1594.95,-189.449
 L 1596.67,-190.361 L 1598.54,-190.881 L 1600.49,-190.987 L 1602.41,-190.672 L 1604.22,-189.952 L 1605.83,-188.859
 L 1607.16,-187.447 L 1608.17,-185.779 L 1608.79,-183.935 L 1609,-182 L 1608.79,-180.065 L 1608.17,-178.221
 L 1607.16,-176.553 L 1605.83,-175.141 L 1604.22,-174.048 L 1602.41,-173.328 L 1600.49,-173.013 z
M 1313,-108 L 1319,-108 L 1319,-102 L 1325,-102 L 1325,-108 L 1331,-108
 L 1331,-102 L 1337,-102 L 1337,-108 L 1343,-108 L 1343,-102 L 1349,-102
 L 1349,-108 L 1355,-108 L 1355,-102 L 1361,-102 L 1361,-108 L 1367,-108
 L 1367,-102 L 1373,-102 L 1373,-108 L 1379,-108 L 1379,-102 L 1385,-102
 L 1385,-108 L 1396,-108 L 1396,-113 L 1390,-113 L 1390,-119 L 1396,-119
 L 1396,-125 L 1390,-125 L 1390,-131 L 1396,-131 L 1396,-137 L 1390,-137
 L 1390,-143 L 1396,-143 L 1396,-149 L 1390,-149 L 1390,-155 L 1396,-155
 L 1396,-161 L 1390,-161 L 1390,-167 L 1396,-167 L 1396,-173 L 1390,-173
 L 1390,-179 L 1396,-179 L 1396,-185 L 1390,-185 L 1390,-191 L 1396,-191
 L 1396,-202 L 1298,-202 L 1298,-191 L 1302,-191 L 1302,-185 L 1298,-185
 L 1298,-179 L 1302,-179 L 1302,-173 L 1298,-173 L 1298,-167 L 1302,-167
 L 1302,-161 L 1298,-161 L 1298,-155 L 1302,-155 L 1302,-149 L 1298,-149
 L 1298,-143 L 1302,-143 L 1302,-137 L 1298,-137 L 1298,-131 L 1302,-131
 L 1302,-125 L 1298,-125 L 1298,-119 L 1302,-119 L 1302,-113 L 1298,-113
 L 1298,-108 L 1307,-108 L 1307,-102 L 1313,-102 z
M 1715,-108 L 1721,-108 L 1721,-102 L 1727,-102 L 1727,-108 L 1733,-108
 L 1733,-102 L 1739,-102 L 1739,-108 L 1745,-108 L 1745,-102 L 1751,-102
 L 1751,-108 L 1757,-108 L 1757,-102 L 1763,-102 L 1763,-108 L 1769,-108
 L 1769,-102 L 1775,-102 L 1775,-108 L 1781,-108 L 1781,-102 L 1787,-102
 L 1787,-108 L 1793,-108 L 1793,-102 L 1799,-102 L 1799,-108 L 1805,-108
 L 1805,-102 L 1811,-102 L 1811,-108 L 1817,-108 L 1817,-102 L 1823,-102
 L 1823,-108 L 1829,-108 L 1829,-102 L 1835,-102 L 1835,-108 L 1841,-108
 L 1841,-102 L 1847,-102 L 1847,-108 L 1853,-108 L 1853,-102 L 1859,-102
 L 1859,-108 L 1865,-108 L 1865,-102 L 1871,-102 L 1871,-108 L 1877,-108
 L 1877,-102 L 1883,-102 L 1883,-108 L 1889,-108 L 1889,-102 L 1895,-102
 L 1895,-108 L 1896,-108 L 1896,-113 L 1902,-113 L 1902,-119 L 1896,-119
 L 1896,-125 L 1902,-125 L 1902,-131 L 1896,-131 L 1896,-137 L 1902,-137
 L 1902,-143 L 1896,-143 L 1896,-149 L 1902,-149 L 1902,-155 L 1896,-155
 L 1896,-161 L 1902,-161 L 1902,-167 L 1896,-167 L 1896,-173 L 1902,-173
 L 1902,-179 L 1896,-179 L 1896,-185 L 1902,-185 L 1902,-191 L 1896,-191
 L 1896,-202 L 1708,-202 L 1708,-191 L 1702,-191 L 1702,-185 L 1708,-185
 L 1708,-179 L 1702,-179 L 1702,-173 L 1708,-173 L 1708,-167 L 1702,-167
 L 1702,-161 L 1708,-161 L 1708,-155 L 1702,-155 L 1702,-149 L 1708,-149
 L 1708,-143 L 1702,-143 L 1702,-137 L 1708,-137 L 1708,-131 L 1702,-131
 L 1702,-125 L 1708,-125 L 1708,-119 L 1702,-119 L 1702,-113 L 1708,-113
 L 1708,-108 L 1709,-108 L 1709,-102 L 1715,-102 z
M 1205,-6 L 1211,-6 L 1211,-0 L 1217,-0 L 1217,-6 L 1223,-6
 L 1223,-0 L 1229,-0 L 1229,-6 L 1235,-6 L 1235,-0 L 1241,-0
 L 1241,-6 L 1247,-6 L 1247,-0 L 1253,-0 L 1253,-6 L 1259,-6
 L 1259,-0 L 1265,-0 L 1265,-6 L 1271,-6 L 1271,-0 L 1277,-0
 L 1277,-6 L 1283,-6 L 1283,-0 L 1294,-0 L 1294,-7 L 1288,-7
 L 1288,-13 L 1294,-13 L 1294,-19 L 1288,-19 L 1288,-25 L 1294,-25
 L 1294,-31 L 1288,-31 L 1288,-37 L 1294,-37 L 1294,-43 L 1288,-43
 L 1288,-49 L 1294,-49 L 1294,-55 L 1288,-55 L 1288,-61 L 1294,-61
 L 1294,-67 L 1288,-67 L 1288,-73 L 1294,-73 L 1294,-79 L 1288,-79
 L 1288,-85 L 1294,-85 L 1294,-91 L 1288,-91 L 1288,-97 L 1294,-97
 L 1294,-103 L 1288,-103 L 1288,-109 L 1294,-109 L 1294,-115 L 1288,-115
 L 1288,-121 L 1294,-121 L 1294,-127 L 1288,-127 L 1288,-133 L 1294,-133
 L 1294,-139 L 1288,-139 L 1288,-145 L 1294,-145 L 1294,-151 L 1288,-151
 L 1288,-157 L 1294,-157 L 1294,-163 L 1288,-163 L 1288,-169 L 1294,-169
 L 1294,-175 L 1288,-175 L 1288,-181 L 1294,-181 L 1294,-187 L 1288,-187
 L 1288,-193 L 1294,-193 L 1294,-200 L 1283,-200 L 1283,-194 L 1277,-194
 L 1277,-200 L 1271,-200 L 1271,-194 L 1265,-194 L 1265,-200 L 1259,-200
 L 1259,-194 L 1253,-194 L 1253,-200 L 1247,-200 L 1247,-194 L 1241,-194
 L 1241,-200 L 1235,-200 L 1235,-194 L 1229,-194 L 1229,-200 L 1223,-200
 L 1223,-194 L 1217,-194 L 1217,-200 L 1211,-200 L 1211,-194 L 1205,-194
 L 1205,-200 L 1194,-200 L 1194,-193 L 1200,-193 L 1200,-187 L 1194,-187
 L 1194,-181 L 1200,-181 L 1200,-175 L 1194,-175 L 1194,-169 L 1200,-169
 L 1200,-163 L 1194,-163 L 1194,-157 L 1200,-157 L 1200,-151 L 1194,-151
 L 1194,-145 L 1200,-145 L 1200,-139 L 1194,-139 L 1194,-133 L 1200,-133
 L 1200,-127 L 1194,-127 L 1194,-121 L 1200,-121 L 1200,-115 L 1194,-115
 L 1194,-109 L 1200,-109 L 1200,-103 L 1194,-103 L 1194,-97 L 1200,-97
 L 1200,-91 L 1194,-91 L 1194,-85 L 1200,-85 L 1200,-79 L 1194,-79
 L 1194,-73 L 1200,-73 L 1200,-67 L 1194,-67 L 1194,-61 L 1200,-61
 L 1200,-55 L 1194,-55 L 1194,-49 L 1200,-49 L 1200,-43 L 1194,-43
 L 1194,-37 L 1200,-37 L 1200,-31 L 1194,-31 L 1194,-25 L 1200,-25
 L 1200,-19 L 1194,-19 L 1194,-13 L 1200,-13 L 1200,-7 L 1194,-7
 L 1194,-0 L 1205,-0 z
M 1923,-6 L 1929,-6 L 1929,-0 L 1935,-0 L 1935,-6 L 1941,-6
 L 1941,-0 L 1947,-0 L 1947,-6 L 1953,-6 L 1953,-0 L 1959,-0
 L 1959,-6 L 1965,-6 L 1965,-0 L 1971,-0 L 1971,-6 L 1977,-6
 L 1977,-0 L 1983,-0 L 1983,-6 L 1989,-6 L 1989,-0 L 1995,-0
 L 1995,-6 L 2006,-6 L 2006,-7 L 2000,-7 L 2000,-13 L 2006,-13
 L 2006,-19 L 2000,-19 L 2000,-25 L 2006,-25 L 2006,-31 L 2000,-31
 L 2000,-37 L 2006,-37 L 2006,-43 L 2000,-43 L 2000,-49 L 2006,-49
 L 2006,-55 L 2000,-55 L 2000,-61 L 2006,-61 L 2006,-67 L 2000,-67
 L 2000,-73 L 2006,-73 L 2006,-79 L 2000,-79 L 2000,-85 L 2006,-85
 L 2006,-91 L 2000,-91 L 2000,-97 L 2006,-97 L 2006,-103 L 2000,-103
 L 2000,-109 L 2006,-109 L 2006,-115 L 2000,-115 L 2000,-121 L 2006,-121
 L 2006,-127 L 2000,-127 L 2000,-133 L 2006,-133 L 2006,-139 L 2000,-139
 L 2000,-145 L 2006,-145 L 2006,-151 L 2000,-151 L 2000,-157 L 2006,-157
 L 2006,-163 L 2000,-163 L 2000,-169 L 2006,-169 L 2006,-175 L 2000,-175
 L 2000,-181 L 2006,-181 L 2006,-187 L 2000,-187 L 2000,-193 L 2006,-193
 L 2006,-200 L 1906,-200 L 1906,-193 L 1912,-193 L 1912,-187 L 1906,-187
 L 1906,-181 L 1912,-181 L 1912,-175 L 1906,-175 L 1906,-169 L 1912,-169
 L 1912,-163 L 1906,-163 L 1906,-157 L 1912,-157 L 1912,-151 L 1906,-151
 L 1906,-145 L 1912,-145 L 1912,-139 L 1906,-139 L 1906,-133 L 1912,-133
 L 1912,-127 L 1906,-127 L 1906,-121 L 1912,-121 L 1912,-115 L 1906,-115
 L 1906,-109 L 1912,-109 L 1912,-103 L 1906,-103 L 1906,-97 L 1912,-97
 L 1912,-91 L 1906,-91 L 1906,-85 L 1912,-85 L 1912,-79 L 1906,-79
 L 1906,-73 L 1912,-73 L 1912,-67 L 1906,-67 L 1906,-61 L 1912,-61
 L 1912,-55 L 1906,-55 L 1906,-49 L 1912,-49 L 1912,-43 L 1906,-43
 L 1906,-37 L 1912,-37 L 1912,-31 L 1906,-31 L 1906,-25 L 1912,-25
 L 1912,-19 L 1906,-19 L 1906,-13 L 1912,-13 L 1912,-7 L 1906,-7
 L 1906,-6 L 1917,-6 L 1917,-0 L 1923,-0 z
M 2025,-6 L 2031,-6 L 2031,-0 L 2037,-0 L 2037,-6 L 2043,-6
 L 2043,-0 L 2049,-0 L 2049,-6 L 2055,-6 L 2055,-0 L 2061,-0
 L 2061,-6 L 2067,-6 L 2067,-0 L 2073,-0 L 2073,-6 L 2079,-6
 L 2079,-0 L 2085,-0 L 2085,-6 L 2091,-6 L 2091,-0 L 2097,-0
 L 2097,-6 L 2108,-6 L 2108,-7 L 2102,-7 L 2102,-13 L 2108,-13
 L 2108,-19 L 2102,-19 L 2102,-25 L 2108,-25 L 2108,-31 L 2102,-31
 L 2102,-37 L 2108,-37 L 2108,-43 L 2102,-43 L 2102,-49 L 2108,-49
 L 2108,-55 L 2102,-55 L 2102,-61 L 2108,-61 L 2108,-67 L 2102,-67
 L 2102,-73 L 2108,-73 L 2108,-79 L 2102,-79 L 2102,-85 L 2108,-85
 L 2108,-91 L 2102,-91 L 2102,-97 L 2108,-97 L 2108,-103 L 2102,-103
 L 2102,-109 L 2108,-109 L 2108,-115 L 2102,-115 L 2102,-121 L 2108,-121
 L 2108,-127 L 2102,-127 L 2102,-133 L 2108,-133 L 2108,-139 L 2102,-139
 L 2102,-145 L 2108,-145 L 2108,-151 L 2102,-151 L 2102,-157 L 2108,-157
 L 2108,-163 L 2102,-163 L 2102,-169 L 2108,-169 L 2108,-175 L 2102,-175
 L 2102,-181 L 2108,-181 L 2108,-187 L 2102,-187 L 2102,-193 L 2108,-193
 L 2108,-200 L 2008,-200 L 2008,-193 L 2014,-193 L 2014,-187 L 2008,-187
 L 2008,-181 L 2014,-181 L 2014,-175 L 2008,-175 L 2008,-169 L 2014,-169
 L 2014,-163 L 2008,-163 L 2008,-157 L 2014,-157 L 2014,-151 L 2008,-151
 L 2008,-145 L 2014,-145 L 2014,-139 L 2008,-139 L 2008,-133 L 2014,-133
 L 2014,-127 L 2008,-127 L 2008,-121 L 2014,-121 L 2014,-115 L 2008,-115
 L 2008,-109 L 2014,-109 L 2014,-103 L 2008,-103 L 2008,-97 L 2014,-97
 L 2014,-91 L 2008,-91 L 2008,-85 L 2014,-85 L 2014,-79 L 2008,-79
 L 2008,-73 L 2014,-73 L 2014,-67 L 2008,-67 L 2008,-61 L 2014,-61
 L 2014,-55 L 2008,-55 L 2008,-49 L 2014,-49 L 2014,-43 L 2008,-43
 L 2008,-37 L 2014,-37 L 2014,-31 L 2008,-31 L 2008,-25 L 2014,-25
 L 2014,-19 L 2008,-19 L 2008,-13 L 2014,-13 L 2014,-7 L 2008,-7
 L 2008,-6 L 2019,-6 L 2019,-0 L 2025,-0 z
M 2229,-6 L 2235,-6 L 2235,-0 L 2241,-0 L 2241,-6 L 2247,-6
 L 2247,-0 L 2253,-0 L 2253,-6 L 2259,-6 L 2259,-0 L 2265,-0
 L 2265,-6 L 2271,-6 L 2271,-0 L 2277,-0 L 2277,-6 L 2283,-6
 L 2283,-0 L 2289,-0 L 2289,-6 L 2295,-6 L 2295,-0 L 2301,-0
 L 2301,-6 L 2306,-6 L 2306,-7 L 2312,-7 L 2312,-13 L 2306,-13
 L 2306,-19 L 2312,-19 L 2312,-25 L 2306,-25 L 2306,-31 L 2312,-31
 L 2312,-37 L 2306,-37 L 2306,-43 L 2312,-43 L 2312,-49 L 2306,-49
 L 2306,-55 L 2312,-55 L 2312,-61 L 2306,-61 L 2306,-67 L 2312,-67
 L 2312,-73 L 2306,-73 L 2306,-79 L 2312,-79 L 2312,-85 L 2306,-85
 L 2306,-91 L 2312,-91 L 2312,-97 L 2306,-97 L 2306,-103 L 2312,-103
 L 2312,-109 L 2306,-109 L 2306,-115 L 2312,-115 L 2312,-121 L 2306,-121
 L 2306,-127 L 2312,-127 L 2312,-133 L 2306,-133 L 2306,-139 L 2312,-139
 L 2312,-145 L 2306,-145 L 2306,-151 L 2312,-151 L 2312,-157 L 2306,-157
 L 2306,-163 L 2312,-163 L 2312,-169 L 2306,-169 L 2306,-175 L 2312,-175
 L 2312,-181 L 2306,-181 L 2306,-187 L 2312,-187 L 2312,-193 L 2306,-193
 L 2306,-200 L 2218,-200 L 2218,-193 L 2212,-193 L 2212,-187 L 2218,-187
 L 2218,-181 L 2212,-181 L 2212,-175 L 2218,-175 L 2218,-169 L 2212,-169
 L 2212,-163 L 2218,-163 L 2218,-157 L 2212,-157 L 2212,-151 L 2218,-151
 L 2218,-145 L 2212,-145 L 2212,-139 L 2218,-139 L 2218,-133 L 2212,-133
 L 2212,-127 L 2218,-127 L 2218,-121 L 2212,-121 L 2212,-115 L 2218,-115
 L 2218,-109 L 2212,-109 L 2212,-103 L 2218,-103 L 2218,-97 L 2212,-97
 L 2212,-91 L 2218,-91 L 2218,-85 L 2212,-85 L 2212,-79 L 2218,-79
 L 2218,-73 L 2212,-73 L 2212,-67 L 2218,-67 L 2218,-61 L 2212,-61
 L 2212,-55 L 2218,-55 L 2218,-49 L 2212,-49 L 2212,-43 L 2218,-43
 L 2218,-37 L 2212,-37 L 2212,-31 L 2218,-31 L 2218,-25 L 2212,-25
 L 2212,-19 L 2218,-19 L 2218,-13 L 2212,-13 L 2212,-7 L 2218,-7
 L 2218,-6 L 2223,-6 L 2223,-0 L 2229,-0 z
M 2127,-6 L 2133,-6 L 2133,-0 L 2139,-0 L 2139,-6 L 2145,-6
 L 2145,-0 L 2151,-0 L 2151,-6 L 2157,-6 L 2157,-0 L 2163,-0
 L 2163,-6 L 2169,-6 L 2169,-0 L 2175,-0 L 2175,-6 L 2181,-6
 L 2181,-0 L 2187,-0 L 2187,-6 L 2193,-6 L 2193,-0 L 2199,-0
 L 2199,-6 L 2204,-6 L 2204,-7 L 2210,-7 L 2210,-13 L 2204,-13
 L 2204,-19 L 2210,-19 L 2210,-25 L 2204,-25 L 2204,-31 L 2210,-31
 L 2210,-37 L 2204,-37 L 2204,-43 L 2210,-43 L 2210,-49 L 2204,-49
 L 2204,-55 L 2210,-55 L 2210,-61 L 2204,-61 L 2204,-67 L 2210,-67
 L 2210,-73 L 2204,-73 L 2204,-79 L 2210,-79 L 2210,-85 L 2204,-85
 L 2204,-91 L 2210,-91 L 2210,-97 L 2204,-97 L 2204,-103 L 2210,-103
 L 2210,-109 L 2204,-109 L 2204,-115 L 2210,-115 L 2210,-121 L 2204,-121
 L 2204,-127 L 2210,-127 L 2210,-133 L 2204,-133 L 2204,-139 L 2210,-139
 L 2210,-145 L 2204,-145 L 2204,-151 L 2210,-151 L 2210,-157 L 2204,-157
 L 2204,-163 L 2210,-163 L 2210,-169 L 2204,-169 L 2204,-175 L 2210,-175
 L 2210,-181 L 2204,-181 L 2204,-187 L 2210,-187 L 2210,-193 L 2204,-193
 L 2204,-200 L 2116,-200 L 2116,-193 L 2110,-193 L 2110,-187 L 2116,-187
 L 2116,-181 L 2110,-181 L 2110,-175 L 2116,-175 L 2116,-169 L 2110,-169
 L 2110,-163 L 2116,-163 L 2116,-157 L 2110,-157 L 2110,-151 L 2116,-151
 L 2116,-145 L 2110,-145 L 2110,-139 L 2116,-139 L 2116,-133 L 2110,-133
 L 2110,-127 L 2116,-127 L 2116,-121 L 2110,-121 L 2110,-115 L 2116,-115
 L 2116,-109 L 2110,-109 L 2110,-103 L 2116,-103 L 2116,-97 L 2110,-97
 L 2110,-91 L 2116,-91 L 2116,-85 L 2110,-85 L 2110,-79 L 2116,-79
 L 2116,-73 L 2110,-73 L 2110,-67 L 2116,-67 L 2116,-61 L 2110,-61
 L 2110,-55 L 2116,-55 L 2116,-49 L 2110,-49 L 2110,-43 L 2116,-43
 L 2116,-37 L 2110,-37 L 2110,-31 L 2116,-31 L 2116,-25 L 2110,-25
 L 2110,-19 L 2116,-19 L 2116,-13 L 2110,-13 L 2110,-7 L 2116,-7
 L 2116,-6 L 2121,-6 L 2121,-0 L 2127,-0 z
M 2158.54,-171.119 L 2156.67,-171.639 L 2154.95,-172.551 L 2153.47,-173.811 L 2152.29,-175.36 L 2151.47,-177.126
 L 2151.05,-179.027 L 2151.05,-180.973 L 2151.47,-182.874 L 2152.29,-184.64 L 2153.47,-186.189 L 2154.95,-187.449
 L 2156.67,-188.361 L 2158.54,-188.881 L 2160.49,-188.987 L 2162.41,-188.672 L 2164.22,-187.952 L 2165.83,-186.859
 L 2167.16,-185.447 L 2168.17,-183.779 L 2168.79,-181.935 L 2169,-180 L 2168.79,-178.065 L 2168.17,-176.221
 L 2167.16,-174.553 L 2165.83,-173.141 L 2164.22,-172.048 L 2162.41,-171.328 L 2160.49,-171.013 z
M 1619,-6 L 1625,-6 L 1625,-0 L 1631,-0 L 1631,-6 L 1637,-6
 L 1637,-0 L 1643,-0 L 1643,-6 L 1649,-6 L 1649,-0 L 1655,-0
 L 1655,-6 L 1661,-6 L 1661,-0 L 1667,-0 L 1667,-6 L 1673,-6
 L 1673,-0 L 1679,-0 L 1679,-6 L 1685,-6 L 1685,-0 L 1691,-0
 L 1691,-6 L 1696,-6 L 1696,-11 L 1702,-11 L 1702,-17 L 1696,-17
 L 1696,-23 L 1702,-23 L 1702,-29 L 1696,-29 L 1696,-35 L 1702,-35
 L 1702,-41 L 1696,-41 L 1696,-47 L 1702,-47 L 1702,-53 L 1696,-53
 L 1696,-59 L 1702,-59 L 1702,-65 L 1696,-65 L 1696,-71 L 1702,-71
 L 1702,-77 L 1696,-77 L 1696,-83 L 1702,-83 L 1702,-89 L 1696,-89
 L 1696,-100 L 1608,-100 L 1608,-89 L 1602,-89 L 1602,-83 L 1608,-83
 L 1608,-77 L 1602,-77 L 1602,-71 L 1608,-71 L 1608,-65 L 1602,-65
 L 1602,-59 L 1608,-59 L 1608,-53 L 1602,-53 L 1602,-47 L 1608,-47
 L 1608,-41 L 1602,-41 L 1602,-35 L 1608,-35 L 1608,-29 L 1602,-29
 L 1602,-23 L 1608,-23 L 1608,-17 L 1602,-17 L 1602,-11 L 1608,-11
 L 1608,-6 L 1613,-6 L 1613,-0 L 1619,-0 z
M 1650.54,-71.1186 L 1648.67,-71.6392 L 1646.95,-72.5508 L 1645.47,-73.8107 L 1644.29,-75.36 L 1643.47,-77.1263
 L 1643.05,-79.0269 L 1643.05,-80.9731 L 1643.47,-82.8737 L 1644.29,-84.64 L 1645.47,-86.1893 L 1646.95,-87.4492
 L 1648.67,-88.3608 L 1650.54,-88.8814 L 1652.49,-88.9868 L 1654.41,-88.6719 L 1656.22,-87.9516 L 1657.83,-86.8595
 L 1659.16,-85.4466 L 1660.17,-83.779 L 1660.79,-81.9347 L 1661,-80 L 1660.79,-78.0653 L 1660.17,-76.221
 L 1659.16,-74.5534 L 1657.83,-73.1405 L 1656.22,-72.0484 L 1654.41,-71.328 L 1652.49,-71.0132 z
M 1307,-6 L 1313,-6 L 1313,-0 L 1319,-0 L 1319,-6 L 1325,-6
 L 1325,-0 L 1331,-0 L 1331,-6 L 1337,-6 L 1337,-0 L 1343,-0
 L 1343,-6 L 1349,-6 L 1349,-0 L 1355,-0 L 1355,-6 L 1361,-6
 L 1361,-0 L 1367,-0 L 1367,-6 L 1373,-6 L 1373,-0 L 1379,-0
 L 1379,-6 L 1385,-6 L 1385,-0 L 1396,-0 L 1396,-11 L 1390,-11
 L 1390,-17 L 1396,-17 L 1396,-23 L 1390,-23 L 1390,-29 L 1396,-29
 L 1396,-35 L 1390,-35 L 1390,-41 L 1396,-41 L 1396,-47 L 1390,-47
 L 1390,-53 L 1396,-53 L 1396,-59 L 1390,-59 L 1390,-65 L 1396,-65
 L 1396,-71 L 1390,-71 L 1390,-77 L 1396,-77 L 1396,-83 L 1390,-83
 L 1390,-89 L 1396,-89 L 1396,-100 L 1385,-100 L 1385,-94 L 1379,-94
 L 1379,-100 L 1373,-100 L 1373,-94 L 1367,-94 L 1367,-100 L 1361,-100
 L 1361,-94 L 1355,-94 L 1355,-100 L 1349,-100 L 1349,-94 L 1343,-94
 L 1343,-100 L 1337,-100 L 1337,-94 L 1331,-94 L 1331,-100 L 1325,-100
 L 1325,-94 L 1319,-94 L 1319,-100 L 1313,-100 L 1313,-94 L 1307,-94
 L 1307,-100 L 1296,-100 L 1296,-89 L 1302,-89 L 1302,-83 L 1296,-83
 L 1296,-77 L 1302,-77 L 1302,-71 L 1296,-71 L 1296,-65 L 1302,-65
 L 1302,-59 L 1296,-59 L 1296,-53 L 1302,-53 L 1302,-47 L 1296,-47
 L 1296,-41 L 1302,-41 L 1302,-35 L 1296,-35 L 1296,-29 L 1302,-29
 L 1302,-23 L 1296,-23 L 1296,-17 L 1302,-17 L 1302,-11 L 1296,-11
 L 1296,-0 L 1307,-0 z
M 1517,-6 L 1523,-6 L 1523,-0 L 1529,-0 L 1529,-6 L 1535,-6
 L 1535,-0 L 1541,-0 L 1541,-6 L 1547,-6 L 1547,-0 L 1553,-0
 L 1553,-6 L 1559,-6 L 1559,-0 L 1565,-0 L 1565,-6 L 1571,-6
 L 1571,-0 L 1577,-0 L 1577,-6 L 1583,-6 L 1583,-0 L 1589,-0
 L 1589,-6 L 1600,-6 L 1600,-11 L 1594,-11 L 1594,-17 L 1600,-17
 L 1600,-23 L 1594,-23 L 1594,-29 L 1600,-29 L 1600,-35 L 1594,-35
 L 1594,-41 L 1600,-41 L 1600,-47 L 1594,-47 L 1594,-53 L 1600,-53
 L 1600,-59 L 1594,-59 L 1594,-65 L 1600,-65 L 1600,-71 L 1594,-71
 L 1594,-77 L 1600,-77 L 1600,-83 L 1594,-83 L 1594,-89 L 1600,-89
 L 1600,-100 L 1500,-100 L 1500,-89 L 1506,-89 L 1506,-83 L 1500,-83
 L 1500,-77 L 1506,-77 L 1506,-71 L 1500,-71 L 1500,-65 L 1506,-65
 L 1506,-59 L 1500,-59 L 1500,-53 L 1506,-53 L 1506,-47 L 1500,-47
 L 1500,-41 L 1506,-41 L 1506,-35 L 1500,-35 L 1500,-29 L 1506,-29
 L 1506,-23 L 1500,-23 L 1500,-17 L 1506,-17 L 1506,-11 L 1500,-11
 L 1500,-6 L 1511,-6 L 1511,-0 L 1517,-0 z
M 1415,-6 L 1421,-6 L 1421,-0 L 1427,-0 L 1427,-6 L 1433,-6
 L 1433,-0 L 1439,-0 L 1439,-6 L 1445,-6 L 1445,-0 L 1451,-0
 L 1451,-6 L 1457,-6 L 1457,-0 L 1463,-0 L 1463,-6 L 1469,-6
 L 1469,-0 L 1475,-0 L 1475,-6 L 1481,-6 L 1481,-0 L 1487,-0
 L 1487,-6 L 1498,-6 L 1498,-11 L 1492,-11 L 1492,-17 L 1498,-17
 L 1498,-23 L 1492,-23 L 1492,-29 L 1498,-29 L 1498,-35 L 1492,-35
 L 1492,-41 L 1498,-41 L 1498,-47 L 1492,-47 L 1492,-53 L 1498,-53
 L 1498,-59 L 1492,-59 L 1492,-65 L 1498,-65 L 1498,-71 L 1492,-71
 L 1492,-77 L 1498,-77 L 1498,-83 L 1492,-83 L 1492,-89 L 1498,-89
 L 1498,-100 L 1398,-100 L 1398,-89 L 1404,-89 L 1404,-83 L 1398,-83
 L 1398,-77 L 1404,-77 L 1404,-71 L 1398,-71 L 1398,-65 L 1404,-65
 L 1404,-59 L 1398,-59 L 1398,-53 L 1404,-53 L 1404,-47 L 1398,-47
 L 1398,-41 L 1404,-41 L 1404,-35 L 1398,-35 L 1398,-29 L 1404,-29
 L 1404,-23 L 1398,-23 L 1398,-17 L 1404,-17 L 1404,-11 L 1398,-11
 L 1398,-6 L 1409,-6 L 1409,-0 L 1415,-0 z
M 1721,-6 L 1727,-6 L 1727,-0 L 1733,-0 L 1733,-6 L 1739,-6
 L 1739,-0 L 1745,-0 L 1745,-6 L 1751,-6 L 1751,-0 L 1757,-0
 L 1757,-6 L 1763,-6 L 1763,-0 L 1769,-0 L 1769,-6 L 1775,-6
 L 1775,-0 L 1781,-0 L 1781,-6 L 1787,-6 L 1787,-0 L 1793,-0
 L 1793,-6 L 1798,-6 L 1798,-11 L 1804,-11 L 1804,-17 L 1798,-17
 L 1798,-23 L 1804,-23 L 1804,-29 L 1798,-29 L 1798,-35 L 1804,-35
 L 1804,-41 L 1798,-41 L 1798,-47 L 1804,-47 L 1804,-53 L 1798,-53
 L 1798,-59 L 1804,-59 L 1804,-65 L 1798,-65 L 1798,-71 L 1804,-71
 L 1804,-77 L 1798,-77 L 1798,-83 L 1804,-83 L 1804,-89 L 1798,-89
 L 1798,-100 L 1710,-100 L 1710,-89 L 1704,-89 L 1704,-83 L 1710,-83
 L 1710,-77 L 1704,-77 L 1704,-71 L 1710,-71 L 1710,-65 L 1704,-65
 L 1704,-59 L 1710,-59 L 1710,-53 L 1704,-53 L 1704,-47 L 1710,-47
 L 1710,-41 L 1704,-41 L 1704,-35 L 1710,-35 L 1710,-29 L 1704,-29
 L 1704,-23 L 1710,-23 L 1710,-17 L 1704,-17 L 1704,-11 L 1710,-11
 L 1710,-6 L 1715,-6 L 1715,-0 L 1721,-0 z
M 1815,-6 L 1821,-6 L 1821,-0 L 1827,-0 L 1827,-6 L 1833,-6
 L 1833,-0 L 1839,-0 L 1839,-6 L 1845,-6 L 1845,-0 L 1851,-0
 L 1851,-6 L 1857,-6 L 1857,-0 L 1863,-0 L 1863,-6 L 1869,-6
 L 1869,-0 L 1875,-0 L 1875,-6 L 1881,-6 L 1881,-0 L 1887,-0
 L 1887,-6 L 1893,-6 L 1893,-0 L 1904,-0 L 1904,-11 L 1898,-11
 L 1898,-17 L 1904,-17 L 1904,-23 L 1898,-23 L 1898,-29 L 1904,-29
 L 1904,-35 L 1898,-35 L 1898,-41 L 1904,-41 L 1904,-47 L 1898,-47
 L 1898,-53 L 1904,-53 L 1904,-59 L 1898,-59 L 1898,-65 L 1904,-65
 L 1904,-71 L 1898,-71 L 1898,-77 L 1904,-77 L 1904,-83 L 1898,-83
 L 1898,-89 L 1904,-89 L 1904,-100 L 1893,-100 L 1893,-94 L 1887,-94
 L 1887,-100 L 1881,-100 L 1881,-94 L 1875,-94 L 1875,-100 L 1869,-100
 L 1869,-94 L 1863,-94 L 1863,-100 L 1857,-100 L 1857,-94 L 1851,-94
 L 1851,-100 L 1845,-100 L 1845,-94 L 1839,-94 L 1839,-100 L 1833,-100
 L 1833,-94 L 1827,-94 L 1827,-100 L 1821,-100 L 1821,-94 L 1815,-94
 L 1815,-100 L 1804,-100 L 1804,-89 L 1810,-89 L 1810,-83 L 1804,-83
 L 1804,-77 L 1810,-77 L 1810,-71 L 1804,-71 L 1804,-65 L 1810,-65
 L 1810,-59 L 1804,-59 L 1804,-53 L 1810,-53 L 1810,-47 L 1804,-47
 L 1804,-41 L 1810,-41 L 1810,-35 L 1804,-35 L 1804,-29 L 1810,-29
 L 1810,-23 L 1804,-23 L 1804,-17 L 1810,-17 L 1810,-11 L 1804,-11
 L 1804,-0 L 1815,-0 z
" stroke="black" fill="lightgray" stroke-width="0.5"/></svg>
