<?xml version="1.0" standalone="no"?>
<!DOCTYPE svg PUBLIC "-//W3C//DTD SVG 1.1//EN" "http://www.w3.org/Graphics/SVG/1.1/DTD/svg11.dtd">
<svg width="1220" height="610" viewBox="0 307 619 307" xmlns="http://www.w3.org/2000/svg" version="1.1">
<title>OpenSCAD Model</title>
<path d="
M 5,-157 L 8,-157 L 8,-154 L 11,-154 L 11,-157 L 14,-157
 L 14,-154 L 17,-154 L 17,-157 L 20,-157 L 20,-154 L 23,-154
 L 23,-157 L 26,-157 L 26,-154 L 29,-154 L 29,-157 L 32,-157
 L 32,-154 L 35,-154 L 35,-157 L 38,-157 L 38,-154 L 41,-154
 L 41,-157 L 44,-157 L 44,-154 L 47,-154 L 47,-157 L 50,-157
 L 50,-154 L 53,-154 L 53,-157 L 56,-157 L 56,-154 L 59,-154
 L 59,-157 L 62,-157 L 62,-154 L 65,-154 L 65,-157 L 68,-157
 L 68,-154 L 71,-154 L 71,-157 L 74,-157 L 74,-154 L 77,-154
 L 77,-157 L 80,-157 L 80,-154 L 83,-154 L 83,-157 L 86,-157
 L 86,-154 L 89,-154 L 89,-157 L 92,-157 L 92,-154 L 95,-154
 L 95,-157 L 98,-157 L 98,-154 L 103,-154 L 103,-157 L 100,-157
 L 100,-160 L 103,-160 L 103,-163 L 100,-163 L 100,-166 L 103,-166
 L 103,-169 L 100,-169 L 100,-172 L 103,-172 L 103,-175 L 100,-175
 L 100,-178 L 103,-178 L 103,-181 L 100,-181 L 100,-184 L 103,-184
 L 103,-187 L 100,-187 L 100,-190 L 103,-190 L 103,-193 L 100,-193
 L 100,-196 L 103,-196 L 103,-199 L 100,-199 L 100,-202 L 103,-202
 L 103,-205 L 100,-205 L 100,-208 L 103,-208 L 103,-211 L 100,-211
 L 100,-214 L 103,-214 L 103,-217 L 100,-217 L 100,-220 L 103,-220
 L 103,-223 L 100,-223 L 100,-226 L 103,-226 L 103,-229 L 100,-229
 L 100,-232 L 103,-232 L 103,-235 L 100,-235 L 100,-238 L 103,-238
 L 103,-241 L 100,-241 L 100,-244 L 103,-244 L 103,-247 L 100,-247
 L 100,-250 L 103,-250 L 103,-253 L 100,-253 L 100,-256 L 103,-256
 L 103,-259 L 100,-259 L 100,-262 L 103,-262 L 103,-265 L 100,-265
 L 100,-268 L 103,-268 L 103,-271 L 100,-271 L 100,-274 L 103,-274
 L 103,-277 L 100,-277 L 100,-280 L 103,-280 L 103,-283 L 100,-283
 L 100,-286 L 103,-286 L 103,-289 L 100,-289 L 100,-292 L 103,-292
 L 103,-295 L 100,-295 L 100,-298 L 103,-298 L 103,-301 L 100,-301
 L 100,-304 L 103,-304 L 103,-307 L 98,-307 L 98,-304 L 95,-304
 L 95,-307 L 92,-307 L 92,-304 L 89,-304 L 89,-307 L 86,-307
 L 86,-304 L 83,-304 L 83,-307 L 80,-307 L 80,-304 L 77,-304
 L 77,-307 L 74,-307 L 74,-304 L 71,-304 L 71,-307 L 68,-307
 L 68,-304 L 65,-304 L 65,-307 L 62,-307 L 62,-304 L 59,-304
 L 59,-307 L 56,-307 L 56,-304 L 53,-304 L 53,-307 L 50,-307
 L 50,-304 L 47,-304 L 47,-307 L 44,-307 L 44,-304 L 41,-304
 L 41,-307 L 38,-307 L 38,-304 L 35,-304 L 35,-307 L 32,-307
 L 32,-304 L 29,-304 L 29,-307 L 26,-307 L 26,-304 L 23,-304
 L 23,-307 L 20,-307 L 20,-304 L 17,-304 L 17,-307 L 14,-307
 L 14,-304 L 11,-304 L 11,-307 L 8,-307 L 8,-304 L 5,-304
 L 5,-307 L 0,-307 L 0,-304 L 3,-304 L 3,-301 L 0,-301
 L 0,-298 L 3,-298 L 3,-295 L 0,-295 L 0,-292 L 3,-292
 L 3,-289 L 0,-289 L 0,-286 L 3,-286 L 3,-283 L 0,-283
 L 0,-280 L 3,-280 L 3,-277 L 0,-277 L 0,-274 L 3,-274
 L 3,-271 L 0,-271 L 0,-268 L 3,-268 L 3,-265 L 0,-265
 L 0,-262 L 3,-262 L 3,-259 L 0,-259 L 0,-256 L 3,-256
 L 3,-253 L 0,-253 L 0,-250 L 3,-250 L 3,-247 L 0,-247
 L 0,-244 L 3,-244 L 3,-241 L 0,-241 L 0,-238 L 3,-238
 L 3,-235 L 0,-235 L 0,-232 L 3,-232 L 3,-229 L 0,-229
 L 0,-226 L 3,-226 L 3,-223 L 0,-223 L 0,-220 L 3,-220
 L 3,-217 L 0,-217 L 0,-214 L 3,-214 L 3,-211 L 0,-211
 L 0,-208 L 3,-208 L 3,-205 L 0,-205 L 0,-202 L 3,-202
 L 3,-199 L 0,-199 L 0,-196 L 3,-196 L 3,-193 L 0,-193
 L 0,-190 L 3,-190 L 3,-187 L 0,-187 L 0,-184 L 3,-184
 L 3,-181 L 0,-181 L 0,-178 L 3,-178 L 3,-175 L 0,-175
 L 0,-172 L 3,-172 L 3,-169 L 0,-169 L 0,-166 L 3,-166
 L 3,-163 L 0,-163 L 0,-160 L 3,-160 L 3,-157 L 0,-157
 L 0,-154 L 5,-154 z
M 5,-3 L 8,-3 L 8,-0 L 11,-0 L 11,-3 L 14,-3
 L 14,-0 L 17,-0 L 17,-3 L 20,-3 L 20,-0 L 23,-0
 L 23,-3 L 26,-3 L 26,-0 L 29,-0 L 29,-3 L 32,-3
 L 32,-0 L 35,-0 L 35,-3 L 38,-3 L 38,-0 L 41,-0
 L 41,-3 L 44,-3 L 44,-0 L 47,-0 L 47,-3 L 50,-3
 L 50,-0 L 53,-0 L 53,-3 L 56,-3 L 56,-0 L 59,-0
 L 59,-3 L 62,-3 L 62,-0 L 65,-0 L 65,-3 L 68,-3
 L 68,-0 L 71,-0 L 71,-3 L 74,-3 L 74,-0 L 77,-0
 L 77,-3 L 80,-3 L 80,-0 L 83,-0 L 83,-3 L 86,-3
 L 86,-0 L 89,-0 L 89,-3 L 92,-3 L 92,-0 L 95,-0
 L 95,-3 L 98,-3 L 98,-0 L 103,-0 L 103,-3 L 100,-3
 L 100,-6 L 103,-6 L 103,-9 L 100,-9 L 100,-12 L 103,-12
 L 103,-15 L 100,-15 L 100,-18 L 103,-18 L 103,-21 L 100,-21
 L 100,-24 L 103,-24 L 103,-27 L 100,-27 L 100,-30 L 103,-30
 L 103,-33 L 100,-33 L 100,-36 L 103,-36 L 103,-39 L 100,-39
 L 100,-42 L 103,-42 L 103,-45 L 100,-45 L 100,-48 L 103,-48
 L 103,-51 L 100,-51 L 100,-54 L 103,-54 L 103,-57 L 100,-57
 L 100,-60 L 103,-60 L 103,-63 L 100,-63 L 100,-66 L 103,-66
 L 103,-69 L 100,-69 L 100,-72 L 103,-72 L 103,-75 L 100,-75
 L 100,-78 L 103,-78 L 103,-81 L 100,-81 L 100,-84 L 103,-84
 L 103,-87 L 100,-87 L 100,-90 L 103,-90 L 103,-93 L 100,-93
 L 100,-96 L 103,-96 L 103,-99 L 100,-99 L 100,-102 L 103,-102
 L 103,-105 L 100,-105 L 100,-108 L 103,-108 L 103,-111 L 100,-111
 L 100,-114 L 103,-114 L 103,-117 L 100,-117 L 100,-120 L 103,-120
 L 103,-123 L 100,-123 L 100,-126 L 103,-126 L 103,-129 L 100,-129
 L 100,-132 L 103,-132 L 103,-135 L 100,-135 L 100,-138 L 103,-138
 L 103,-141 L 100,-141 L 100,-144 L 103,-144 L 103,-147 L 100,-147
 L 100,-150 L 103,-150 L 103,-153 L 98,-153 L 98,-150 L 95,-150
 L 95,-153 L 92,-153 L 92,-150 L 89,-150 L 89,-153 L 86,-153
 L 86,-150 L 83,-150 L 83,-153 L 80,-153 L 80,-150 L 77,-150
 L 77,-153 L 74,-153 L 74,-150 L 71,-150 L 71,-153 L 68,-153
 L 68,-150 L 65,-150 L 65,-153 L 62,-153 L 62,-150 L 59,-150
 L 59,-153 L 56,-153 L 56,-150 L 53,-150 L 53,-153 L 50,-153
 L 50,-150 L 47,-150 L 47,-153 L 44,-153 L 44,-150 L 41,-150
 L 41,-153 L 38,-153 L 38,-150 L 35,-150 L 35,-153 L 32,-153
 L 32,-150 L 29,-150 L 29,-153 L 26,-153 L 26,-150 L 23,-150
 L 23,-153 L 20,-153 L 20,-150 L 17,-150 L 17,-153 L 14,-153
 L 14,-150 L 11,-150 L 11,-153 L 8,-153 L 8,-150 L 5,-150
 L 5,-153 L 0,-153 L 0,-150 L 3,-150 L 3,-147 L 0,-147
 L 0,-144 L 3,-144 L 3,-141 L 0,-141 L 0,-138 L 3,-138
 L 3,-135 L 0,-135 L 0,-132 L 3,-132 L 3,-129 L 0,-129
 L 0,-126 L 3,-126 L 3,-123 L 0,-123 L 0,-120 L 3,-120
 L 3,-117 L 0,-117 L 0,-114 L 3,-114 L 3,-111 L 0,-111
 L 0,-108 L 3,-108 L 3,-105 L 0,-105 L 0,-102 L 3,-102
 L 3,-99 L 0,-99 L 0,-96 L 3,-96 L 3,-93 L 0,-93
 L 0,-90 L 3,-90 L 3,-87 L 0,-87 L 0,-84 L 3,-84
 L 3,-81 L 0,-81 L 0,-78 L 3,-78 L 3,-75 L 0,-75
 L 0,-72 L 3,-72 L 3,-69 L 0,-69 L 0,-66 L 3,-66
 L 3,-63 L 0,-63 L 0,-60 L 3,-60 L 3,-57 L 0,-57
 L 0,-54 L 3,-54 L 3,-51 L 0,-51 L 0,-48 L 3,-48
 L 3,-45 L 0,-45 L 0,-42 L 3,-42 L 3,-39 L 0,-39
 L 0,-36 L 3,-36 L 3,-33 L 0,-33 L 0,-30 L 3,-30
 L 3,-27 L 0,-27 L 0,-24 L 3,-24 L 3,-21 L 0,-21
 L 0,-18 L 3,-18 L 3,-15 L 0,-15 L 0,-12 L 3,-12
 L 3,-9 L 0,-9 L 0,-6 L 3,-6 L 3,-3 L 0,-3
 L 0,-0 L 5,-0 z
M 472,-37 L 475,-37 L 475,-34 L 478,-34 L 478,-37 L 481,-37
 L 481,-34 L 484,-34 L 484,-37 L 487,-37 L 487,-34 L 490,-34
 L 490,-37 L 493,-37 L 493,-34 L 496,-34 L 496,-37 L 499,-37
 L 499,-34 L 502,-34 L 502,-37 L 505,-37 L 505,-34 L 508,-34
 L 508,-37 L 511,-37 L 511,-34 L 514,-34 L 514,-37 L 517,-37
 L 517,-34 L 520,-34 L 520,-37 L 523,-37 L 523,-34 L 526,-34
 L 526,-37 L 529,-37 L 529,-34 L 532,-34 L 532,-37 L 535,-37
 L 535,-34 L 538,-34 L 538,-37 L 541,-37 L 541,-34 L 544,-34
 L 544,-37 L 547,-37 L 547,-34 L 550,-34 L 550,-37 L 553,-37
 L 553,-34 L 556,-34 L 556,-37 L 559,-37 L 559,-34 L 562,-34
 L 562,-37 L 565,-37 L 565,-34 L 568,-34 L 568,-37 L 571,-37
 L 571,-34 L 574,-34 L 574,-37 L 577,-37 L 577,-34 L 580,-34
 L 580,-37 L 583,-37 L 583,-34 L 586,-34 L 586,-37 L 589,-37
 L 589,-34 L 592,-34 L 592,-37 L 595,-37 L 595,-34 L 598,-34
 L 598,-37 L 601,-37 L 601,-34 L 604,-34 L 604,-37 L 607,-37
 L 607,-34 L 610,-34 L 610,-37 L 613,-37 L 613,-34 L 616,-34
 L 616,-37 L 619,-37 L 619,-40 L 616,-40 L 616,-43 L 619,-43
 L 619,-46 L 616,-46 L 616,-49 L 619,-49 L 619,-52 L 616,-52
 L 616,-55 L 619,-55 L 619,-58 L 616,-58 L 616,-61 L 619,-61
 L 619,-64 L 616,-64 L 616,-67 L 469,-67 L 469,-64 L 466,-64
 L 466,-61 L 469,-61 L 469,-58 L 466,-58 L 466,-55 L 469,-55
 L 469,-52 L 466,-52 L 466,-49 L 469,-49 L 469,-46 L 466,-46
 L 466,-43 L 469,-43 L 469,-40 L 466,-40 L 466,-37 L 469,-37
 L 469,-34 L 472,-34 z
M 318,-37 L 321,-37 L 321,-34 L 324,-34 L 324,-37 L 327,-37
 L 327,-34 L 330,-34 L 330,-37 L 333,-37 L 333,-34 L 336,-34
 L 336,-37 L 339,-37 L 339,-34 L 342,-34 L 342,-37 L 345,-37
 L 345,-34 L 348,-34 L 348,-37 L 351,-37 L 351,-34 L 354,-34
 L 354,-37 L 357,-37 L 357,-34 L 360,-34 L 360,-37 L 363,-37
 L 363,-34 L 366,-34 L 366,-37 L 369,-37 L 369,-34 L 372,-34
 L 372,-37 L 375,-37 L 375,-34 L 378,-34 L 378,-37 L 381,-37
 L 381,-34 L 384,-34 L 384,-37 L 387,-37 L 387,-34 L 390,-34
 L 390,-37 L 393,-37 L 393,-34 L 396,-34 L 396,-37 L 399,-37
 L 399,-34 L 402,-34 L 402,-37 L 405,-37 L 405,-34 L 408,-34
 L 408,-37 L 411,-37 L 411,-34 L 414,-34 L 414,-37 L 417,-37
 L 417,-34 L 420,-34 L 420,-37 L 423,-37 L 423,-34 L 426,-34
 L 426,-37 L 429,-37 L 429,-34 L 432,-34 L 432,-37 L 435,-37
 L 435,-34 L 438,-34 L 438,-37 L 441,-37 L 441,-34 L 444,-34
 L 444,-37 L 447,-37 L 447,-34 L 450,-34 L 450,-37 L 453,-37
 L 453,-34 L 456,-34 L 456,-37 L 459,-37 L 459,-34 L 462,-34
 L 462,-37 L 465,-37 L 465,-40 L 462,-40 L 462,-43 L 465,-43
 L 465,-46 L 462,-46 L 462,-49 L 465,-49 L 465,-52 L 462,-52
 L 462,-55 L 465,-55 L 465,-58 L 462,-58 L 462,-61 L 465,-61
 L 465,-64 L 462,-64 L 462,-67 L 315,-67 L 315,-64 L 312,-64
 L 312,-61 L 315,-61 L 315,-58 L 312,-58 L 312,-55 L 315,-55
 L 315,-52 L 312,-52 L 312,-49 L 315,-49 L 315,-46 L 312,-46
 L 312,-43 L 315,-43 L 315,-40 L 312,-40 L 312,-37 L 315,-37
 L 315,-34 L 318,-34 z
M 112,-37 L 115,-37 L 115,-34 L 118,-34 L 118,-37 L 121,-37
 L 121,-34 L 124,-34 L 124,-37 L 127,-37 L 127,-34 L 130,-34
 L 130,-37 L 133,-37 L 133,-34 L 136,-34 L 136,-37 L 139,-37
 L 139,-34 L 142,-34 L 142,-37 L 145,-37 L 145,-34 L 148,-34
 L 148,-37 L 151,-37 L 151,-34 L 154,-34 L 154,-37 L 157,-37
 L 157,-34 L 160,-34 L 160,-37 L 163,-37 L 163,-34 L 166,-34
 L 166,-37 L 169,-37 L 169,-34 L 172,-34 L 172,-37 L 175,-37
 L 175,-34 L 178,-34 L 178,-37 L 181,-37 L 181,-34 L 184,-34
 L 184,-37 L 187,-37 L 187,-34 L 190,-34 L 190,-37 L 193,-37
 L 193,-34 L 196,-34 L 196,-37 L 199,-37 L 199,-34 L 202,-34
 L 202,-37 L 204,-37 L 204,-40 L 207,-40 L 207,-43 L 204,-43
 L 204,-46 L 207,-46 L 207,-49 L 204,-49 L 204,-52 L 207,-52
 L 207,-55 L 204,-55 L 204,-58 L 207,-58 L 207,-61 L 204,-61
 L 204,-64 L 207,-64 L 207,-67 L 104,-67 L 104,-64 L 107,-64
 L 107,-61 L 104,-61 L 104,-58 L 107,-58 L 107,-55 L 104,-55
 L 104,-52 L 107,-52 L 107,-49 L 104,-49 L 104,-46 L 107,-46
 L 107,-43 L 104,-43 L 104,-40 L 107,-40 L 107,-37 L 109,-37
 L 109,-34 L 112,-34 z
M 216,-37 L 219,-37 L 219,-34 L 222,-34 L 222,-37 L 225,-37
 L 225,-34 L 228,-34 L 228,-37 L 231,-37 L 231,-34 L 234,-34
 L 234,-37 L 237,-37 L 237,-34 L 240,-34 L 240,-37 L 243,-37
 L 243,-34 L 246,-34 L 246,-37 L 249,-37 L 249,-34 L 252,-34
 L 252,-37 L 255,-37 L 255,-34 L 258,-34 L 258,-37 L 261,-37
 L 261,-34 L 264,-34 L 264,-37 L 267,-37 L 267,-34 L 270,-34
 L 270,-37 L 273,-37 L 273,-34 L 276,-34 L 276,-37 L 279,-37
 L 279,-34 L 282,-34 L 282,-37 L 285,-37 L 285,-34 L 288,-34
 L 288,-37 L 291,-37 L 291,-34 L 294,-34 L 294,-37 L 297,-37
 L 297,-34 L 300,-34 L 300,-37 L 303,-37 L 303,-34 L 306,-34
 L 306,-37 L 308,-37 L 308,-40 L 311,-40 L 311,-43 L 308,-43
 L 308,-46 L 311,-46 L 311,-49 L 308,-49 L 308,-52 L 311,-52
 L 311,-55 L 308,-55 L 308,-58 L 311,-58 L 311,-61 L 308,-61
 L 308,-64 L 311,-64 L 311,-67 L 208,-67 L 208,-64 L 211,-64
 L 211,-61 L 208,-61 L 208,-58 L 211,-58 L 211,-55 L 208,-55
 L 208,-52 L 211,-52 L 211,-49 L 208,-49 L 208,-46 L 211,-46
 L 211,-43 L 208,-43 L 208,-40 L 211,-40 L 211,-37 L 213,-37
 L 213,-34 L 216,-34 z
M 216,-3 L 219,-3 L 219,-0 L 222,-0 L 222,-3 L 225,-3
 L 225,-0 L 228,-0 L 228,-3 L 231,-3 L 231,-0 L 234,-0
 L 234,-3 L 237,-3 L 237,-0 L 240,-0 L 240,-3 L 243,-3
 L 243,-0 L 246,-0 L 246,-3 L 249,-3 L 249,-0 L 252,-0
 L 252,-3 L 255,-3 L 255,-0 L 258,-0 L 258,-3 L 261,-3
 L 261,-0 L 264,-0 L 264,-3 L 267,-3 L 267,-0 L 270,-0
 L 270,-3 L 273,-3 L 273,-0 L 276,-0 L 276,-3 L 279,-3
 L 279,-0 L 282,-0 L 282,-3 L 285,-3 L 285,-0 L 288,-0
 L 288,-3 L 291,-3 L 291,-0 L 294,-0 L 294,-3 L 297,-3
 L 297,-0 L 300,-0 L 300,-3 L 303,-3 L 303,-0 L 306,-0
 L 306,-3 L 308,-3 L 308,-6 L 311,-6 L 311,-9 L 308,-9
 L 308,-12 L 311,-12 L 311,-15 L 308,-15 L 308,-18 L 311,-18
 L 311,-21 L 308,-21 L 308,-24 L 311,-24 L 311,-27 L 308,-27
 L 308,-30 L 311,-30 L 311,-33 L 208,-33 L 208,-30 L 211,-30
 L 211,-27 L 208,-27 L 208,-24 L 211,-24 L 211,-21 L 208,-21
 L 208,-18 L 211,-18 L 211,-15 L 208,-15 L 208,-12 L 211,-12
 L 211,-9 L 208,-9 L 208,-6 L 211,-6 L 211,-3 L 213,-3
 L 213,-0 L 216,-0 z
M 318,-3 L 321,-3 L 321,-0 L 324,-0 L 324,-3 L 327,-3
 L 327,-0 L 330,-0 L 330,-3 L 333,-3 L 333,-0 L 336,-0
 L 336,-3 L 339,-3 L 339,-0 L 342,-0 L 342,-3 L 345,-3
 L 345,-0 L 348,-0 L 348,-3 L 351,-3 L 351,-0 L 354,-0
 L 354,-3 L 357,-3 L 357,-0 L 360,-0 L 360,-3 L 363,-3
 L 363,-0 L 366,-0 L 366,-3 L 369,-3 L 369,-0 L 372,-0
 L 372,-3 L 375,-3 L 375,-0 L 378,-0 L 378,-3 L 381,-3
 L 381,-0 L 384,-0 L 384,-3 L 387,-3 L 387,-0 L 390,-0
 L 390,-3 L 393,-3 L 393,-0 L 396,-0 L 396,-3 L 399,-3
 L 399,-0 L 402,-0 L 402,-3 L 405,-3 L 405,-0 L 408,-0
 L 408,-3 L 411,-3 L 411,-0 L 414,-0 L 414,-3 L 417,-3
 L 417,-0 L 420,-0 L 420,-3 L 423,-3 L 423,-0 L 426,-0
 L 426,-3 L 429,-3 L 429,-0 L 432,-0 L 432,-3 L 435,-3
 L 435,-0 L 438,-0 L 438,-3 L 441,-3 L 441,-0 L 444,-0
 L 444,-3 L 447,-3 L 447,-0 L 450,-0 L 450,-3 L 453,-3
 L 453,-0 L 456,-0 L 456,-3 L 459,-3 L 459,-0 L 462,-0
 L 462,-3 L 465,-3 L 465,-6 L 462,-6 L 462,-9 L 465,-9
 L 465,-12 L 462,-12 L 462,-15 L 465,-15 L 465,-18 L 462,-18
 L 462,-21 L 465,-21 L 465,-24 L 462,-24 L 462,-27 L 465,-27
 L 465,-30 L 462,-30 L 462,-33 L 315,-33 L 315,-30 L 312,-30
 L 312,-27 L 315,-27 L 315,-24 L 312,-24 L 312,-21 L 315,-21
 L 315,-18 L 312,-18 L 312,-15 L 315,-15 L 315,-12 L 312,-12
 L 312,-9 L 315,-9 L 315,-6 L 312,-6 L 312,-3 L 315,-3
 L 315,-0 L 318,-0 z
M 112,-3 L 115,-3 L 115,-0 L 118,-0 L 118,-3 L 121,-3
 L 121,-0 L 124,-0 L 124,-3 L 127,-3 L 127,-0 L 130,-0
 L 130,-3 L 133,-3 L 133,-0 L 136,-0 L 136,-3 L 139,-3
 L 139,-0 L 142,-0 L 142,-3 L 145,-3 L 145,-0 L 148,-0
 L 148,-3 L 151,-3 L 151,-0 L 154,-0 L 154,-3 L 157,-3
 L 157,-0 L 160,-0 L 160,-3 L 163,-3 L 163,-0 L 166,-0
 L 166,-3 L 169,-3 L 169,-0 L 172,-0 L 172,-3 L 175,-3
 L 175,-0 L 178,-0 L 178,-3 L 181,-3 L 181,-0 L 184,-0
 L 184,-3 L 187,-3 L 187,-0 L 190,-0 L 190,-3 L 193,-3
 L 193,-0 L 196,-0 L 196,-3 L 199,-3 L 199,-0 L 202,-0
 L 202,-3 L 204,-3 L 204,-6 L 207,-6 L 207,-9 L 204,-9
 L 204,-12 L 207,-12 L 207,-15 L 204,-15 L 204,-18 L 207,-18
 L 207,-21 L 204,-21 L 204,-24 L 207,-24 L 207,-27 L 204,-27
 L 204,-30 L 207,-30 L 207,-33 L 104,-33 L 104,-30 L 107,-30
 L 107,-27 L 104,-27 L 104,-24 L 107,-24 L 107,-21 L 104,-21
 L 104,-18 L 107,-18 L 107,-15 L 104,-15 L 104,-12 L 107,-12
 L 107,-9 L 104,-9 L 104,-6 L 107,-6 L 107,-3 L 109,-3
 L 109,-0 L 112,-0 z
M 472,-3 L 475,-3 L 475,-0 L 478,-0 L 478,-3 L 481,-3
 L 481,-0 L 484,-0 L 484,-3 L 487,-3 L 487,-0 L 490,-0
 L 490,-3 L 493,-3 L 493,-0 L 496,-0 L 496,-3 L 499,-3
 L 499,-0 L 502,-0 L 502,-3 L 505,-3 L 505,-0 L 508,-0
 L 508,-3 L 511,-3 L 511,-0 L 514,-0 L 514,-3 L 517,-3
 L 517,-0 L 520,-0 L 520,-3 L 523,-3 L 523,-0 L 526,-0
 L 526,-3 L 529,-3 L 529,-0 L 532,-0 L 532,-3 L 535,-3
 L 535,-0 L 538,-0 L 538,-3 L 541,-3 L 541,-0 L 544,-0
 L 544,-3 L 547,-3 L 547,-0 L 550,-0 L 550,-3 L 553,-3
 L 553,-0 L 556,-0 L 556,-3 L 559,-3 L 559,-0 L 562,-0
 L 562,-3 L 565,-3 L 565,-0 L 568,-0 L 568,-3 L 571,-3
 L 571,-0 L 574,-0 L 574,-3 L 577,-3 L 577,-0 L 580,-0
 L 580,-3 L 583,-3 L 583,-0 L 586,-0 L 586,-3 L 589,-3
 L 589,-0 L 592,-0 L 592,-3 L 595,-3 L 595,-0 L 598,-0
 L 598,-3 L 601,-3 L 601,-0 L 604,-0 L 604,-3 L 607,-3
 L 607,-0 L 610,-0 L 610,-3 L 613,-3 L 613,-0 L 616,-0
 L 616,-3 L 619,-3 L 619,-6 L 616,-6 L 616,-9 L 619,-9
 L 619,-12 L 616,-12 L 616,-15 L 619,-15 L 619,-18 L 616,-18
 L 616,-21 L 619,-21 L 619,-24 L 616,-24 L 616,-27 L 619,-27
 L 619,-30 L 616,-30 L 616,-33 L 469,-33 L 469,-30 L 466,-30
 L 466,-27 L 469,-27 L 469,-24 L 466,-24 L 466,-21 L 469,-21
 L 469,-18 L 466,-18 L 466,-15 L 469,-15 L 469,-12 L 466,-12
 L 466,-9 L 469,-9 L 469,-6 L 466,-6 L 466,-3 L 469,-3
 L 469,-0 L 472,-0 z
" stroke="black" fill="lightgray" stroke-width="0.5"/></svg>
