<?xml version="1.0" standalone="no"?>
<!DOCTYPE svg PUBLIC "-//W3C//DTD SVG 1.1//EN" "http://www.w3.org/Graphics/SVG/1.1/DTD/svg11.dtd">
<svg width="1194" height="326" viewBox="0 -326 1194 326" xmlns="http://www.w3.org/2000/svg" version="1.1">
<title>OpenSCAD Model</title>
<path d="
M 10,-6.5 L 16,-6.5 L 16,-0 L 22,-0 L 22,-6.5 L 28,-6.5
 L 28,-0 L 34,-0 L 34,-6.5 L 40,-6.5 L 40,-0 L 46,-0
 L 46,-6.5 L 52,-6.5 L 52,-0 L 58,-0 L 58,-6.5 L 64,-6.5
 L 64,-0 L 70,-0 L 70,-6.5 L 76,-6.5 L 76,-0 L 82,-0
 L 82,-6.5 L 88,-6.5 L 88,-0 L 94,-0 L 94,-6.5 L 100,-6.5
 L 100,-0 L 106,-0 L 106,-6.5 L 112,-6.5 L 112,-0 L 118,-0
 L 118,-6.5 L 124,-6.5 L 124,-0 L 130,-0 L 130,-6.5 L 136,-6.5
 L 136,-0 L 142,-0 L 142,-6.5 L 148,-6.5 L 148,-0 L 154,-0
 L 154,-6.5 L 160,-6.5 L 160,-0 L 166,-0 L 166,-6.5 L 172,-6.5
 L 172,-0 L 178,-0 L 178,-6.5 L 184,-6.5 L 184,-0 L 190,-0
 L 190,-6.5 L 196,-6.5 L 196,-0 L 202,-0 L 202,-6.5 L 208,-6.5
 L 208,-0 L 214,-0 L 214,-6.5 L 220,-6.5 L 220,-0 L 226,-0
 L 226,-6.5 L 232,-6.5 L 232,-0 L 238,-0 L 238,-6.5 L 244,-6.5
 L 244,-0 L 250,-0 L 250,-6.5 L 256,-6.5 L 256,-0 L 262,-0
 L 262,-6.5 L 268,-6.5 L 268,-0 L 274,-0 L 274,-6.5 L 280,-6.5
 L 280,-0 L 286,-0 L 286,-6.5 L 292,-6.5 L 292,-0 L 298,-0
 L 298,-6.5 L 304,-6.5 L 304,-0 L 310,-0 L 310,-6.5 L 316,-6.5
 L 316,-0 L 326,-0 L 326,-9.99998 L 319.5,-9.99998 L 319.5,-16 L 326,-16
 L 326,-22 L 319.5,-22 L 319.5,-28 L 326,-28 L 326,-34 L 319.5,-34
 L 319.5,-40 L 326,-40 L 326,-46 L 319.5,-46 L 319.5,-52 L 326,-52
 L 326,-58 L 319.5,-58 L 319.5,-64 L 326,-64 L 326,-70 L 319.5,-70
 L 319.5,-76 L 326,-76 L 326,-82 L 319.5,-82 L 319.5,-88 L 326,-88
 L 326,-94 L 319.5,-94 L 319.5,-100 L 326,-100 L 326,-106 L 319.5,-106
 L 319.5,-112 L 326,-112 L 326,-118 L 319.5,-118 L 319.5,-124 L 326,-124
 L 326,-130 L 319.5,-130 L 319.5,-136 L 326,-136 L 326,-142 L 319.5,-142
 L 319.5,-148 L 326,-148 L 326,-154 L 319.5,-154 L 319.5,-160 L 326,-160
 L 326,-166 L 319.5,-166 L 319.5,-172 L 326,-172 L 326,-178 L 319.5,-178
 L 319.5,-184 L 326,-184 L 326,-190 L 319.5,-190 L 319.5,-196 L 326,-196
 L 326,-202 L 319.5,-202 L 319.5,-208 L 326,-208 L 326,-214 L 319.5,-214
 L 319.5,-220 L 326,-220 L 326,-226 L 319.5,-226 L 319.5,-232 L 326,-232
 L 326,-238 L 319.5,-238 L 319.5,-244 L 326,-244 L 326,-250 L 319.5,-250
 L 319.5,-256 L 326,-256 L 326,-262 L 319.5,-262 L 319.5,-268 L 326,-268
 L 326,-274 L 319.5,-274 L 319.5,-280 L 326,-280 L 326,-286 L 319.5,-286
 L 319.5,-292 L 326,-292 L 326,-298 L 319.5,-298 L 319.5,-304 L 326,-304
 L 326,-310 L 319.5,-310 L 319.5,-316 L 326,-316 L 326,-326 L 316,-326
 L 316,-319.5 L 310,-319.5 L 310,-326 L 304,-326 L 304,-319.5 L 298,-319.5
 L 298,-326 L 292,-326 L 292,-319.5 L 286,-319.5 L 286,-326 L 280,-326
 L 280,-319.5 L 274,-319.5 L 274,-326 L 268,-326 L 268,-319.5 L 262,-319.5
 L 262,-326 L 256,-326 L 256,-319.5 L 250,-319.5 L 250,-326 L 244,-326
 L 244,-319.5 L 238,-319.5 L 238,-326 L 232,-326 L 232,-319.5 L 226,-319.5
 L 226,-326 L 220,-326 L 220,-319.5 L 214,-319.5 L 214,-326 L 208,-326
 L 208,-319.5 L 202,-319.5 L 202,-326 L 196,-326 L 196,-319.5 L 190,-319.5
 L 190,-326 L 184,-326 L 184,-319.5 L 178,-319.5 L 178,-326 L 172,-326
 L 172,-319.5 L 166,-319.5 L 166,-326 L 160,-326 L 160,-319.5 L 154,-319.5
 L 154,-326 L 148,-326 L 148,-319.5 L 142,-319.5 L 142,-326 L 136,-326
 L 136,-319.5 L 130,-319.5 L 130,-326 L 124,-326 L 124,-319.5 L 118,-319.5
 L 118,-326 L 112,-326 L 112,-319.5 L 106,-319.5 L 106,-326 L 100,-326
 L 100,-319.5 L 94,-319.5 L 94,-326 L 88,-326 L 88,-319.5 L 82,-319.5
 L 82,-326 L 76,-326 L 76,-319.5 L 70,-319.5 L 70,-326 L 64,-326
 L 64,-319.5 L 58,-319.5 L 58,-326 L 52,-326 L 52,-319.5 L 46,-319.5
 L 46,-326 L 40,-326 L 40,-319.5 L 34,-319.5 L 34,-326 L 28,-326
 L 28,-319.5 L 22,-319.5 L 22,-326 L 16,-326 L 16,-319.5 L 10,-319.5
 L 10,-326 L 0,-326 L 0,-316 L 6.5,-316 L 6.5,-310 L 0,-310
 L 0,-304 L 6.5,-304 L 6.5,-298 L 0,-298 L 0,-292 L 6.5,-292
 L 6.5,-286 L 0,-286 L 0,-280 L 6.5,-280 L 6.5,-274 L 0,-274
 L 0,-268 L 6.5,-268 L 6.5,-262 L 0,-262 L 0,-256 L 6.5,-256
 L 6.5,-250 L 0,-250 L 0,-244 L 6.5,-244 L 6.5,-238 L 0,-238
 L 0,-232 L 6.5,-232 L 6.5,-226 L 0,-226 L 0,-220 L 6.5,-220
 L 6.5,-214 L 0,-214 L 0,-208 L 6.5,-208 L 6.5,-202 L 0,-202
 L 0,-196 L 6.5,-196 L 6.5,-190 L 0,-190 L 0,-184 L 6.5,-184
 L 6.5,-178 L 0,-178 L 0,-172 L 6.5,-172 L 6.5,-166 L 0,-166
 L 0,-160 L 6.5,-160 L 6.5,-154 L 0,-154 L 0,-148 L 6.5,-148
 L 6.5,-142 L 0,-142 L 0,-136 L 6.5,-136 L 6.5,-130 L 0,-130
 L 0,-124 L 6.5,-124 L 6.5,-118 L 0,-118 L 0,-112 L 6.5,-112
 L 6.5,-106 L 0,-106 L 0,-100 L 6.5,-100 L 6.5,-94 L 0,-94
 L 0,-88 L 6.5,-88 L 6.5,-82 L 0,-82 L 0,-76 L 6.5,-76
 L 6.5,-70 L 0,-70 L 0,-64 L 6.5,-64 L 6.5,-58 L 0,-58
 L 0,-52 L 6.5,-52 L 6.5,-46 L 0,-46 L 0,-40 L 6.5,-40
 L 6.5,-34 L 0,-34 L 0,-28 L 6.5,-28 L 6.5,-22 L 0,-22
 L 0,-16 L 6.5,-16 L 6.5,-10 L 0,-10 L 0,-0 L 10,-0
 z
M 106.5,-310 L 106.5,-316 L 113,-316 L 113,-310 z
M 213,-310 L 213,-316 L 219.5,-316 L 219.5,-310 z
M 106.5,-298 L 106.5,-304 L 113,-304 L 113,-298 z
M 213,-298 L 213,-304 L 219.5,-304 L 219.5,-298 z
M 213,-286 L 213,-292 L 219.5,-292 L 219.5,-286 z
M 106.5,-286 L 106.5,-292 L 113,-292 L 113,-286 z
M 213,-274 L 213,-280 L 219.5,-280 L 219.5,-274 z
M 106.5,-274 L 106.5,-280 L 113,-280 L 113,-274 z
M 106.5,-262 L 106.5,-268 L 113,-268 L 113,-262 z
M 213,-262 L 213,-268 L 219.5,-268 L 219.5,-262 z
M 213,-250 L 213,-256 L 219.5,-256 L 219.5,-250 z
M 106.5,-250 L 106.5,-256 L 113,-256 L 113,-250 z
M 213,-238 L 213,-244 L 219.5,-244 L 219.5,-238 z
M 106.5,-238 L 106.5,-244 L 113,-244 L 113,-238 z
M 106.5,-226 L 106.5,-232 L 113,-232 L 113,-226 z
M 213,-226 L 213,-232 L 219.5,-232 L 219.5,-226 z
M 214,-213 L 214,-214 L 213,-214 L 213,-220 L 219.5,-220 L 219.5,-219.5
 L 220,-219.5 L 220,-213 z
M 106,-213 L 106,-219.5 L 106.5,-219.5 L 106.5,-220 L 113,-220 L 113,-214
 L 112,-214 L 112,-213 z
M 34,-213 L 34,-219.5 L 40,-219.5 L 40,-213 z
M 226,-213 L 226,-219.5 L 232,-219.5 L 232,-213 z
M 238,-213 L 238,-219.5 L 244,-219.5 L 244,-213 z
M 262,-213 L 262,-219.5 L 268,-219.5 L 268,-213 z
M 274,-213 L 274,-219.5 L 280,-219.5 L 280,-213 z
M 286,-213 L 286,-219.5 L 292,-219.5 L 292,-213 z
M 298,-213 L 298,-219.5 L 304,-219.5 L 304,-213 z
M 310,-213 L 310,-219.5 L 316,-219.5 L 316,-213 z
M 154,-213 L 154,-219.5 L 160,-219.5 L 160,-213 z
M 142,-213 L 142,-219.5 L 148,-219.5 L 148,-213 z
M 166,-213 L 166,-219.5 L 172,-219.5 L 172,-213 z
M 250,-213 L 250,-219.5 L 256,-219.5 L 256,-213 z
M 46,-213 L 46,-219.5 L 52,-219.5 L 52,-213 z
M 58,-213 L 58,-219.5 L 64,-219.5 L 64,-213 z
M 70,-213 L 70,-219.5 L 76,-219.5 L 76,-213 z
M 82,-213 L 82,-219.5 L 88,-219.5 L 88,-213 z
M 94,-213 L 94,-219.5 L 100,-219.5 L 100,-213 z
M 118,-213 L 118,-219.5 L 124,-219.5 L 124,-213 z
M 130,-213 L 130,-219.5 L 136,-219.5 L 136,-213 z
M 10,-213 L 10,-219.5 L 16,-219.5 L 16,-213 z
M 178,-213 L 178,-219.5 L 184,-219.5 L 184,-213 z
M 190,-213 L 190,-219.5 L 196,-219.5 L 196,-213 z
M 22,-213 L 22,-219.5 L 28,-219.5 L 28,-213 z
M 202,-213 L 202,-219.5 L 208,-219.5 L 208,-213 z
M 213,-202 L 213,-208 L 219.5,-208 L 219.5,-202 z
M 106.5,-202 L 106.5,-208 L 113,-208 L 113,-202 z
M 213,-190 L 213,-196 L 219.5,-196 L 219.5,-190 z
M 106.5,-190 L 106.5,-196 L 113,-196 L 113,-190 z
M 106.5,-178 L 106.5,-184 L 113,-184 L 113,-178 z
M 213,-178 L 213,-184 L 219.5,-184 L 219.5,-178 z
M 106.5,-166 L 106.5,-172 L 113,-172 L 113,-166 z
M 213,-166 L 213,-172 L 219.5,-172 L 219.5,-166 z
M 213,-154 L 213,-160 L 219.5,-160 L 219.5,-154 z
M 106.5,-154 L 106.5,-160 L 113,-160 L 113,-154 z
M 106.5,-142 L 106.5,-148 L 113,-148 L 113,-142 z
M 213,-142 L 213,-148 L 219.5,-148 L 219.5,-142 z
M 213,-130 L 213,-136 L 219.5,-136 L 219.5,-130 z
M 106.5,-130 L 106.5,-136 L 113,-136 L 113,-130 z
M 106.5,-118 L 106.5,-124 L 113,-124 L 113,-118 z
M 213,-118 L 213,-124 L 219.5,-124 L 219.5,-118 z
M 310,-106.5 L 310,-113 L 316,-113 L 316,-106.5 z
M 274,-106.5 L 274,-113 L 280,-113 L 280,-106.5 z
M 250,-106.5 L 250,-113 L 256,-113 L 256,-106.5 z
M 238,-106.5 L 238,-113 L 244,-113 L 244,-106.5 z
M 226,-106.5 L 226,-113 L 232,-113 L 232,-106.5 z
M 213,-106.5 L 213,-112 L 214,-112 L 214,-113 L 220,-113 L 220,-106.5
 z
M 202,-106.5 L 202,-113 L 208,-113 L 208,-106.5 z
M 190,-106.5 L 190,-113 L 196,-113 L 196,-106.5 z
M 178,-106.5 L 178,-113 L 184,-113 L 184,-106.5 z
M 154,-106.5 L 154,-113 L 160,-113 L 160,-106.5 z
M 118,-106.5 L 118,-113 L 124,-113 L 124,-106.5 z
M 130,-106.5 L 130,-113 L 136,-113 L 136,-106.5 z
M 142,-106.5 L 142,-113 L 148,-113 L 148,-106.5 z
M 106.5,-106 L 106.5,-113 L 112,-113 L 112,-112 L 113,-112 L 113,-106
 z
M 298,-106.5 L 298,-113 L 304,-113 L 304,-106.5 z
M 286,-106.5 L 286,-113 L 292,-113 L 292,-106.5 z
M 262,-106.5 L 262,-113 L 268,-113 L 268,-106.5 z
M 166,-106.5 L 166,-113 L 172,-113 L 172,-106.5 z
M 106.5,-94 L 106.5,-100 L 113,-100 L 113,-94 z
M 106.5,-82 L 106.5,-88 L 113,-88 L 113,-82 z
M 106.5,-70 L 106.5,-76 L 113,-76 L 113,-70 z
M 106.5,-58 L 106.5,-64 L 113,-64 L 113,-58 z
M 106.5,-46 L 106.5,-52 L 113,-52 L 113,-46 z
M 106.5,-34 L 106.5,-40 L 113,-40 L 113,-34 z
M 106.5,-22 L 106.5,-28 L 113,-28 L 113,-22 z
M 106.5,-10 L 106.5,-16 L 113,-16 L 113,-10 z
M 670.25,-6.5 L 676.25,-6.5 L 676.25,-0 L 682.25,-0 L 682.25,-6.5 L 688.25,-6.5
 L 688.25,-0 L 694.25,-0 L 694.25,-6.5 L 700.25,-6.5 L 700.25,-0 L 706.25,-0
 L 706.25,-6.5 L 712.25,-6.5 L 712.25,-0 L 718.25,-0 L 718.25,-6.5 L 724.25,-6.5
 L 724.25,-0 L 730.25,-0 L 730.25,-6.5 L 736.25,-6.5 L 736.25,-0 L 742.25,-0
 L 742.25,-6.5 L 748.25,-6.5 L 748.25,-0 L 754.25,-0 L 754.25,-6.5 L 762.5,-6.5
 L 762.5,-106.5 L 709.25,-106.5 L 709.25,-113 L 762.5,-113 L 762.5,-213 L 709.25,-213
 L 709.25,-219.5 L 762.5,-219.5 L 762.5,-319.5 L 754.25,-319.5 L 754.25,-326 L 748.25,-326
 L 748.25,-319.5 L 742.25,-319.5 L 742.25,-326 L 736.25,-326 L 736.25,-319.5 L 730.25,-319.5
 L 730.25,-326 L 724.25,-326 L 724.25,-319.5 L 718.25,-319.5 L 718.25,-326 L 712.25,-326
 L 712.25,-319.5 L 706.25,-319.5 L 706.25,-326 L 700.25,-326 L 700.25,-319.5 L 694.25,-319.5
 L 694.25,-326 L 688.25,-326 L 688.25,-319.5 L 682.25,-319.5 L 682.25,-326 L 676.25,-326
 L 676.25,-319.5 L 670.25,-319.5 L 670.25,-326 L 664.25,-326 L 664.25,-319.5 L 662.5,-319.5
 L 662.5,-316 L 656,-316 L 656,-310 L 662.5,-310 L 662.5,-304 L 656,-304
 L 656,-298 L 662.5,-298 L 662.5,-292 L 656,-292 L 656,-286 L 662.5,-286
 L 662.5,-280 L 656,-280 L 656,-274 L 662.5,-274 L 662.5,-268 L 656,-268
 L 656,-262 L 662.5,-262 L 662.5,-256 L 656,-256 L 656,-250 L 662.5,-250
 L 662.5,-244 L 656,-244 L 656,-238 L 662.5,-238 L 662.5,-232 L 656,-232
 L 656,-226 L 662.5,-226 L 662.5,-220 L 656,-220 L 656,-214 L 662.5,-214
 L 662.5,-208 L 656,-208 L 656,-202 L 662.5,-202 L 662.5,-196 L 656,-196
 L 656,-190 L 662.5,-190 L 662.5,-184 L 656,-184 L 656,-178 L 662.5,-178
 L 662.5,-172 L 656,-172 L 656,-166 L 662.5,-166 L 662.5,-160 L 656,-160
 L 656,-154 L 662.5,-154 L 662.5,-148 L 656,-148 L 656,-142 L 662.5,-142
 L 662.5,-136 L 656,-136 L 656,-130 L 662.5,-130 L 662.5,-124 L 656,-124
 L 656,-118 L 662.5,-118 L 662.5,-112 L 656,-112 L 656,-106 L 662.5,-106
 L 662.5,-100 L 656,-100 L 656,-94 L 662.5,-94 L 662.5,-88 L 656,-88
 L 656,-82 L 662.5,-82 L 662.5,-76 L 656,-76 L 656,-70 L 662.5,-70
 L 662.5,-64 L 656,-64 L 656,-58 L 662.5,-58 L 662.5,-52 L 656,-52
 L 656,-46 L 662.5,-46 L 662.5,-40 L 656,-40 L 656,-34 L 662.5,-34
 L 662.5,-28 L 656,-28 L 656,-22 L 662.5,-22 L 662.5,-16 L 656,-16
 L 656,-10 L 662.5,-10 L 662.5,-6.5 L 664.25,-6.5 L 664.25,-0 L 670.25,-0
 z
M 817.75,-113 L 871,-113 L 871,-213 L 817.75,-213 L 817.75,-219.5 L 871,-219.5
 L 871,-319.5 L 862.75,-319.5 L 862.75,-326 L 856.75,-326 L 856.75,-319.5 L 850.75,-319.5
 L 850.75,-326 L 844.75,-326 L 844.75,-319.5 L 838.75,-319.5 L 838.75,-326 L 832.75,-326
 L 832.75,-319.5 L 826.75,-319.5 L 826.75,-326 L 820.75,-326 L 820.75,-319.5 L 814.75,-319.5
 L 814.75,-326 L 808.75,-326 L 808.75,-319.5 L 802.75,-319.5 L 802.75,-326 L 796.75,-326
 L 796.75,-319.5 L 790.75,-319.5 L 790.75,-326 L 784.75,-326 L 784.75,-319.5 L 778.75,-319.5
 L 778.75,-326 L 772.75,-326 L 772.75,-319.5 L 771,-319.5 L 771,-316 L 764.5,-316
 L 764.5,-310 L 771,-310 L 771,-304 L 764.5,-304 L 764.5,-298 L 771,-298
 L 771,-292 L 764.5,-292 L 764.5,-286 L 771,-286 L 771,-280 L 764.5,-280
 L 764.5,-274 L 771,-274 L 771,-268 L 764.5,-268 L 764.5,-262 L 771,-262
 L 771,-256 L 764.5,-256 L 764.5,-250 L 771,-250 L 771,-244 L 764.5,-244
 L 764.5,-238 L 771,-238 L 771,-232 L 764.5,-232 L 764.5,-226 L 771,-226
 L 771,-220 L 764.5,-220 L 764.5,-214 L 771,-214 L 771,-208 L 764.5,-208
 L 764.5,-202 L 771,-202 L 771,-196 L 764.5,-196 L 764.5,-190 L 771,-190
 L 771,-184 L 764.5,-184 L 764.5,-178 L 771,-178 L 771,-172 L 764.5,-172
 L 764.5,-166 L 771,-166 L 771,-160 L 764.5,-160 L 764.5,-154 L 771,-154
 L 771,-148 L 764.5,-148 L 764.5,-142 L 771,-142 L 771,-136 L 764.5,-136
 L 764.5,-130 L 771,-130 L 771,-124 L 764.5,-124 L 764.5,-118 L 771,-118
 L 771,-112 L 764.5,-112 L 764.5,-106.5 L 817.75,-106.5 z
M 889,-223.5 L 895,-223.5 L 895,-217 L 901,-217 L 901,-223.5 L 907,-223.5
 L 907,-217 L 913,-217 L 913,-223.5 L 919,-223.5 L 919,-217 L 925,-217
 L 925,-223.5 L 931,-223.5 L 931,-217 L 937,-217 L 937,-223.5 L 943,-223.5
 L 943,-217 L 949,-217 L 949,-223.5 L 955,-223.5 L 955,-217 L 961,-217
 L 961,-223.5 L 967,-223.5 L 967,-217 L 973,-217 L 973,-223.5 L 979,-223.5
 L 979,-217 L 985,-217 L 985,-223.5 L 991,-223.5 L 991,-217 L 997,-217
 L 997,-223.5 L 1003,-223.5 L 1003,-217 L 1009,-217 L 1009,-223.5 L 1015,-223.5
 L 1015,-217 L 1021,-217 L 1021,-223.5 L 1027,-223.5 L 1027,-217 L 1033,-217
 L 1033,-223.5 L 1039,-223.5 L 1039,-217 L 1045,-217 L 1045,-223.5 L 1051,-223.5
 L 1051,-217 L 1057,-217 L 1057,-223.5 L 1063,-223.5 L 1063,-217 L 1069,-217
 L 1069,-223.5 L 1075,-223.5 L 1075,-217 L 1081,-217 L 1081,-223.5 L 1087,-223.5
 L 1087,-217 L 1093,-217 L 1093,-223.5 L 1099,-223.5 L 1099,-217 L 1105,-217
 L 1105,-223.5 L 1111,-223.5 L 1111,-217 L 1117,-217 L 1117,-223.5 L 1123,-223.5
 L 1123,-217 L 1129,-217 L 1129,-223.5 L 1135,-223.5 L 1135,-217 L 1141,-217
 L 1141,-223.5 L 1147,-223.5 L 1147,-217 L 1153,-217 L 1153,-223.5 L 1159,-223.5
 L 1159,-217 L 1165,-217 L 1165,-223.5 L 1171,-223.5 L 1171,-217 L 1177,-217
 L 1177,-223.5 L 1183,-223.5 L 1183,-217 L 1189,-217 L 1189,-223.5 L 1192.5,-223.5
 L 1192.5,-225.25 L 1194,-225.25 L 1194,-231.25 L 1192.5,-231.25 L 1192.5,-237.25 L 1194,-237.25
 L 1194,-243.25 L 1192.5,-243.25 L 1192.5,-249.25 L 1194,-249.25 L 1194,-255.25 L 1192.5,-255.25
 L 1192.5,-261.25 L 1194,-261.25 L 1194,-267.25 L 1192.5,-267.25 L 1192.5,-273.25 L 1194,-273.25
 L 1194,-279.25 L 1192.5,-279.25 L 1192.5,-285.25 L 1194,-285.25 L 1194,-291.25 L 1192.5,-291.25
 L 1192.5,-297.25 L 1194,-297.25 L 1194,-303.25 L 1192.5,-303.25 L 1192.5,-309.25 L 1194,-309.25
 L 1194,-315.25 L 1192.5,-315.25 L 1192.5,-323.5 L 879.5,-323.5 L 879.5,-315.25 L 873,-315.25
 L 873,-309.25 L 879.5,-309.25 L 879.5,-303.25 L 873,-303.25 L 873,-297.25 L 879.5,-297.25
 L 879.5,-291.25 L 873,-291.25 L 873,-285.25 L 879.5,-285.25 L 879.5,-279.25 L 873,-279.25
 L 873,-273.25 L 879.5,-273.25 L 879.5,-267.25 L 873,-267.25 L 873,-261.25 L 879.5,-261.25
 L 879.5,-255.25 L 873,-255.25 L 873,-249.25 L 879.5,-249.25 L 879.5,-243.25 L 873,-243.25
 L 873,-237.25 L 879.5,-237.25 L 879.5,-231.25 L 873,-231.25 L 873,-225.25 L 879.5,-225.25
 L 879.5,-223.5 L 883,-223.5 L 883,-217 L 889,-217 z
M 979.5,-309.25 L 979.5,-315.25 L 986,-315.25 L 986,-309.25 z
M 1086,-309.25 L 1086,-315.25 L 1092.5,-315.25 L 1092.5,-309.25 z
M 979.5,-297.25 L 979.5,-303.25 L 986,-303.25 L 986,-297.25 z
M 1086,-297.25 L 1086,-303.25 L 1092.5,-303.25 L 1092.5,-297.25 z
M 1086,-285.25 L 1086,-291.25 L 1092.5,-291.25 L 1092.5,-285.25 z
M 979.5,-285.25 L 979.5,-291.25 L 986,-291.25 L 986,-285.25 z
M 979.5,-273.25 L 979.5,-279.25 L 986,-279.25 L 986,-273.25 z
M 1086,-273.25 L 1086,-279.25 L 1092.5,-279.25 L 1092.5,-273.25 z
M 979.5,-261.25 L 979.5,-267.25 L 986,-267.25 L 986,-261.25 z
M 1086,-261.25 L 1086,-267.25 L 1092.5,-267.25 L 1092.5,-261.25 z
M 979.5,-249.25 L 979.5,-255.25 L 986,-255.25 L 986,-249.25 z
M 1086,-249.25 L 1086,-255.25 L 1092.5,-255.25 L 1092.5,-249.25 z
M 979.5,-237.25 L 979.5,-243.25 L 986,-243.25 L 986,-237.25 z
M 1086,-237.25 L 1086,-243.25 L 1092.5,-243.25 L 1092.5,-237.25 z
M 979.5,-225.25 L 979.5,-231.25 L 986,-231.25 L 986,-225.25 z
M 1086,-225.25 L 1086,-231.25 L 1092.5,-231.25 L 1092.5,-225.25 z
M 344,-223.5 L 350,-223.5 L 350,-217 L 356,-217 L 356,-223.5 L 362,-223.5
 L 362,-217 L 368,-217 L 368,-223.5 L 374,-223.5 L 374,-217 L 380,-217
 L 380,-223.5 L 386,-223.5 L 386,-217 L 392,-217 L 392,-223.5 L 398,-223.5
 L 398,-217 L 404,-217 L 404,-223.5 L 410,-223.5 L 410,-217 L 416,-217
 L 416,-223.5 L 422,-223.5 L 422,-217 L 428,-217 L 428,-223.5 L 434,-223.5
 L 434,-217 L 440,-217 L 440,-223.5 L 446,-223.5 L 446,-217 L 452,-217
 L 452,-223.5 L 458,-223.5 L 458,-217 L 464,-217 L 464,-223.5 L 470,-223.5
 L 470,-217 L 476,-217 L 476,-223.5 L 482,-223.5 L 482,-217 L 488,-217
 L 488,-223.5 L 494,-223.5 L 494,-217 L 500,-217 L 500,-223.5 L 506,-223.5
 L 506,-217 L 512,-217 L 512,-223.5 L 518,-223.5 L 518,-217 L 524,-217
 L 524,-223.5 L 530,-223.5 L 530,-217 L 536,-217 L 536,-223.5 L 542,-223.5
 L 542,-217 L 548,-217 L 548,-223.5 L 554,-223.5 L 554,-217 L 560,-217
 L 560,-223.5 L 566,-223.5 L 566,-217 L 572,-217 L 572,-223.5 L 578,-223.5
 L 578,-217 L 584,-217 L 584,-223.5 L 590,-223.5 L 590,-217 L 596,-217
 L 596,-223.5 L 602,-223.5 L 602,-217 L 608,-217 L 608,-223.5 L 614,-223.5
 L 614,-217 L 620,-217 L 620,-223.5 L 626,-223.5 L 626,-217 L 632,-217
 L 632,-223.5 L 638,-223.5 L 638,-217 L 644,-217 L 644,-223.5 L 647.5,-223.5
 L 647.5,-225.25 L 654,-225.25 L 654,-231.25 L 647.5,-231.25 L 647.5,-237.25 L 654,-237.25
 L 654,-243.25 L 647.5,-243.25 L 647.5,-249.25 L 654,-249.25 L 654,-255.25 L 647.5,-255.25
 L 647.5,-261.25 L 654,-261.25 L 654,-267.25 L 647.5,-267.25 L 647.5,-273.25 L 654,-273.25
 L 654,-279.25 L 647.5,-279.25 L 647.5,-285.25 L 654,-285.25 L 654,-291.25 L 647.5,-291.25
 L 647.5,-297.25 L 654,-297.25 L 654,-303.25 L 647.5,-303.25 L 647.5,-309.25 L 654,-309.25
 L 654,-315.25 L 647.5,-315.25 L 647.5,-323.5 L 334.5,-323.5 L 334.5,-315.25 L 328,-315.25
 L 328,-309.25 L 334.5,-309.25 L 334.5,-303.25 L 328,-303.25 L 328,-297.25 L 334.5,-297.25
 L 334.5,-291.25 L 328,-291.25 L 328,-285.25 L 334.5,-285.25 L 334.5,-279.25 L 328,-279.25
 L 328,-273.25 L 334.5,-273.25 L 334.5,-267.25 L 328,-267.25 L 328,-261.25 L 334.5,-261.25
 L 334.5,-255.25 L 328,-255.25 L 328,-249.25 L 334.5,-249.25 L 334.5,-243.25 L 328,-243.25
 L 328,-237.25 L 334.5,-237.25 L 334.5,-231.25 L 328,-231.25 L 328,-225.25 L 334.5,-225.25
 L 334.5,-223.5 L 338,-223.5 L 338,-217 L 344,-217 z
M 541,-309.25 L 541,-315.25 L 547.5,-315.25 L 547.5,-309.25 z
M 434.5,-309.25 L 434.5,-315.25 L 441,-315.25 L 441,-309.25 z
M 541,-297.25 L 541,-303.25 L 547.5,-303.25 L 547.5,-297.25 z
M 434.5,-297.25 L 434.5,-303.25 L 441,-303.25 L 441,-297.25 z
M 434.5,-285.25 L 434.5,-291.25 L 441,-291.25 L 441,-285.25 z
M 541,-285.25 L 541,-291.25 L 547.5,-291.25 L 547.5,-285.25 z
M 541,-273.25 L 541,-279.25 L 547.5,-279.25 L 547.5,-273.25 z
M 434.5,-273.25 L 434.5,-279.25 L 441,-279.25 L 441,-273.25 z
M 541,-261.25 L 541,-267.25 L 547.5,-267.25 L 547.5,-261.25 z
M 434.5,-261.25 L 434.5,-267.25 L 441,-267.25 L 441,-261.25 z
M 434.5,-249.25 L 434.5,-255.25 L 441,-255.25 L 441,-249.25 z
M 541,-249.25 L 541,-255.25 L 547.5,-255.25 L 547.5,-249.25 z
M 434.5,-237.25 L 434.5,-243.25 L 441,-243.25 L 441,-237.25 z
M 541,-237.25 L 541,-243.25 L 547.5,-243.25 L 547.5,-237.25 z
M 541,-225.25 L 541,-231.25 L 547.5,-231.25 L 547.5,-225.25 z
M 434.5,-225.25 L 434.5,-231.25 L 441,-231.25 L 441,-225.25 z
M 344,-115 L 350,-115 L 350,-108.5 L 356,-108.5 L 356,-115 L 362,-115
 L 362,-108.5 L 368,-108.5 L 368,-115 L 374,-115 L 374,-108.5 L 380,-108.5
 L 380,-115 L 386,-115 L 386,-108.5 L 392,-108.5 L 392,-115 L 398,-115
 L 398,-108.5 L 404,-108.5 L 404,-115 L 410,-115 L 410,-108.5 L 416,-108.5
 L 416,-115 L 422,-115 L 422,-108.5 L 428,-108.5 L 428,-115 L 434,-115
 L 434,-108.5 L 440,-108.5 L 440,-115 L 446,-115 L 446,-108.5 L 452,-108.5
 L 452,-115 L 458,-115 L 458,-108.5 L 464,-108.5 L 464,-115 L 470,-115
 L 470,-108.5 L 476,-108.5 L 476,-115 L 482,-115 L 482,-108.5 L 488,-108.5
 L 488,-115 L 494,-115 L 494,-108.5 L 500,-108.5 L 500,-115 L 506,-115
 L 506,-108.5 L 512,-108.5 L 512,-115 L 518,-115 L 518,-108.5 L 524,-108.5
 L 524,-115 L 530,-115 L 530,-108.5 L 536,-108.5 L 536,-115 L 541,-115
 L 541,-108.5 L 548,-108.5 L 548,-115 L 554,-115 L 554,-108.5 L 560,-108.5
 L 560,-115 L 566,-115 L 566,-108.5 L 572,-108.5 L 572,-115 L 578,-115
 L 578,-108.5 L 584,-108.5 L 584,-115 L 590,-115 L 590,-108.5 L 596,-108.5
 L 596,-115 L 602,-115 L 602,-108.5 L 608,-108.5 L 608,-115 L 614,-115
 L 614,-108.5 L 620,-108.5 L 620,-115 L 626,-115 L 626,-108.5 L 632,-108.5
 L 632,-115 L 638,-115 L 638,-108.5 L 644,-108.5 L 644,-115 L 654,-115
 L 654,-116.75 L 647.5,-116.75 L 647.5,-122.75 L 654,-122.75 L 654,-128.75 L 647.5,-128.75
 L 647.5,-134.75 L 654,-134.75 L 654,-140.75 L 647.5,-140.75 L 647.5,-146.75 L 654,-146.75
 L 654,-152.75 L 647.5,-152.75 L 647.5,-158.75 L 654,-158.75 L 654,-164.75 L 647.5,-164.75
 L 647.5,-170.75 L 654,-170.75 L 654,-176.75 L 647.5,-176.75 L 647.5,-182.75 L 654,-182.75
 L 654,-188.75 L 647.5,-188.75 L 647.5,-194.75 L 654,-194.75 L 654,-200.75 L 647.5,-200.75
 L 647.5,-206.75 L 654,-206.75 L 654,-215 L 328,-215 L 328,-206.75 L 334.5,-206.75
 L 334.5,-200.75 L 328,-200.75 L 328,-194.75 L 334.5,-194.75 L 334.5,-188.75 L 328,-188.75
 L 328,-182.75 L 334.5,-182.75 L 334.5,-176.75 L 328,-176.75 L 328,-170.75 L 334.5,-170.75
 L 334.5,-164.75 L 328,-164.75 L 328,-158.75 L 334.5,-158.75 L 334.5,-152.75 L 328,-152.75
 L 328,-146.75 L 334.5,-146.75 L 334.5,-140.75 L 328,-140.75 L 328,-134.75 L 334.5,-134.75
 L 334.5,-128.75 L 328,-128.75 L 328,-122.75 L 334.5,-122.75 L 334.5,-116.75 L 328,-116.75
 L 328,-115 L 338,-115 L 338,-108.5 L 344,-108.5 z
M 434.5,-200.75 L 434.5,-206.75 L 441,-206.75 L 441,-200.75 z
M 434.5,-188.75 L 434.5,-194.75 L 441,-194.75 L 441,-188.75 z
M 434.5,-176.75 L 434.5,-182.75 L 441,-182.75 L 441,-176.75 z
M 434.5,-164.75 L 434.5,-170.75 L 441,-170.75 L 441,-164.75 z
M 434.5,-152.75 L 434.5,-158.75 L 441,-158.75 L 441,-152.75 z
M 434.5,-140.75 L 434.5,-146.75 L 441,-146.75 L 441,-140.75 z
M 434.5,-128.75 L 434.5,-134.75 L 441,-134.75 L 441,-128.75 z
M 434.5,-116.75 L 434.5,-122.75 L 441,-122.75 L 441,-116.75 z
M 889,-115 L 895,-115 L 895,-108.5 L 901,-108.5 L 901,-115 L 907,-115
 L 907,-108.5 L 913,-108.5 L 913,-115 L 919,-115 L 919,-108.5 L 925,-108.5
 L 925,-115 L 931,-115 L 931,-108.5 L 937,-108.5 L 937,-115 L 943,-115
 L 943,-108.5 L 949,-108.5 L 949,-115 L 955,-115 L 955,-108.5 L 961,-108.5
 L 961,-115 L 967,-115 L 967,-108.5 L 973,-108.5 L 973,-115 L 979,-115
 L 979,-108.5 L 979.5,-108.5 L 979.5,-161.75 L 986,-161.75 L 986,-115 L 991,-115
 L 991,-108.5 L 997,-108.5 L 997,-115 L 1003,-115 L 1003,-108.5 L 1009,-108.5
 L 1009,-115 L 1015,-115 L 1015,-108.5 L 1021,-108.5 L 1021,-115 L 1027,-115
 L 1027,-108.5 L 1033,-108.5 L 1033,-115 L 1039,-115 L 1039,-108.5 L 1045,-108.5
 L 1045,-115 L 1051,-115 L 1051,-108.5 L 1057,-108.5 L 1057,-115 L 1063,-115
 L 1063,-108.5 L 1069,-108.5 L 1069,-115 L 1075,-115 L 1075,-108.5 L 1081,-108.5
 L 1081,-115 L 1086,-115 L 1086,-161.75 L 1092.5,-161.75 L 1092.5,-108.5 L 1093,-108.5
 L 1093,-115 L 1099,-115 L 1099,-108.5 L 1105,-108.5 L 1105,-115 L 1111,-115
 L 1111,-108.5 L 1117,-108.5 L 1117,-115 L 1123,-115 L 1123,-108.5 L 1129,-108.5
 L 1129,-115 L 1135,-115 L 1135,-108.5 L 1141,-108.5 L 1141,-115 L 1147,-115
 L 1147,-108.5 L 1153,-108.5 L 1153,-115 L 1159,-115 L 1159,-108.5 L 1165,-108.5
 L 1165,-115 L 1171,-115 L 1171,-108.5 L 1177,-108.5 L 1177,-115 L 1183,-115
 L 1183,-108.5 L 1189,-108.5 L 1189,-115 L 1192.5,-115 L 1192.5,-116.75 L 1194,-116.75
 L 1194,-122.75 L 1192.5,-122.75 L 1192.5,-128.75 L 1194,-128.75 L 1194,-134.75 L 1192.5,-134.75
 L 1192.5,-140.75 L 1194,-140.75 L 1194,-146.75 L 1192.5,-146.75 L 1192.5,-152.75 L 1194,-152.75
 L 1194,-158.75 L 1192.5,-158.75 L 1192.5,-164.75 L 1194,-164.75 L 1194,-170.75 L 1192.5,-170.75
 L 1192.5,-176.75 L 1194,-176.75 L 1194,-182.75 L 1192.5,-182.75 L 1192.5,-188.75 L 1194,-188.75
 L 1194,-194.75 L 1192.5,-194.75 L 1192.5,-200.75 L 1194,-200.75 L 1194,-206.75 L 1192.5,-206.75
 L 1192.5,-215 L 879.5,-215 L 879.5,-206.75 L 873,-206.75 L 873,-200.75 L 879.5,-200.75
 L 879.5,-194.75 L 873,-194.75 L 873,-188.75 L 879.5,-188.75 L 879.5,-182.75 L 873,-182.75
 L 873,-176.75 L 879.5,-176.75 L 879.5,-170.75 L 873,-170.75 L 873,-164.75 L 879.5,-164.75
 L 879.5,-158.75 L 873,-158.75 L 873,-152.75 L 879.5,-152.75 L 879.5,-146.75 L 873,-146.75
 L 873,-140.75 L 879.5,-140.75 L 879.5,-134.75 L 873,-134.75 L 873,-128.75 L 879.5,-128.75
 L 879.5,-122.75 L 873,-122.75 L 873,-116.75 L 879.5,-116.75 L 879.5,-115 L 883,-115
 L 883,-108.5 L 889,-108.5 z
M 344,-6.5 L 350,-6.5 L 350,-0 L 356,-0 L 356,-6.5 L 362,-6.5
 L 362,-0 L 368,-0 L 368,-6.5 L 374,-6.5 L 374,-0 L 380,-0
 L 380,-6.5 L 386,-6.5 L 386,-0 L 392,-0 L 392,-6.5 L 398,-6.5
 L 398,-0 L 404,-0 L 404,-6.5 L 410,-6.5 L 410,-0 L 416,-0
 L 416,-6.5 L 422,-6.5 L 422,-0 L 428,-0 L 428,-6.5 L 434,-6.5
 L 434,-0 L 440,-0 L 440,-6.5 L 446,-6.5 L 446,-0 L 452,-0
 L 452,-6.5 L 458,-6.5 L 458,-0 L 464,-0 L 464,-6.5 L 470,-6.5
 L 470,-0 L 476,-0 L 476,-6.5 L 482,-6.5 L 482,-0 L 488,-0
 L 488,-6.5 L 494,-6.5 L 494,-0 L 500,-0 L 500,-6.5 L 506,-6.5
 L 506,-0 L 512,-0 L 512,-6.5 L 518,-6.5 L 518,-0 L 524,-0
 L 524,-6.5 L 530,-6.5 L 530,-0 L 536,-0 L 536,-6.5 L 542,-6.5
 L 542,-0 L 548,-0 L 548,-6.5 L 554,-6.5 L 554,-0 L 560,-0
 L 560,-6.5 L 566,-6.5 L 566,-0 L 572,-0 L 572,-6.5 L 578,-6.5
 L 578,-0 L 584,-0 L 584,-6.5 L 590,-6.5 L 590,-0 L 596,-0
 L 596,-6.5 L 602,-6.5 L 602,-0 L 608,-0 L 608,-6.5 L 614,-6.5
 L 614,-0 L 620,-0 L 620,-6.5 L 626,-6.5 L 626,-0 L 632,-0
 L 632,-6.5 L 638,-6.5 L 638,-0 L 644,-0 L 644,-6.5 L 654,-6.5
 L 654,-8.24998 L 647.5,-8.24998 L 647.5,-14.25 L 654,-14.25 L 654,-20.25 L 647.5,-20.25
 L 647.5,-26.25 L 654,-26.25 L 654,-32.25 L 647.5,-32.25 L 647.5,-38.25 L 654,-38.25
 L 654,-44.25 L 647.5,-44.25 L 647.5,-50.25 L 654,-50.25 L 654,-56.25 L 647.5,-56.25
 L 647.5,-62.25 L 654,-62.25 L 654,-68.25 L 647.5,-68.25 L 647.5,-74.25 L 654,-74.25
 L 654,-80.25 L 647.5,-80.25 L 647.5,-86.25 L 654,-86.25 L 654,-92.25 L 647.5,-92.25
 L 647.5,-98.25 L 654,-98.25 L 654,-106.5 L 328,-106.5 L 328,-98.25 L 334.5,-98.25
 L 334.5,-92.25 L 328,-92.25 L 328,-86.25 L 334.5,-86.25 L 334.5,-80.25 L 328,-80.25
 L 328,-74.25 L 334.5,-74.25 L 334.5,-68.25 L 328,-68.25 L 328,-62.25 L 334.5,-62.25
 L 334.5,-56.25 L 328,-56.25 L 328,-50.25 L 334.5,-50.25 L 334.5,-44.25 L 328,-44.25
 L 328,-38.25 L 334.5,-38.25 L 334.5,-32.25 L 328,-32.25 L 328,-26.25 L 334.5,-26.25
 L 334.5,-20.25 L 328,-20.25 L 328,-14.25 L 334.5,-14.25 L 334.5,-8.25 L 328,-8.25
 L 328,-6.5 L 338,-6.5 L 338,-0 L 344,-0 z
M 434.5,-92.25 L 434.5,-98.25 L 441,-98.25 L 441,-92.25 z
M 434.5,-80.25 L 434.5,-86.25 L 441,-86.25 L 441,-80.25 z
M 434.5,-68.25 L 434.5,-74.25 L 441,-74.25 L 441,-68.25 z
M 434.5,-56.25 L 434.5,-62.25 L 441,-62.25 L 441,-56.25 z
M 434.5,-44.25 L 434.5,-50.25 L 441,-50.25 L 441,-44.25 z
M 434.5,-32.25 L 434.5,-38.25 L 441,-38.25 L 441,-32.25 z
M 434.5,-20.25 L 434.5,-26.25 L 441,-26.25 L 441,-20.25 z
M 434.5,-8.25 L 434.5,-14.25 L 441,-14.25 L 441,-8.25 z
M 986,-6.5 L 991,-6.5 L 991,-0 L 997,-0 L 997,-6.5 L 1003,-6.5
 L 1003,-0 L 1009,-0 L 1009,-6.5 L 1015,-6.5 L 1015,-0 L 1021,-0
 L 1021,-6.5 L 1027,-6.5 L 1027,-0 L 1033,-0 L 1033,-6.5 L 1039,-6.5
 L 1039,-0 L 1045,-0 L 1045,-6.5 L 1051,-6.5 L 1051,-0 L 1057,-0
 L 1057,-6.5 L 1063,-6.5 L 1063,-0 L 1069,-0 L 1069,-6.5 L 1075,-6.5
 L 1075,-0 L 1081,-0 L 1081,-6.5 L 1086,-6.5 L 1086,-53.25 L 1092.5,-53.25
 L 1092.5,-0 L 1093,-0 L 1093,-6.5 L 1099,-6.5 L 1099,-0 L 1105,-0
 L 1105,-6.5 L 1111,-6.5 L 1111,-0 L 1117,-0 L 1117,-6.5 L 1123,-6.5
 L 1123,-0 L 1129,-0 L 1129,-6.5 L 1135,-6.5 L 1135,-0 L 1141,-0
 L 1141,-6.5 L 1147,-6.5 L 1147,-0 L 1153,-0 L 1153,-6.5 L 1159,-6.5
 L 1159,-0 L 1165,-0 L 1165,-6.5 L 1171,-6.5 L 1171,-0 L 1177,-0
 L 1177,-6.5 L 1183,-6.5 L 1183,-0 L 1189,-0 L 1189,-6.5 L 1192.5,-6.5
 L 1192.5,-8.24998 L 1194,-8.24998 L 1194,-14.25 L 1192.5,-14.25 L 1192.5,-20.25 L 1194,-20.25
 L 1194,-26.25 L 1192.5,-26.25 L 1192.5,-32.25 L 1194,-32.25 L 1194,-38.25 L 1192.5,-38.25
 L 1192.5,-44.25 L 1194,-44.25 L 1194,-50.25 L 1192.5,-50.25 L 1192.5,-56.25 L 1194,-56.25
 L 1194,-62.25 L 1192.5,-62.25 L 1192.5,-68.25 L 1194,-68.25 L 1194,-74.25 L 1192.5,-74.25
 L 1192.5,-80.25 L 1194,-80.25 L 1194,-86.25 L 1192.5,-86.25 L 1192.5,-92.25 L 1194,-92.25
 L 1194,-98.25 L 1192.5,-98.25 L 1192.5,-106.5 L 979.5,-106.5 L 979.5,-53.25 L 986,-53.25
 z
" stroke="black" fill="lightgray" stroke-width="0.5"/></svg>
